<?xml version="1.0" standalone="no"?>
<!DOCTYPE svg PUBLIC "-//W3C//DTD SVG 1.1//EN" "http://www.w3.org/Graphics/SVG/1.1/DTD/svg11.dtd" >
<svg>
<metadata>
Created by FontForge 20110222 at Wed Oct 30 02:16:32 2013
 By Orthosie Webhosting
Copyright Erik Spiekermann, 1991, 93, 98. Published by FontShop International for  FontFont Release 23. Copyright (c) ParaType, Inc., 2000. All rights reserved. Meta is a trademark of FSI Fonts and Software GmbH.
</metadata>
<defs>
<font id="MetaNormalCItalic" horiz-adv-x="451" >
  <font-face 
    font-family="MetaNormalCItalic"
    font-weight="400"
    font-style="italic"
    font-stretch="normal"
    units-per-em="1000"
    panose-1="0 0 5 0 0 0 0 0 0 0"
    ascent="792"
    descent="-208"
    x-height="498"
    cap-height="686"
    bbox="-99 -208 950 902"
    underline-thickness="50"
    underline-position="-50"
    slope="-13.44"
    unicode-range="U+0020-F6D4"
  />
<missing-glyph horiz-adv-x="225" 
 />
    <glyph glyph-name=".notdef" horiz-adv-x="225" 
 />
    <glyph glyph-name=".null" horiz-adv-x="0" 
 />
    <glyph glyph-name="nonmarkingreturn" horiz-adv-x="333" 
 />
    <glyph glyph-name="space" unicode=" " horiz-adv-x="225" 
 />
    <glyph glyph-name="space" unicode="&#xa0;" horiz-adv-x="225" 
 />
    <glyph glyph-name="exclam" unicode="!" horiz-adv-x="284" 
d="M279 699l-126 -501h-60l85 488zM165 56q0 -26 -18 -44.5t-43 -18.5t-43 18t-18 44q0 25 17.5 43t43.5 18q25 0 43 -17.5t18 -42.5z" />
    <glyph glyph-name="quotedbl" unicode="&#x22;" horiz-adv-x="399" 
d="M410 708l-51 -240h-72l51 240h72zM263 708l-51 -240h-72l51 240h72z" />
    <glyph glyph-name="numbersign" unicode="#" horiz-adv-x="571" 
d="M583 431h-114l-53 -152h90v-66h-115l-75 -213h-67l75 213h-126l-75 -213h-67l75 213h-91v66h116l52 152h-91v66h115l75 211h67l-75 -211h126l75 211h67l-75 -211h91v-66zM402 431h-126l-53 -152h126z" />
    <glyph glyph-name="dollar" unicode="$" horiz-adv-x="532" 
d="M548 642l-43 -61q-63 47 -128 52l-52 -243l33 -14q61 -26 87 -67.5t26 -104.5q0 -83 -62 -142.5t-170 -71.5l-20 -97h-59l20 94q-101 1 -180 54l40 65q72 -49 154 -52l59 276l-25 10q-61 25 -89 63t-28 99q0 80 62 135t159 63l18 83h59l-18 -83q91 -8 157 -58zM271 414
l47 217q-54 -8 -87.5 -38.5t-33.5 -73.5q0 -39 16 -62t58 -43zM307 306l-53 -248q60 12 95.5 48.5t35.5 85.5q0 41 -17 67t-61 47z" />
    <glyph glyph-name="percent" unicode="%" horiz-adv-x="850" 
d="M725 686l-481 -686h-66l481 686h66zM799 212q0 -101 -57 -161.5t-146 -60.5q-60 0 -94.5 31t-34.5 93q0 93 57 155.5t144 62.5q64 0 97.5 -33.5t33.5 -86.5zM429 573q0 -101 -57 -161.5t-146 -60.5q-60 0 -94.5 31t-34.5 93q0 93 57 155.5t144 62.5q64 0 97.5 -33.5
t33.5 -86.5zM731 203q0 74 -76 74q-59 0 -89 -44t-30 -117q0 -71 75 -71q57 0 88.5 44.5t31.5 113.5zM361 564q0 74 -76 74q-59 0 -89 -44t-30 -117q0 -71 75 -71q57 0 88.5 44.5t31.5 113.5z" />
    <glyph glyph-name="ampersand" unicode="&#x26;" horiz-adv-x="675" 
d="M610 0h-103l-53 65q-38 -37 -94.5 -58.5t-116.5 -21.5q-93 0 -146 40t-53 111q0 63 38.5 114.5t140.5 93.5q-62 67 -62 131q0 72 59 126.5t153 54.5q69 0 111.5 -34.5t42.5 -87.5q0 -103 -117 -164l-66 -34l126 -158q12 15 25.5 53.5t20.5 70.5l7 31h69
q-26 -132 -83 -209zM443 527q0 33 -22.5 52t-58.5 19q-40 0 -77.5 -27t-37.5 -68q0 -38 10 -58.5t49 -63.5q84 36 113 76q24 34 24 70zM421 110l-158 192q-70 -30 -101 -65t-31 -88q0 -44 33 -73.5t92 -29.5q48 0 93 18.5t72 45.5z" />
    <glyph glyph-name="quotesingle" unicode="'" horiz-adv-x="252" 
d="M262 708l-51 -240h-72l51 240h72z" />
    <glyph glyph-name="parenleft" unicode="(" horiz-adv-x="322" 
d="M437 770l15 -45q-119 -61 -164 -130q-62 -93 -99 -268q-26 -120 -26 -205q0 -165 106 -235l-29 -42q-72 36 -113 108t-41 171q0 92 22 197q47 227 166 344q75 73 163 105z" />
    <glyph glyph-name="parenright" unicode=")" horiz-adv-x="322" 
d="M84 734l29 38q72 -36 113 -108t41 -171q0 -93 -22 -197q-47 -227 -166 -344q-75 -73 -163 -105l-15 49q119 61 164 130q62 93 99 268q26 120 26 205q0 165 -106 235z" />
    <glyph glyph-name="asterisk" unicode="*" horiz-adv-x="458" 
d="M488 549l-141 -48l89 -119l-49 -38l-90 123l-87 -123l-50 38l87 119l-141 48l19 58l142 -48v149h60v-149l142 48z" />
    <glyph glyph-name="plus" unicode="+" horiz-adv-x="529" 
d="M490 286l-16 -72h-175l-38 -178h-76l38 178h-177l16 72h176l38 178h76l-38 -178h176z" />
    <glyph glyph-name="comma" unicode="," horiz-adv-x="280" 
d="M14 -143l-26 44q65 29 86 89q-22 0 -37 18.5t-15 43.5q1 33 22 53t53 20q30 0 50.5 -21t20.5 -54q0 -68 -59 -129q-37 -38 -95 -64z" />
    <glyph glyph-name="hyphen" unicode="-" horiz-adv-x="331" 
d="M276 305l-16 -76h-191l16 76h191z" />
    <glyph glyph-name="hyphen" unicode="&#xad;" horiz-adv-x="331" 
d="M276 305l-16 -76h-191l16 76h191z" />
    <glyph glyph-name="period" unicode="." horiz-adv-x="276" 
d="M167 56q0 -28 -20 -48.5t-47 -20.5q-28 0 -47.5 20t-19.5 49q0 28 19 47t47 19q29 0 48.5 -19t19.5 -47z" />
    <glyph glyph-name="slash" unicode="/" horiz-adv-x="403" 
d="M476 757l-451 -905h-66l451 905h66z" />
    <glyph glyph-name="zero" unicode="0" horiz-adv-x="586" 
d="M528 328q0 -75 -31 -154.5t-79 -123.5q-75 -67 -180 -67q-87 0 -131.5 45.5t-44.5 130.5q0 71 27.5 148.5t70.5 122.5q76 79 189 79q87 0 133 -47.5t46 -133.5zM445 331q0 59 -26.5 86t-83.5 27q-70 0 -114 -44q-34 -34 -55.5 -106t-21.5 -132q0 -59 27 -86.5t83 -27.5
q66 0 110 40q37 35 59 102t22 141z" />
    <glyph glyph-name="one" unicode="1" horiz-adv-x="423" 
d="M339 507l-94 -444h92l-14 -63h-263l14 63h92l74 349q-87 -50 -147 -72l-11 51l196 116h61z" />
    <glyph glyph-name="two" unicode="2" horiz-adv-x="539" 
d="M434 64l-30 -64h-382l14 63q347 205 347 309q0 39 -22 59q-22 19 -65 19q-73 0 -171 -71l-26 46q116 93 229 93q75 0 113.5 -37.5t38.5 -86.5q0 -71 -81 -146q-62 -55 -169 -123l-104 -65q42 4 104 4h204z" />
    <glyph glyph-name="three" unicode="3" horiz-adv-x="520" 
d="M109 388l-27 44q120 83 226 83q70 0 114 -37.5t44 -94.5q0 -61 -43.5 -111.5t-111.5 -67.5q51 -10 80.5 -47.5t29.5 -83.5q0 -106 -105.5 -180.5t-287.5 -74.5q-30 0 -49 3l-7 57q19 -3 51 -3q155 0 229 57q36 27 59 66.5t23 74.5t-17 61.5t-46 35.5q-30 10 -119 10h-10
l12 56h9q107 0 135 11q39 15 60 50.5t21 71.5q0 39 -26.5 60t-72.5 21q-72 0 -171 -62z" />
    <glyph glyph-name="four" unicode="4" horiz-adv-x="535" 
d="M460 67l-14 -63h-55q-14 0 -27 1q0 -4 -2 -11.5t-2 -11.5q0 -1 -0.5 -3t-0.5 -3l-31 -148l-82 -23l34 160q1 3 3.5 13.5t5.5 26.5q-19 -1 -40 -1h-258l13 62l326 450h87l-270 -374q0 -1 -61 -79q18 3 39 3h177l30 119l40 140l66 19l-43 -201q-15 -66 -18 -78q17 2 34 2
h49z" />
    <glyph glyph-name="five" unicode="5" horiz-adv-x="480" 
d="M440 498l-26 -66h-216l-59 -194q44 5 72 5q76 0 124.5 -43.5t48.5 -113.5q0 -18 -5 -43q-23 -108 -120 -168t-220 -60q-37 0 -71 10l-2 60q28 -14 72 -14q92 0 165.5 48.5t89.5 123.5q4 17 4 36q0 49 -33 76.5t-92 27.5q-78 0 -132 -22l104 337h296z" />
    <glyph glyph-name="six" unicode="6" horiz-adv-x="567" 
d="M522 694l10 -57q-85 -25 -157.5 -69.5t-116.5 -96.5t-75 -123q67 52 157 52q66 0 113.5 -45.5t47.5 -118.5q0 -111 -76 -181t-184 -70q-83 0 -133.5 56t-50.5 145q0 88 39.5 176t116.5 160q130 122 309 172zM411 230q0 56 -27 83t-73 27q-68 0 -146 -53q-21 -59 -21 -109
q0 -59 30 -95.5t80 -36.5q70 0 113.5 50t43.5 134z" />
    <glyph glyph-name="seven" unicode="7" horiz-adv-x="480" 
d="M506 495l-11 -76q-122 -137 -233 -294q-95 -136 -157 -285l-101 -25q56 151 195 344q134 185 229 272q-47 -2 -93 -2h-264l29 66h406z" />
    <glyph glyph-name="eight" unicode="8" horiz-adv-x="571" 
d="M376 351l47 -24q35 -18 56 -52t21 -72q0 -88 -73.5 -154t-186.5 -66q-92 0 -144 43.5t-52 114.5q0 142 182 206q-88 45 -88 124q0 85 67.5 139.5t178.5 54.5q76 0 120.5 -36.5t44.5 -89.5q0 -117 -173 -188zM471 533q0 34 -29 54.5t-78 20.5q-66 0 -106.5 -31.5
t-40.5 -88.5q0 -36 23 -59t86 -53q83 36 114 74.5t31 82.5zM419 187q0 40 -24 63.5t-119 70.5q-68 -24 -109.5 -70t-41.5 -107q0 -47 32.5 -74.5t90.5 -27.5q82 0 126.5 42t44.5 103z" />
    <glyph glyph-name="nine" unicode="9" horiz-adv-x="561" 
d="M5 -206l-31 50q137 26 249 106.5t153 181.5q-67 -52 -157 -52q-64 0 -110 51.5t-46 125.5q0 111 77 183.5t184 72.5q83 0 133.5 -56t50.5 -145q0 -90 -38 -180.5t-114 -161.5q-151 -142 -351 -176zM421 320q0 59 -30 95.5t-80 36.5q-69 0 -113.5 -52.5t-44.5 -136.5
q0 -58 25.5 -90.5t69.5 -32.5q68 0 146 53q27 75 27 127z" />
    <glyph glyph-name="colon" unicode=":" horiz-adv-x="295" 
d="M243 372q0 -28 -20 -48.5t-47 -20.5q-28 0 -47.5 20t-19.5 49q0 28 19 47t47 19q29 0 48.5 -19t19.5 -47zM176 56q0 -28 -20 -48.5t-47 -20.5q-28 0 -47.5 20t-19.5 49q0 28 19 47t47 19q29 0 48.5 -19t19.5 -47z" />
    <glyph glyph-name="semicolon" unicode=";" horiz-adv-x="311" 
d="M243 372q0 -28 -20 -48.5t-47 -20.5q-28 0 -47.5 20t-19.5 49q0 28 19 47t47 19q29 0 48.5 -19t19.5 -47zM34 -143l-26 44q65 29 86 89q-22 0 -37 18.5t-15 43.5q1 33 22 53t53 20q30 0 50.5 -21t20.5 -54q0 -70 -59 -129q-42 -40 -95 -64z" />
    <glyph glyph-name="less" unicode="&#x3c;" horiz-adv-x="320" 
d="M340 512l-210 -216l110 -213l-70 -40l-136 257l245 257z" />
    <glyph glyph-name="equal" unicode="=" horiz-adv-x="623" 
d="M611 414l-14 -66h-522l14 66h522zM578 258l-14 -66h-522l14 66h522z" />
    <glyph glyph-name="greater" unicode="&#x3e;" horiz-adv-x="320" 
d="M315 300l-245 -257l-61 45l210 221l-110 208l70 40z" />
    <glyph glyph-name="question" unicode="?" horiz-adv-x="434" 
d="M151 581l-26 53q91 61 181 61q73 0 110 -33t37 -91q0 -90 -125 -173q-55 -37 -76.5 -77t-21.5 -99h-67q-2 70 23.5 124.5t91.5 94.5q93 57 93 111q0 37 -21.5 56t-59.5 19q-64 0 -139 -46zM229 54q0 -26 -18 -44.5t-43 -18.5t-43 18t-18 44q0 25 17.5 43t43.5 18
q25 0 43 -17.5t18 -42.5z" />
    <glyph glyph-name="at" unicode="@" horiz-adv-x="906" 
d="M577 -91l13 -54q-60 -20 -150 -20q-162 0 -269 98.5t-107 270.5q0 179 110.5 300t283.5 121q166 0 276.5 -96t110.5 -252q0 -129 -64 -210t-153 -81q-63 0 -87.5 35.5t-16.5 81.5q-24 -43 -68.5 -74t-92.5 -31q-45 0 -78 37.5t-33 105.5q0 128 70.5 220t193.5 92
q64 0 123 -32q-14 -50 -23 -92l-38 -181q-13 -60 -0.5 -84.5t53.5 -24.5q60 0 101.5 69.5t41.5 168.5q0 126 -88 210t-228 84q-145 0 -233.5 -109t-88.5 -258q0 -139 86 -226.5t218 -87.5q80 0 137 19zM520 198l40 189q-23 14 -51 14q-63 0 -107.5 -43.5t-62 -101
t-17.5 -119.5q0 -43 15 -61.5t47 -18.5q40 0 81 37.5t55 103.5z" />
    <glyph glyph-name="A" unicode="A" horiz-adv-x="563" 
d="M325 686h107l81 -686h-89l-20 211h-256l-111 -211h-87zM397 278l-35 338q-24 -46 -35 -69q-1 -2 -3.5 -7.5t-4.5 -8.5l-135 -253h213z" />
    <glyph glyph-name="B" unicode="B" horiz-adv-x="585" 
d="M186 686h177q137 0 184 -61q26 -35 26 -85q0 -88 -65 -136q-37 -28 -91 -41q42 -8 70 -30q47 -39 47 -111q0 -88 -75 -156q-41 -37 -90.5 -51.5t-127.5 -14.5h-201zM202 391h124q67 0 109 30q46 35 46 98q0 59 -42 82q-28 16 -82 16h-107zM133 67h135q79 0 124 36
q52 44 52 113q0 48 -22 72q-31 35 -113 35h-121z" />
    <glyph glyph-name="C" unicode="C" horiz-adv-x="555" 
d="M602 641l-46 -52q-50 43 -121 43q-120 0 -198 -119q-37 -57 -59 -134.5t-22 -145.5q0 -87 44 -132q43 -44 119 -44q77 0 144 45l32 -58q-94 -56 -204 -56q-102 0 -162 68q-58 66 -58 181q0 93 32 184t92 159q105 118 249 118q94 0 158 -57z" />
    <glyph glyph-name="D" unicode="D" horiz-adv-x="625" 
d="M186 686h175q111 0 170 -53q68 -60 68 -185q0 -92 -37 -194q-40 -109 -107 -171q-51 -48 -108 -65.5t-128 -17.5h-179zM136 68h74q135 0 198 71q42 48 72 132t30 161q0 84 -27 127q-17 27 -45 41t-49 16.5t-53 2.5h-82z" />
    <glyph glyph-name="E" unicode="E" horiz-adv-x="502" 
d="M561 686l-26 -68h-281l-47 -225h235l-16 -71h-235l-53 -251h302l-15 -71h-385l146 686h375z" />
    <glyph glyph-name="F" unicode="F" horiz-adv-x="430" 
d="M546 686l-28 -68h-265l-47 -225h220l-15 -67h-220l-69 -326h-82l146 686h360z" />
    <glyph glyph-name="G" unicode="G" horiz-adv-x="637" 
d="M620 633l-41 -51q-60 49 -143 49q-107 0 -172 -80q-46 -55 -74.5 -146t-28.5 -167q0 -81 40 -128q46 -54 137 -54q55 0 108 28l44 210h-139v69h232l-69 -323q-99 -52 -202 -52q-112 0 -179 71q-62 67 -62 181q0 88 34.5 188t107.5 174q96 96 235 96q107 0 172 -65z" />
    <glyph glyph-name="H" unicode="H" horiz-adv-x="631" 
d="M637 686l-146 -686h-82l71 332h-287l-71 -332h-82l146 686h82l-61 -287h287l61 287h82z" />
    <glyph glyph-name="I" unicode="I" horiz-adv-x="262" 
d="M268 686l-146 -686h-82l146 686h82z" />
    <glyph glyph-name="J" unicode="J" horiz-adv-x="262" 
d="M268 686l-121 -569q-24 -113 -58 -157q-47 -63 -135 -88l-29 51q60 23 96 67q24 30 44 125l121 571h82z" />
    <glyph glyph-name="K" unicode="K" horiz-adv-x="550" 
d="M621 663l-324 -306l198 -345l-86 -27l-206 378l356 345zM268 686l-146 -686h-82l146 686h82z" />
    <glyph glyph-name="L" unicode="L" horiz-adv-x="453" 
d="M408 69l-26 -69h-342l146 686h82l-131 -617h271z" />
    <glyph glyph-name="M" unicode="M" horiz-adv-x="806" 
d="M226 686h120l30 -448q4 -56 1 -120q27 68 49 112l226 456h121l-87 -686h-82l67 503q7 48 20 117q-19 -44 -50 -108l-256 -512h-70l-34 520q-3 43 -4 101q-9 -39 -36 -133l-142 -488h-79z" />
    <glyph glyph-name="N" unicode="N" horiz-adv-x="634" 
d="M640 686l-146 -686h-86l-131 420q-26 87 -43 164q-10 -93 -30 -186l-81 -398h-83l146 686h93l135 -438q19 -62 33 -144q17 121 36 209l76 373h81z" />
    <glyph glyph-name="O" unicode="O" horiz-adv-x="676" 
d="M649 466q0 -121 -41.5 -236t-123.5 -180q-79 -62 -184 -62q-113 0 -172 65q-56 62 -56 177q0 107 36.5 210t98.5 168q85 90 223 90q102 0 162 -62q57 -59 57 -170zM559 476q0 88 -46 127q-35 31 -93 31q-102 0 -164 -80q-43 -57 -68.5 -150t-25.5 -188q0 -79 32 -119
q37 -45 110 -45q81 0 140 59q52 53 83.5 164.5t31.5 200.5z" />
    <glyph glyph-name="P" unicode="P" horiz-adv-x="549" 
d="M186 686h180q54 0 93.5 -9.5t72.5 -41.5q43 -42 43 -113q0 -125 -96 -199q-63 -50 -179 -50h-120l-58 -273h-82zM194 340h115q79 0 124 44q53 53 53 124q0 50 -26 76q-32 33 -120 33h-87z" />
    <glyph glyph-name="Q" unicode="Q" horiz-adv-x="678" 
d="M632 -60l-24 -54q-22 -10 -61 -10q-49 0 -135 52q-79 49 -130 59q-102 1 -155.5 65.5t-53.5 177.5q0 111 36.5 212.5t98.5 165.5q46 47 99.5 68.5t127.5 21.5q102 0 159 -60.5t57 -171.5q0 -128 -43 -242t-123 -175q-34 -26 -76 -44q33 -11 81 -42q43 -28 100 -28
q27 0 42 5zM561 474q0 158 -140 158q-105 0 -164 -80q-41 -54 -67.5 -155t-26.5 -186q0 -161 142 -161q79 0 140 59q49 49 82.5 159t33.5 206z" />
    <glyph glyph-name="R" unicode="R" horiz-adv-x="534" 
d="M186 686h150q125 0 175 -48q40 -38 40 -112q0 -101 -74 -163q-64 -54 -152 -54h-10q55 -57 106 -159q31 -61 57 -138l-72 -24q-18 45 -50 112l-18 38q-33 68 -75 130q-21 28 -39 35q-16 6 -36 6l-66 -309h-82zM200 360h73q89 0 132 35q59 49 59 121q0 54 -34 79
q-30 22 -97 22h-79z" />
    <glyph glyph-name="S" unicode="S" horiz-adv-x="547" 
d="M554 639l-42 -60q-62 52 -150 52q-56 0 -98 -23q-57 -33 -57 -103q0 -27 14 -48q17 -26 73 -50l72 -31q60 -26 86 -69t26 -98q0 -100 -77 -160q-79 -61 -204 -61q-111 0 -187 54l39 64q73 -51 163 -51q83 0 131 40q47 38 47 103q0 42 -20 66.5t-72 46.5l-62 26
q-116 49 -116 157q0 113 103 170q61 34 148 34q104 0 183 -59z" />
    <glyph glyph-name="T" unicode="T" horiz-adv-x="457" 
d="M573 686l-20 -69h-186l-131 -617h-82l131 617h-184l15 69h457z" />
    <glyph glyph-name="U" unicode="U" horiz-adv-x="626" 
d="M637 686l-101 -477q-16 -74 -32 -108.5t-55 -62.5q-70 -50 -174 -50q-105 0 -154 40q-47 38 -47 122q0 36 9 76l98 460h82l-93 -439q-15 -72 -15 -105q0 -37 28 -60q31 -24 94 -24q86 0 128 43q34 35 51 117l99 468h82z" />
    <glyph glyph-name="V" unicode="V" horiz-adv-x="567" 
d="M191 686l52 -440q7 -74 7 -115v-38q15 32 72 143l243 450h88l-381 -686h-81l-85 686h85z" />
    <glyph glyph-name="W" unicode="W" horiz-adv-x="792" 
d="M878 686l-303 -686h-107l-4 381q-1 104 6 195q-28 -75 -76 -189l-166 -387h-106l-16 686h84l2 -401q0 -75 -8 -209q34 88 82 199l178 411h93l4 -398q2 -158 -4 -212q32 88 85 212l170 398h86z" />
    <glyph glyph-name="X" unicode="X" horiz-adv-x="481" 
d="M567 686l-249 -328l144 -358h-94l-111 295l-218 -295h-100l288 368l-121 318h91l89 -249l181 249h100z" />
    <glyph glyph-name="Y" unicode="Y" horiz-adv-x="526" 
d="M622 686l-312 -419l-57 -267h-82l58 272l-133 414h95l76 -268q12 -40 17 -71l53 77l188 262h97z" />
    <glyph glyph-name="Z" unicode="Z" horiz-adv-x="513" 
d="M439 70l-26 -70h-409v63l414 505q24 29 45 49h-327l28 69h392v-65l-392 -486l-56 -66h13q7 0 23 0.5t23 0.5h272z" />
    <glyph glyph-name="bracketleft" unicode="[" horiz-adv-x="275" 
d="M361 732l-13 -60h-93l-163 -768h93l-13 -60h-165l189 888h165z" />
    <glyph glyph-name="backslash" unicode="\" horiz-adv-x="406" 
d="M330 -23l-70 -16l-138 770l70 14z" />
    <glyph glyph-name="bracketright" unicode="]" horiz-adv-x="275" 
d="M291 732l-189 -888h-165l13 60h93l163 768h-93l13 60h165z" />
    <glyph glyph-name="asciicircum" unicode="^" horiz-adv-x="628" 
d="M576 275h-74l-105 349l-253 -349h-74l315 433h60z" />
    <glyph glyph-name="underscore" unicode="_" horiz-adv-x="498" 
d="M433 -75l-10 -50h-500l10 50h500z" />
    <glyph glyph-name="grave" unicode="`" horiz-adv-x="319" 
d="M368 612l-26 -47l-223 100l43 77z" />
    <glyph glyph-name="a" unicode="a" horiz-adv-x="521" 
d="M433 26l-62 -48q-39 37 -39 89q0 6 2 20q-23 -44 -72 -73q-47 -26 -97 -26q-56 0 -87 38q-37 46 -37 120q0 67 26 146.5t79 133.5q84 84 200 84q80 0 139 -41q-20 -71 -26 -104l-43 -207q-10 -48 -10 -66q0 -39 27 -66zM344 175l54 258q-23 14 -63 14q-86 0 -142 -72
q-70 -88 -70 -230q0 -46 17 -67q18 -23 49 -23q46 0 90 37q44 39 65 83z" />
    <glyph glyph-name="b" unicode="b" horiz-adv-x="562" 
d="M238 564l-14 -67q-4 -18 -24 -92q32 46 82.5 75.5t99.5 29.5q67 0 101 -43t34 -122q0 -87 -31.5 -164.5t-84.5 -127.5q-68 -65 -161 -65q-120 0 -192 61q11 36 19 75l91 429q10 47 10 96q0 35 -6 56l83 32q7 -26 7 -57q0 -49 -14 -116zM186 326l-51 -242q35 -30 105 -30
q27 0 58.5 15t49.5 35q38 43 60.5 111.5t22.5 128.5q0 94 -81 94q-77 0 -164 -112z" />
    <glyph glyph-name="c" unicode="c" horiz-adv-x="440" 
d="M450 468l-37 -61q-43 35 -101 35q-63 0 -106 -56q-26 -34 -47 -100q-23 -77 -23 -133q0 -43 17 -67q25 -36 77 -36q67 0 119 54l32 -50q-76 -66 -166 -66q-83 0 -124 45q-39 43 -39 124q0 82 38 169q35 78 90 127q66 57 149 57q72 0 121 -42z" />
    <glyph glyph-name="d" unicode="d" horiz-adv-x="561" 
d="M574 717l-120 -556q-10 -50 -10 -70q0 -31 27 -62l-67 -50q-46 42 -37 107q-68 -98 -177 -98q-69 0 -104 42q-34 42 -34 125q0 82 32 158t80 123q76 74 183 74q62 0 100 -21l51 241zM379 173l52 249q-17 13 -38 18q-23 6 -52 6q-74 0 -126 -58q-33 -33 -57 -106
q-22 -66 -22 -129q0 -51 19 -76q19 -23 54 -23q49 0 96 34.5t74 84.5z" />
    <glyph glyph-name="e" unicode="e" horiz-adv-x="498" 
d="M386 110l33 -48q-70 -74 -188 -74q-88 0 -133 51q-44 48 -44 132q0 66 25.5 139.5t84.5 129.5q74 70 164 70q71 0 109 -38q34 -34 34 -91q0 -60 -46 -104q-58 -56 -213 -56q-24 0 -64 2q-7 -31 -7 -63q0 -53 30 -81q28 -26 75 -26q74 0 127 46zM161 281q21 -1 60 -1
q95 0 133 27q38 26 38 72q0 36 -21.5 52.5t-54.5 16.5q-50 0 -92 -45q-47 -49 -63 -122z" />
    <glyph glyph-name="f" unicode="f" horiz-adv-x="275" 
d="M422 699l-29 -59q-34 23 -74 23q-33 0 -56 -23t-30 -65l-14 -77h138l-35 -59h-114l-90 -453q-25 -128 -77 -194l-63 35q45 62 65 166l87 446h-51l11 59h51l13 67q19 97 76 134q38 25 95 25q60 0 97 -25z" />
    <glyph glyph-name="g" unicode="g" horiz-adv-x="560" 
d="M497 359l-75 -365q-18 -87 -69 -139q-63 -62 -181 -62q-99 0 -183 45l29 63q69 -42 160 -42q78 0 116 32q34 28 48 92l21 91q-34 -45 -76 -66q-40 -20 -99 -20q-61 0 -99 43q-37 43 -37 125q0 80 32 156t84 123q82 75 192 75q103 0 166 -44q-14 -30 -29 -107zM383 175
l53 251q-30 15 -83 15q-80 0 -129 -51q-40 -45 -60 -99q-28 -75 -28 -133q0 -103 81 -103q53 0 100 39q42 35 66 81z" />
    <glyph glyph-name="h" unicode="h" horiz-adv-x="558" 
d="M162 705l83 32q6 -31 6 -63q0 -48 -16 -125l-11 -52q-13 -54 -25 -93q36 46 88.5 76t108.5 30q48 0 79 -29q27 -25 27 -65q0 -20 -8 -59l-76 -357h-78l71 336q0 2 2.5 12t4 20.5t1.5 18.5q0 21 -12 38t-42 17q-38 0 -89.5 -33.5t-88.5 -82.5l-69 -326h-78l117 550
q12 60 12 97q0 30 -7 58z" />
    <glyph glyph-name="i" unicode="i" horiz-adv-x="258" 
d="M277 652q0 -25 -18 -43t-43 -18t-43 17.5t-18 42.5t18 43.5t43 18.5t43 -18t18 -43zM226 509l-108 -509h-78l106 497z" />
    <glyph glyph-name="j" unicode="j" horiz-adv-x="259" 
d="M280 661q0 -25 -18 -43.5t-43 -18.5t-43.5 17.5t-18.5 42.5q0 26 18.5 44.5t43.5 18.5t43 -18t18 -43zM228 510l-106 -497q-16 -74 -42 -118q-41 -67 -119 -93l-28 52q43 15 69 47q27 33 44 116l101 477z" />
    <glyph glyph-name="k" unicode="k" horiz-adv-x="461" 
d="M494 474l-222 -193l169 -265l-77 -31l-181 303l256 231zM162 705l83 32q7 -25 7 -63q0 -46 -12 -103l-122 -571h-78l118 554q11 50 11 96q0 25 -7 55z" />
    <glyph glyph-name="l" unicode="l" horiz-adv-x="253" 
d="M162 705l83 32q7 -32 7 -65q0 -42 -15 -117l-95 -445q-5 -22 -5 -36q0 -12 5 -18t19 -6q8 0 16 2l5 -51q-28 -11 -59 -11q-38 0 -55 19q-13 15 -13 45q0 13 5 38l98 463q11 53 11 93q0 32 -7 57z" />
    <glyph glyph-name="m" unicode="m" horiz-adv-x="798" 
d="M120 479l75 34q13 -29 13 -59q0 -23 -8 -51q34 43 80 72q55 35 104 35q52 0 72 -40q13 -26 13 -66q35 46 85 76t93 30q47 0 74 -32q21 -27 21 -67q0 -23 -8 -55l-76 -356h-78l74 348q6 30 6 48q0 25 -18 37q-12 7 -31 7q-25 0 -57 -21q-42 -27 -96 -92l-70 -327h-78
l72 340q10 44 10 62t-10 28q-9 10 -27 10q-28 0 -62 -19q-51 -28 -106 -96l-69 -325h-78l76 357q11 51 11 75q0 22 -7 47z" />
    <glyph glyph-name="n" unicode="n" horiz-adv-x="547" 
d="M120 479l73 34q12 -27 12 -60q0 -25 -7 -50q33 47 86 77t107 30q47 0 73 -26q27 -27 27 -74q0 -11 -3 -32l-81 -378h-78l72 337q8 36 8 54q0 26 -13 38t-35 12q-31 0 -68 -21q-61 -36 -106 -95l-69 -325h-78l76 356q11 48 11 77q0 24 -7 46z" />
    <glyph glyph-name="o" unicode="o" horiz-adv-x="535" 
d="M490 328q0 -83 -29 -156t-78 -118q-71 -66 -173 -66q-80 0 -123 51q-41 47 -41 133q0 75 25.5 143.5t69.5 115.5q73 79 181 79q81 0 124 -47q44 -48 44 -135zM404 330q0 61 -26 88q-26 28 -70 28q-74 0 -120 -64q-56 -78 -56 -217q0 -59 24 -86t70 -27q78 0 126 73
q52 78 52 205z" />
    <glyph glyph-name="p" unicode="p" horiz-adv-x="554" 
d="M119 479l73 34q13 -29 13 -55t-5 -51q35 47 85 76q50 27 96 27q59 0 91 -38q37 -43 37 -124q0 -63 -21.5 -139t-66.5 -131q-74 -90 -190 -90q-59 0 -111 25l-44 -206l-81 -15l121 565q10 46 10 79q0 22 -7 43zM186 328l-52 -245q39 -31 97 -31q81 0 129 67
q27 37 45.5 104.5t18.5 119.5q0 56 -22 79q-17 18 -47 18q-47 0 -95 -35q-44 -31 -74 -77z" />
    <glyph glyph-name="q" unicode="q" horiz-adv-x="556" 
d="M377 -190l-78 -16l61 280q-37 -48 -77.5 -67t-97.5 -19q-63 0 -97.5 44t-34.5 124t31.5 157t80.5 122q83 75 192 75q55 0 91.5 -10t74.5 -34q-15 -39 -29 -107zM380 175l53 254q-31 15 -83 15q-72 0 -129 -54q-34 -32 -59 -103.5t-25 -128.5q0 -54 19 -78.5t58 -24.5
q95 0 166 120z" />
    <glyph glyph-name="r" unicode="r" horiz-adv-x="355" 
d="M395 506l-34 -85q-10 4 -26 4q-36 0 -68 -22q-45 -31 -83 -91l-66 -312h-78l72 338q13 61 13 97q0 23 -7 44l75 34q12 -30 12 -57q0 -26 -8 -62q34 54 85 89q41 28 78 28q18 0 35 -5z" />
    <glyph glyph-name="s" unicode="s" horiz-adv-x="449" 
d="M419 473l-31 -59q-60 35 -115 35q-54 0 -82 -20q-29 -18 -29 -57q0 -16 9 -32q12 -19 44 -32l62 -26q58 -23 80 -54q23 -31 23 -72q0 -79 -67 -127q-58 -41 -146 -41q-95 0 -169 47l31 59q68 -46 146 -46q63 0 93 27q25 22 25 59q0 31 -15 48.5t-46 30.5l-58 25
q-44 20 -64 39q-32 32 -32 79q0 77 66 119q54 35 134 35q84 0 141 -37z" />
    <glyph glyph-name="t" unicode="t" horiz-adv-x="298" 
d="M350 498l-31 -59h-108l-62 -292q-7 -33 -7 -56q0 -21 8 -32q12 -15 42 -15q31 0 52 10v-50q-46 -20 -89 -20q-48 0 -71 21q-22 21 -22 66q0 24 8 67l63 301h-65l11 59h66q24 92 35 126l87 18q-29 -81 -41 -144h124z" />
    <glyph glyph-name="u" unicode="u" horiz-adv-x="546" 
d="M432 494l82 15l-74 -351q-10 -45 -10 -67q0 -28 23 -57l-61 -50q-23 21 -30 43q-11 33 -7 67q-30 -37 -66 -63q-61 -43 -124 -43q-52 0 -77 23q-28 25 -28 77q0 35 8 73l71 333l81 15l-70 -330q-9 -43 -9 -70q0 -32 14 -44q11 -10 32 -10q51 0 100 38q47 34 79 89z" />
    <glyph glyph-name="v" unicode="v" 
d="M64 494l79 17l43 -343q6 -48 6 -85h2q16 38 42 84l184 331h87l-293 -503h-77z" />
    <glyph glyph-name="w" unicode="w" horiz-adv-x="674" 
d="M349 498h84l20 -393l1 -11h2q4 11 7.5 18.5t5 10t3 5.5t2.5 6l162 364h85l-248 -502h-74l-30 405h-2q-8 -24 -21 -51l-176 -354h-73l-32 498l79 17l10 -329v-83h3q15 35 33 72z" />
    <glyph glyph-name="x" unicode="x" horiz-adv-x="401" 
d="M448 498l-196 -223l132 -275h-92l-90 215l-179 -215h-95l245 276l-107 222h94l64 -166l131 166h93z" />
    <glyph glyph-name="y" unicode="y" 
d="M497 498l-258 -475q-33 -60 -45.5 -82t-36 -54.5t-44.5 -48.5q-41 -31 -97 -43l-18 53q48 9 88 46q35 32 64 106l-32 -4q2 74 -12 179l-41 317l82 17l34 -319q3 -26 3 -124q25 43 56 105l167 327h90z" />
    <glyph glyph-name="z" unicode="z" horiz-adv-x="402" 
d="M414 436l-348 -376h276l-36 -60h-337v60l348 376h-234v62h331v-62z" />
    <glyph glyph-name="braceleft" unicode="{" horiz-adv-x="321" 
d="M407 732l-13 -60h-54q-50 0 -66 -79l-37 -176q-9 -41 -33 -71.5t-43.5 -41.5t-36.5 -15l-1 -2q22 -3 43 -24t21 -65q0 -15 -5 -40l-37 -175q-5 -22 -5 -37q0 -42 37 -42h54l-13 -60h-70q-34 0 -58 24.5t-24 67.5q0 9 4 33l37 175q4 24 4 32q0 38 -19 60t-47 22l13 60
q33 0 66 31.5t44 81.5l37 176q12 57 52.5 91t79.5 34h70z" />
    <glyph glyph-name="bar" unicode="|" horiz-adv-x="246" 
d="M267 756l-165 -774h-66l165 774h66z" />
    <glyph glyph-name="braceright" unicode="}" horiz-adv-x="321" 
d="M299 318l-13 -60q-34 0 -66.5 -31.5t-43.5 -82.5l-37 -175q-12 -57 -51.5 -91t-80.5 -34h-70l13 60h54q50 0 66 79l37 175q14 64 49.5 94.5t63.5 34.5l1 2q-22 6 -42.5 28.5t-20.5 64.5q0 18 4 35l37 176q5 22 5 38q0 41 -37 41h-54l13 60h70q32 0 56.5 -25t24.5 -68
q0 -15 -3 -32l-37 -176q-4 -22 -4 -31q0 -37 19.5 -59.5t46.5 -22.5z" />
    <glyph glyph-name="asciitilde" unicode="~" horiz-adv-x="599" 
d="M516 372l23 -48q-28 -29 -43 -43.5t-44 -29.5t-58 -15q-35 0 -95 30q-6 3 -24.5 12.5t-27 13.5t-24.5 8t-31 4q-53 0 -99 -70l-23 48q26 28 42 43t44.5 30t57.5 15q37 0 95 -30q6 -3 24.5 -12.5t27 -13.5t24.5 -8t31 -4q52 0 100 70z" />
    <glyph glyph-name="sterling" unicode="&#xa3;" horiz-adv-x="541" 
d="M623 658l-61 -57q-39 47 -104 47q-70 0 -108 -44.5t-57 -129.5l-17 -78h162l-14 -66h-162l-53 -252h246l-17 -78h-438l17 78h108l53 252h-96l14 66h96l17 80q26 124 97.5 184t168.5 60q99 0 148 -62z" />
    <glyph glyph-name="currency" unicode="&#xa4;" horiz-adv-x="520" 
d="M30 108l70 71q-48 60 -48 135t48 135l-70 71l32 32l71 -70q60 48 135 48t135 -48l71 70l32 -32l-70 -71q48 -60 48 -135t-48 -135l71 -71l-33 -32l-71 70q-62 -48 -136 -48q-72 0 -134 48l-71 -70zM148 194q50 -50 120 -50t120 50t50 120t-50 120t-120 50t-120 -50
t-50 -120t50 -120z" />
    <glyph glyph-name="section" unicode="&#xa7;" horiz-adv-x="517" 
d="M534 632l-77 -38q-16 61 -101 61q-51 0 -87.5 -28.5t-36.5 -70.5t42 -66l79 -45q57 -33 86.5 -63.5t29.5 -76.5q0 -50 -32 -91t-83 -67q48 -36 48 -93q0 -80 -63.5 -139t-179.5 -59q-68 0 -114 31t-57 92l75 33q10 -84 117 -84q63 0 97 30t34 77q0 9 -2.5 17.5t-8 16
t-10.5 13t-14.5 12t-14 9.5t-16 10t-14.5 8l-105 62q-54 32 -54 98q0 107 134 167q-57 37 -57 92q0 81 66 134t154 53q61 0 107 -24t58 -71zM218 226l80 -45q36 14 64 42.5t28 61.5q0 49 -79 93l-52 29q-107 -34 -107 -105q0 -14 5 -25t16 -21t19.5 -15.5t25.5 -14.5z" />
    <glyph glyph-name="dieresis" unicode="&#xa8;" horiz-adv-x="412" 
d="M443 621q0 -22 -15.5 -37.5t-35.5 -15.5q-21 0 -37 16t-16 37t15.5 36t36.5 15t36.5 -15.5t15.5 -35.5zM236 621q0 -19 -13.5 -36t-37.5 -17q-21 0 -36.5 15.5t-15.5 37.5q0 20 15.5 35.5t35.5 15.5q21 0 36.5 -15.5t15.5 -35.5z" />
    <glyph glyph-name="copyright" unicode="&#xa9;" horiz-adv-x="880" 
d="M838 354q0 -157 -109.5 -264.5t-262.5 -107.5q-154 0 -263 107.5t-109 264.5t109 264.5t263 107.5q153 0 262.5 -107.5t109.5 -264.5zM772 354q0 134 -89 226t-217 92q-129 0 -217.5 -91.5t-88.5 -226.5t88.5 -226.5t217.5 -91.5q128 0 217 92t89 226zM564 210l28 -37
q-49 -35 -111 -35q-80 0 -129 62q-45 59 -45 148q0 69 27 123q23 45 62 70t87 25q62 0 101 -33l-28 -38q-32 24 -73 24q-63 0 -92 -59q-20 -40 -20 -111q0 -61 15 -97q29 -67 102 -67q44 0 76 25z" />
    <glyph glyph-name="guillemotleft" unicode="&#xab;" horiz-adv-x="511" 
d="M501 414l-173 -181l88 -174l-60 -33l-108 218l199 210zM315 414l-173 -181l88 -174l-60 -33l-108 218l199 210z" />
    <glyph glyph-name="logicalnot" unicode="&#xac;" horiz-adv-x="489" 
d="M450 288l-45 -211h-71l30 140h-318l15 71h389z" />
    <glyph glyph-name="registered" unicode="&#xae;" horiz-adv-x="880" 
d="M838 354q0 -157 -109.5 -264.5t-262.5 -107.5q-154 0 -263 107.5t-109 264.5t109 264.5t263 107.5q153 0 262.5 -107.5t109.5 -264.5zM772 354q0 134 -89 226t-217 92q-129 0 -217.5 -91.5t-88.5 -226.5t88.5 -226.5t217.5 -91.5q128 0 217 92t89 226zM622 150h-70
q-9 17 -34 61q-43 71 -72 103q-16 18 -37 19v-183h-58v413h116q66 0 98 -30q37 -33 37 -85q0 -50 -30.5 -82.5t-80.5 -31.5q21 -17 36 -38q11 -14 35 -51q36 -56 60 -95zM409 372h40q50 0 72 19q20 20 20 56q0 45 -38 61q-19 8 -51 8h-43v-144z" />
    <glyph glyph-name="degree" unicode="&#xb0;" horiz-adv-x="380" 
d="M399 530q0 -61 -43 -104.5t-104 -43.5q-60 0 -103.5 43.5t-43.5 104.5q0 60 44 104t104 44t103 -43.5t43 -104.5zM339 530q0 35 -25 61.5t-59 26.5q-37 0 -64 -26.5t-27 -61.5t27 -61.5t61 -26.5q35 0 61 26.5t26 61.5z" />
    <glyph glyph-name="plusminus" unicode="&#xb1;" horiz-adv-x="468" 
d="M447 365l-16 -71h-150l-29 -140h-71l29 140h-150l16 71h150l28 133h71l-28 -133h150zM390 107l-15 -71h-367l15 71h367z" />
    <glyph glyph-name="acute" unicode="&#xb4;" horiz-adv-x="340" 
d="M382 665l-225 -100l-26 47l208 130z" />
    <glyph glyph-name="mu" unicode="&#xb5;" horiz-adv-x="555" 
d="M523 506l-75 -353q-11 -53 -11 -73q0 -26 19 -48l-61 -53q-37 36 -37 80q-73 -76 -174 -76q-45 0 -63 19q-1 -6 -6 -28.5t-11 -50t-11.5 -54.5t-9.5 -45l-4 -17l-81 -15l148 702l83 16l-77 -359q-6 -29 -6 -45q0 -26 18 -39q22 -17 58 -17q37 0 77.5 25t68.5 65l75 353z
" />
    <glyph glyph-name="mu" unicode="&#x3bc;" horiz-adv-x="555" 
d="M523 506l-75 -353q-11 -53 -11 -73q0 -26 19 -48l-61 -53q-37 36 -37 80q-73 -76 -174 -76q-45 0 -63 19q-1 -6 -6 -28.5t-11 -50t-11.5 -54.5t-9.5 -45l-4 -17l-81 -15l148 702l83 16l-77 -359q-6 -29 -6 -45q0 -26 18 -39q22 -17 58 -17q37 0 77.5 25t68.5 65l75 353z
" />
    <glyph glyph-name="paragraph" unicode="&#xb6;" horiz-adv-x="593" 
d="M604 708l-178 -834h-72l164 768h-118l-164 -768h-72l94 442q-79 0 -126 41.5t-47 107.5q0 108 79 175.5t197 67.5h243z" />
    <glyph glyph-name="guillemotright" unicode="&#xbb;" horiz-adv-x="512" 
d="M454 236l-199 -210l-54 40l173 181l-88 174l60 33zM268 236l-199 -210l-54 40l173 181l-88 174l60 33z" />
    <glyph glyph-name="divide" unicode="&#xf7;" horiz-adv-x="600" 
d="M415 472q0 -28 -19.5 -48t-47.5 -20t-47.5 19t-19.5 47q0 29 20 49t48 20q27 0 46.5 -19.5t19.5 -47.5zM564 300l-14 -65h-500l14 65h500zM335 56q0 -28 -19.5 -48t-48.5 -20q-28 0 -47 19.5t-19 47.5q0 29 19.5 48.5t48.5 19.5q27 0 46.5 -19.5t19.5 -47.5z" />
    <glyph glyph-name="dotlessi" unicode="&#x131;" horiz-adv-x="263" 
d="M231 509l-108 -509h-83l106 496z" />
    <glyph glyph-name="florin" unicode="&#x192;" horiz-adv-x="280" 
d="M458 695l-38 -55q-30 23 -69 23q-66 0 -86 -88l-17 -77h134l-37 -59h-110l-88 -384q-25 -109 -42 -142q-28 -55 -106 -100q-10 -5 -21 -11l-28 56q18 10 32.5 20.5t24.5 18.5t18 21.5t12.5 20t10 24t7 24t6.5 29.5t7 32l89 391h-46l9 59h50l18 78q17 75 63.5 111.5
t107.5 36.5t99 -29z" />
    <glyph glyph-name="dotaccent" unicode="&#x2d9;" horiz-adv-x="164" 
d="M232 652q0 -25 -18 -43t-43 -18t-43 17.5t-18 42.5t18 43.5t43 18.5t43 -18t18 -43z" />
    <glyph glyph-name="Delta" unicode="&#x394;" horiz-adv-x="614" 
d="M544 0h-534l346 588h88zM456 65l-74 446l-258 -446h332z" />
    <glyph glyph-name="Delta" unicode="&#x2206;" horiz-adv-x="614" 
d="M544 0h-534l346 588h88zM456 65l-74 446l-258 -446h332z" />
    <glyph glyph-name="afii10023" unicode="&#x401;" horiz-adv-x="501" 
d="M560 686l-26 -68h-281l-47 -225h235l-16 -71h-235l-53 -251h302l-15 -71h-384l146 686h374zM530 782q0 -22 -15.5 -37.5t-35.5 -15.5q-21 0 -37 16t-16 37q0 20 15 35.5t37 15.5q21 0 36.5 -15.5t15.5 -35.5zM323 782q0 -19 -13.5 -36t-37.5 -17q-21 0 -36.5 15.5
t-15.5 37.5q0 20 15.5 35.5t35.5 15.5q21 0 36.5 -15.5t15.5 -35.5z" />
    <glyph glyph-name="afii10051" unicode="&#x402;" horiz-adv-x="643" 
d="M551 686l-19 -69h-195l-47 -220q92 36 149 36q71 0 110 -38t39 -108q0 -62 -25.5 -136t-75.5 -116q-56 -47 -131 -47q-48 0 -90 25l32 63l12 -8q26 -16 58 -16q49 0 79 38q23 28 39.5 90.5t16.5 106.5q0 81 -94 81q-64 0 -132 -33l-71 -335h-82l131 617h-175l15 69h456z
" />
    <glyph glyph-name="afii10052" unicode="&#x403;" 
d="M546 686l-21 -68h-272l-131 -618h-82l146 686h360zM456 825l-225 -100l-26 47l208 130z" />
    <glyph glyph-name="afii10053" unicode="&#x404;" horiz-adv-x="571" 
d="M446 389l-14 -64h-257l-3 -16q-14 -79 -14 -102q0 -62 29 -101q42 -54 129 -54q83 0 170 59l22 -62q-31 -20 -70 -35q-69 -26 -132 -26q-117 0 -180 74q-54 64 -54 178q0 119 46 222t122 165q88 71 207 71q108 0 174 -62l-44 -54q-61 52 -144 52q-91 0 -149 -54
q-65 -61 -91 -173l-4 -18h257z" />
    <glyph glyph-name="afii10054" unicode="&#x405;" horiz-adv-x="547" 
d="M554 639l-42 -60q-62 52 -150 52q-56 0 -98 -23q-57 -33 -57 -103q0 -27 14 -48q17 -26 73 -50l72 -31q60 -26 86 -69t26 -98q0 -100 -77 -160q-79 -61 -204 -61q-111 0 -187 54l39 64q73 -51 163 -51q83 0 131 40q47 38 47 103q0 42 -20 66.5t-72 46.5l-62 26
q-116 49 -116 157q0 113 103 170q61 34 148 34q104 0 183 -59z" />
    <glyph glyph-name="afii10055" unicode="&#x406;" horiz-adv-x="262" 
d="M268 686l-146 -686h-82l146 686h82z" />
    <glyph glyph-name="afii10056" unicode="&#x407;" horiz-adv-x="282" 
d="M278 686l-146 -686h-82l146 686h82zM406 782q0 -22 -15 -37.5t-36 -15.5q-22 0 -37.5 15.5t-15.5 37.5q0 21 15 36t37 15q21 0 36.5 -15t15.5 -36zM199 782q0 -22 -14.5 -37.5t-36.5 -15.5t-37 15.5t-15 37.5q0 21 15 36t36 15q22 0 37 -15t15 -36z" />
    <glyph glyph-name="afii10057" unicode="&#x408;" horiz-adv-x="262" 
d="M268 686l-121 -569q-24 -113 -58 -157q-47 -63 -135 -88l-29 51q60 23 96 67q24 30 44 125l121 571h82z" />
    <glyph glyph-name="afii10058" unicode="&#x409;" horiz-adv-x="865" 
d="M591 686l-59 -278h101q116 0 165 -40q46 -36 46 -163q0 -89 -103 -159q-67 -46 -185 -46h-193l132 622h-171l-44 -165q-1 -5 -11.5 -44t-15 -56t-16.5 -58t-20 -64t-22 -58t-25.5 -57t-27 -44.5t-30.5 -35.5q-38 -34 -110 -43l-34 -4l-3 57l21 6q17 5 43 16
q33 16 56.5 48t58 127.5t81.5 274.5l43 164h323zM459 65h123q67 0 108 29q32 23 49.5 53.5t17.5 55.5q0 94 -33 119q-29 21 -100 21h-106z" />
    <glyph glyph-name="afii10059" unicode="&#x40a;" horiz-adv-x="899" 
d="M625 686l-60 -283h101q116 0 165 -40q47 -37 47 -158q0 -87 -103 -159q-67 -46 -185 -46h-193l72 338h-275l-72 -338h-82l146 686h82l-60 -283h275l60 283h82zM493 65h123q67 0 108 29q67 47 67 109q0 90 -34 114q-29 21 -100 21h-106z" />
    <glyph glyph-name="afii10060" unicode="&#x40b;" horiz-adv-x="646" 
d="M551 686l-19 -69h-195l-47 -221q80 37 153 37q83 0 119 -37q42 -42 25 -126l-57 -270h-82l57 270q3 12 2.5 24t-5 31t-26 31t-57.5 12q-57 0 -142 -33l-71 -335h-82l131 617h-175l15 69h456z" />
    <glyph glyph-name="afii10061" unicode="&#x40c;" horiz-adv-x="594" 
d="M634 694l3 -57l-34 -8q-24 -6 -35 -14q-18 -12 -35 -45l-48 -98q-22 -46 -44 -69q-27 -27 -61 -38q28 -15 40 -34q17 -24 19 -71l9 -138v-5.5t0.5 -6t0.5 -5t0.5 -5.5t1.5 -5.5t2 -5t2.5 -4.5t3.5 -5t4.5 -4t5.5 -4q13 -9 37 -16l19 -6l-27 -57l-53 6q-56 6 -74 37
q-4 7 -7 14t-4 18t-1 15v20.5v19.5v111q0 53 -16 73q-20 24 -63 24h-88l-70 -331h-82l146 686h82l-61 -288h93q41 0 70 22q25 19 47 70l41 99q23 53 47 72q28 23 80 28zM527 825l-225 -100l-26 47l208 130z" />
    <glyph glyph-name="afii10062" unicode="&#x40e;" horiz-adv-x="495" 
d="M187 686l64 -345q17 -95 17 -99q5 9 24 45q7 14 31 58l186 341h80l-283 -507q-28 -50 -52 -91q-25 -43 -55 -65q-40 -29 -108 -38l-32 -4l-3 58l21 5q27 7 47 16q30 13 50 36q21 23 44 66l21 38l-42 -9l-95 495h85zM457 862l43 -23q-18 -50 -64 -81q-43 -29 -93 -29
q-64 0 -97 33q-29 29 -32 77l53 23q3 -32 24 -50q22 -17 57 -17q33 0 63 17q27 16 46 50z" />
    <glyph glyph-name="afii10145" unicode="&#x40f;" horiz-adv-x="608" 
d="M614 686l-146 -686h-173l-39 -182h-82l39 182h-173l146 686h82l-132 -622h264l132 622h82z" />
    <glyph glyph-name="afii10017" unicode="&#x410;" horiz-adv-x="563" 
d="M325 686h107l81 -686h-89l-20 211h-256l-111 -211h-87zM397 278l-35 338q-24 -46 -35 -69q-1 -2 -3.5 -7.5t-4.5 -8.5l-135 -253h213z" />
    <glyph glyph-name="afii10018" unicode="&#x411;" horiz-adv-x="596" 
d="M253 618l-47 -222h90q68 0 112.5 -11.5t77.5 -44.5q48 -48 48 -118q0 -46 -21 -88t-54 -70t-75 -43t-71 -18t-72 -3h-201l146 686h380l-28 -68h-285zM136 67h132q80 0 124 36q52 42 52 113q0 54 -32 84q-32 28 -102 28h-118z" />
    <glyph glyph-name="afii10019" unicode="&#x412;" horiz-adv-x="585" 
d="M186 686h177q137 0 184 -61q26 -35 26 -85q0 -88 -65 -136q-37 -28 -91 -41q42 -8 70 -30q47 -39 47 -111q0 -88 -75 -156q-41 -37 -90.5 -51.5t-127.5 -14.5h-201zM202 391h124q67 0 109 30q46 35 46 98q0 59 -42 82q-28 16 -82 16h-107zM133 67h135q79 0 124 36
q52 44 52 113q0 48 -22 72q-31 35 -113 35h-121z" />
    <glyph glyph-name="afii10020" unicode="&#x413;" 
d="M546 686l-21 -68h-272l-131 -618h-82l146 686h360z" />
    <glyph glyph-name="afii10021" unicode="&#x414;" horiz-adv-x="621" 
d="M611 686l-132 -622h70l-53 -246h-80l39 182h-406l-39 -182h-80l53 246h43q83 119 129 222q57 123 103 296l27 104h326zM341 622l-27 -93q-50 -175 -100 -276q-43 -85 -111 -189h294l118 558h-174z" />
    <glyph glyph-name="afii10022" unicode="&#x415;" horiz-adv-x="501" 
d="M560 686l-26 -68h-281l-47 -225h235l-16 -71h-235l-53 -251h302l-15 -71h-384l146 686h374z" />
    <glyph glyph-name="afii10024" unicode="&#x416;" horiz-adv-x="868" 
d="M505 398h73q41 0 70 22q25 19 47 70l41 99q23 53 47 72q28 23 80 28l49 5l3 -57l-34 -8q-24 -6 -35 -14q-18 -12 -35 -45l-48 -98q-22 -46 -44 -69q-27 -27 -61 -38q28 -15 40 -34q17 -24 19 -71l9 -138v-5.5t0.5 -6t0.5 -5t0.5 -5.5t1.5 -5.5t2 -5t2.5 -4.5t3.5 -5
t4.5 -4t5.5 -4q13 -9 37 -16l19 -6l-27 -57l-53 6q-56 6 -74 37q-4 7 -7 14t-4 18t-1 15v20.5v19.5v111q0 53 -16 73q-20 24 -63 24h-68l-70 -331h-82l70 331h-66q-42 0 -73 -24q-26 -20 -48 -73l-46 -111q-28 -67 -48 -87q-30 -30 -90 -37l-54 -6l-3 57l21 6q18 5 40 16
q15 7 23 16t20 34l65 138q19 41 53 71q28 24 56 34q-32 16 -47 41q-14 24 -16 66l-4 98q-1 31 -15 45q-4 4 -29 14l-32 12l27 53l40 -5q49 -5 68 -28q15 -17 17 -72l3 -99q0 -50 17 -70q18 -22 62 -22h74l61 288h82z" />
    <glyph glyph-name="afii10025" unicode="&#x417;" horiz-adv-x="524" 
d="M269 323h-94l13 64h53q69 0 112 29q67 44 67 122q0 39 -18 63q-24 33 -82 33q-95 0 -173 -57l-25 55q47 30 89 45q57 21 120 21q80 0 128 -38q50 -40 50 -113q0 -81 -66 -138q-42 -36 -95 -49q59 -8 91 -43q30 -34 30 -84q0 -53 -26.5 -105.5t-80.5 -88.5
q-76 -51 -181 -51q-124 0 -196 62l48 60q67 -58 157 -58q86 0 137 50q53 51 53 126q0 44 -30 70q-28 25 -81 25z" />
    <glyph glyph-name="afii10026" unicode="&#x418;" horiz-adv-x="659" 
d="M519 0h-82l101 476q17 77 33 131q-32 -59 -42 -72l-402 -535h-85l146 686h82l-103 -485q-9 -40 -31 -109q33 60 60 95l371 499h98z" />
    <glyph glyph-name="afii10027" unicode="&#x419;" horiz-adv-x="659" 
d="M541 862l43 -23q-18 -50 -64 -81q-43 -29 -93 -29q-64 0 -97 33q-29 29 -32 77l53 23q3 -32 24 -50q22 -17 57 -17q33 0 63 17q27 16 46 50zM519 0h-82l101 476q17 77 33 131q-32 -59 -42 -72l-402 -535h-85l146 686h82l-103 -485q-9 -40 -31 -109q33 60 60 95l371 499
h98z" />
    <glyph glyph-name="afii10028" unicode="&#x41a;" horiz-adv-x="594" 
d="M634 694l3 -57l-34 -8q-24 -6 -35 -14q-18 -12 -35 -45l-48 -98q-22 -46 -44 -69q-27 -27 -61 -38q28 -15 40 -34q17 -24 19 -71l9 -138v-5.5t0.5 -6t0.5 -5t0.5 -5.5t1.5 -5.5t2 -5t2.5 -4.5t3.5 -5t4.5 -4t5.5 -4q13 -9 37 -16l19 -6l-27 -57l-53 6q-56 6 -74 37
q-4 7 -7 14t-4 18t-1 15v20.5v19.5v111q0 53 -16 73q-20 24 -63 24h-88l-70 -331h-82l146 686h82l-61 -288h93q41 0 70 22q25 19 47 70l41 99q23 53 47 72q28 23 80 28z" />
    <glyph glyph-name="afii10029" unicode="&#x41b;" horiz-adv-x="590" 
d="M324 622l-44 -165q-1 -5 -11.5 -44t-15 -56t-16.5 -58t-20 -64t-22 -58t-25.5 -57t-27 -44.5t-30.5 -35.5q-38 -34 -110 -43l-34 -4l-3 57l21 6q17 5 43 16q33 16 56.5 48t58 127.5t81.5 274.5l43 164h328l-146 -686h-82l132 622h-176z" />
    <glyph glyph-name="afii10030" unicode="&#x41c;" horiz-adv-x="806" 
d="M226 686h120l30 -448q4 -56 1 -120q27 68 49 112l226 456h121l-87 -686h-82l67 503q7 48 20 117q-19 -44 -50 -108l-256 -512h-70l-34 520q-3 43 -4 101q-9 -39 -36 -133l-142 -488h-79z" />
    <glyph glyph-name="afii10031" unicode="&#x41d;" horiz-adv-x="631" 
d="M637 686l-146 -686h-82l71 332h-287l-71 -332h-82l146 686h82l-61 -287h287l61 287h82z" />
    <glyph glyph-name="afii10032" unicode="&#x41e;" horiz-adv-x="676" 
d="M649 466q0 -121 -41.5 -236t-123.5 -180q-79 -62 -184 -62q-112 0 -172 65q-56 61 -56 177q0 107 36 210t99 168q85 90 223 90q102 0 162 -62q57 -59 57 -170zM559 476q0 18 -1.5 34t-9.5 40.5t-22 41.5t-41.5 29.5t-64.5 12.5q-102 0 -164 -80q-43 -56 -68.5 -149.5
t-25.5 -188.5q0 -164 142 -164q81 0 140 59q53 53 84 164t31 201z" />
    <glyph glyph-name="afii10033" unicode="&#x41f;" horiz-adv-x="621" 
d="M627 686l-146 -686h-82l132 619h-277l-132 -619h-82l146 686h441z" />
    <glyph glyph-name="afii10034" unicode="&#x420;" horiz-adv-x="549" 
d="M186 686h180q54 0 93.5 -9.5t72.5 -41.5q43 -42 43 -113q0 -125 -96 -199q-63 -50 -179 -50h-120l-58 -273h-82zM194 340h115q79 0 124 44q53 53 53 124q0 50 -26 76q-32 33 -120 33h-87z" />
    <glyph glyph-name="afii10035" unicode="&#x421;" horiz-adv-x="555" 
d="M602 641l-46 -52q-50 43 -121 43q-120 0 -198 -119q-37 -57 -59 -134.5t-22 -145.5q0 -87 44 -132q43 -44 119 -44q77 0 144 45l32 -58q-94 -56 -204 -56q-102 0 -162 68q-58 66 -58 181q0 93 32 184t92 159q105 118 249 118q94 0 158 -57z" />
    <glyph glyph-name="afii10036" unicode="&#x422;" horiz-adv-x="457" 
d="M557 686l-20 -69h-186l-131 -617h-82l131 617h-184l15 69h457z" />
    <glyph glyph-name="afii10037" unicode="&#x423;" horiz-adv-x="495" 
d="M187 686l64 -345q17 -95 17 -99q5 9 24 45q7 14 31 58l186 341h80l-283 -507q-28 -50 -52 -91q-25 -43 -55 -65q-40 -29 -108 -38l-32 -4l-3 58l21 5q27 7 47 16q30 13 50 36q21 23 44 66l21 38l-42 -9l-95 495h85z" />
    <glyph glyph-name="afii10038" unicode="&#x424;" horiz-adv-x="710" 
d="M340 0h-82l24 111h-16q-101 0 -151 52q-43 44 -43 127q0 86 36.5 164.5t92.5 118.5q71 52 174 52h16l21 101h82l-21 -101h16q97 0 148 -48q46 -44 46 -129q0 -77 -32.5 -156.5t-91.5 -124.5q-74 -56 -179 -56h-16zM459 568l-85 -400h16q75 0 120 35t68.5 110.5
t23.5 141.5q0 53 -23 78q-31 35 -104 35h-16zM381 568h-16q-74 0 -120 -37q-45 -35 -69 -108t-24 -138q0 -52 24 -80q32 -37 104 -37h16z" />
    <glyph glyph-name="afii10039" unicode="&#x425;" horiz-adv-x="481" 
d="M567 686l-249 -328l144 -358h-94l-111 295l-218 -295h-100l288 368l-121 318h91l89 -249l181 249h100z" />
    <glyph glyph-name="afii10040" unicode="&#x426;" horiz-adv-x="635" 
d="M186 686h82l-132 -622h272l132 622h82l-132 -622h70l-53 -246h-82l39 182h-424z" />
    <glyph glyph-name="afii10041" unicode="&#x427;" horiz-adv-x="574" 
d="M434 0h-82l65 308q-79 -33 -163 -33q-94 0 -132 48q-24 29 -24 75q0 16 5 43l52 245h82l-50 -235q-5 -23 -5 -37q0 -32 19 -51q24 -24 81 -24q66 0 148 30l68 317h82z" />
    <glyph glyph-name="afii10042" unicode="&#x428;" horiz-adv-x="838" 
d="M186 686h80l-133 -624h209l133 624h80l-133 -624h209l133 624h80l-146 -686h-658z" />
    <glyph glyph-name="afii10043" unicode="&#x429;" horiz-adv-x="861" 
d="M186 686h80l-133 -624h209l133 624h80l-133 -624h209l133 624h80l-133 -624h70l-52 -244h-80l39 182h-648z" />
    <glyph glyph-name="afii10044" unicode="&#x42a;" horiz-adv-x="631" 
d="M345 686l-59 -278h99q101 0 158 -42q58 -43 58 -119q0 -131 -107 -201q-72 -46 -186 -46h-191l131 617h-178l15 69h260zM213 65h121q66 0 108 29q71 49 71 141q0 59 -40 87q-30 22 -97 22h-104z" />
    <glyph glyph-name="afii10045" unicode="&#x42b;" horiz-adv-x="801" 
d="M268 686l-59 -278h99q101 0 158 -42q58 -43 58 -119q0 -131 -107 -201q-72 -46 -186 -46h-191l146 686h82zM136 64h121q65 0 108 30q71 49 71 141q0 59 -40 87q-30 22 -97 22h-104zM725 686h82l-146 -686h-82z" />
    <glyph glyph-name="afii10046" unicode="&#x42c;" horiz-adv-x="554" 
d="M268 686l-59 -278h99q101 0 158 -42q58 -43 58 -119q0 -131 -107 -201q-72 -46 -186 -46h-191l146 686h82zM136 64h121q65 0 108 30q71 49 71 141q0 59 -40 87q-30 22 -97 22h-104z" />
    <glyph glyph-name="afii10047" unicode="&#x42d;" horiz-adv-x="574" 
d="M192 388h257l4 19q8 40 8 76q0 61 -25 97q-38 53 -126 53q-86 0 -166 -51l-22 54q93 62 200 62q122 0 181 -82q44 -62 44 -157q0 -110 -39 -213q-43 -117 -128 -184q-94 -74 -219 -74q-52 0 -105 22q-39 17 -66 40l47 60q60 -57 142 -57q91 0 158 58q65 57 86 156l13 58
h-257z" />
    <glyph glyph-name="afii10048" unicode="&#x42e;" horiz-adv-x="895" 
d="M207 399h129q36 124 118 207q91 92 208 92t173 -88q33 -53 33 -154q0 -107 -38.5 -209t-106.5 -169q-90 -90 -212 -90q-105 0 -162 80q-40 56 -40 158q0 49 11 106h-127l-71 -332h-82l146 686h82zM649 634q-96 0 -157 -81q-43 -56 -71 -170t-28 -187q0 -63 28 -99
q35 -45 104 -45q84 0 144 65q48 52 80.5 168.5t32.5 192.5q0 75 -30 113q-34 43 -103 43z" />
    <glyph glyph-name="afii10049" unicode="&#x42f;" horiz-adv-x="606" 
d="M466 0h-82l66 310h-107q-42 0 -73 -24q-28 -22 -49 -73l-37 -90q-26 -65 -48 -87q-28 -30 -90 -37l-49 -6l-7 57l17 6q2 1 16.5 6t26.5 10q13 6 22 15.5t21 33.5l54 112q24 49 50 73q29 27 70 36v2q-51 9 -80 41q-32 35 -32 88q0 48 27.5 94t67.5 74q67 45 204 45h158z
M515 622h-92q-51 0 -92 -17q-49 -21 -70 -59.5t-21 -75.5q0 -44 30 -70q31 -26 106 -26h86z" />
    <glyph glyph-name="afii10065" unicode="&#x430;" horiz-adv-x="521" 
d="M433 26l-62 -48q-39 37 -39 89q0 6 2 20q-23 -44 -72 -73q-47 -26 -97 -26q-56 0 -87 38q-37 46 -37 120q0 67 26 146.5t79 133.5q84 84 200 84q80 0 139 -41q-20 -71 -26 -104l-43 -207q-10 -48 -10 -66q0 -39 27 -66zM344 175l54 258q-23 14 -63 14q-86 0 -142 -72
q-70 -88 -70 -230q0 -46 17 -67q18 -23 49 -23q46 0 90 37q44 39 65 83z" />
    <glyph glyph-name="afii10066" unicode="&#x431;" horiz-adv-x="535" 
d="M519 766l26 -70q-33 -18 -115 -51l-106 -44q-57 -23 -96 -62q-36 -34 -53 -79l-21 -55q29 41 77 67q49 26 109 26q73 0 114 -48q38 -45 38 -125q0 -70 -25 -145.5t-79 -124.5q-72 -67 -173 -67q-84 0 -130 55q-39 46 -39 118q0 80 32 197q27 100 63 164q35 64 81.5 100.5
t111.5 62.5l70 28q85 34 115 53zM310 434q-75 0 -121 -66q-23 -33 -41 -98t-18 -104q0 -48 19 -75q26 -39 80 -39q90 0 136 93q18 36 30.5 88t12.5 94q0 54 -27 81q-26 26 -71 26z" />
    <glyph glyph-name="afii10067" unicode="&#x432;" horiz-adv-x="489" 
d="M24 26l64 300q21 103 96 150q54 34 124 34q66 0 106 -34q37 -32 37 -82q0 -54 -40 -96q-27 -27 -64 -39q76 -26 76 -103q0 -75 -58 -124q-53 -44 -149 -44q-102 0 -176 31zM155 285h106q46 0 75 21q40 29 40 76q0 34 -21.5 51t-56.5 17q-49 0 -82 -26q-36 -28 -48 -82z
M144 227l-35 -162q15 -5 43 -11q31 -6 71 -6q62 0 92 29q31 29 31 78q0 44 -33 62q-18 10 -53 10h-116z" />
    <glyph glyph-name="afii10068" unicode="&#x433;" horiz-adv-x="448" 
d="M127 410l-18 61q87 39 167 39q59 0 96 -24q52 -35 52 -99q0 -52 -40 -87q-8 -7 -18.5 -14t-19 -12t-23.5 -11.5t-22.5 -9.5l-27.5 -11t-27 -11q-86 -34 -113 -58q-28 -25 -28 -59q0 -27 17 -42q20 -20 64 -20q54 0 119 26q7 3 39 17l20 -61l-12 -6q-80 -40 -180 -40
q-72 0 -112 30q-42 31 -42 91q0 57 42 97q29 28 139 70q89 35 115 58q25 22 25 49q0 33 -24 50q-19 13 -52 13q-62 0 -112 -25z" />
    <glyph glyph-name="afii10069" unicode="&#x434;" horiz-adv-x="540" 
d="M193 663l24 61q31 8 68 8q42 0 81 -11q75 -20 107 -77q32 -56 32 -159q0 -57 -11 -133t-27 -129q-33 -109 -90 -166q-69 -69 -173 -69q-75 0 -118 52q-40 47 -40 132q0 73 25.5 141.5t73.5 116.5q70 70 155 70q42 0 81 -14q25 -9 46 -23q2 13 2 32v20q0 67 -22 101
q-21 31 -65 46q-30 10 -76 10q-35 0 -73 -9zM130 166q0 -58 24 -87q23 -27 61 -27q76 0 126 73q61 91 78 272q-60 39 -115 39q-71 0 -118 -62q-56 -75 -56 -208z" />
    <glyph glyph-name="afii10070" unicode="&#x435;" horiz-adv-x="498" 
d="M386 110l33 -48q-70 -74 -188 -74q-88 0 -133 51q-44 48 -44 132q0 66 25.5 139.5t84.5 129.5q74 70 164 70q71 0 109 -38q34 -34 34 -91q0 -60 -46 -104q-58 -56 -213 -56q-24 0 -64 2q-7 -31 -7 -63q0 -53 30 -81q28 -26 75 -26q74 0 127 46zM161 281q21 -1 60 -1
q95 0 133 27q38 26 38 72q0 36 -21.5 52.5t-54.5 16.5q-50 0 -92 -45q-47 -49 -63 -122z" />
    <glyph glyph-name="afii10072" unicode="&#x436;" horiz-adv-x="793" 
d="M71 410l-28 48q42 52 113 52q58 0 93 -39q37 -41 37 -126q0 -30 -4 -50h85l42 199l81 15l-45 -214h88q26 88 86 151q61 64 134 64q49 0 84 -36l-41 -51q-23 27 -57 27q-47 0 -87 -64q-69 -109 -69 -247q0 -48 18 -70q18 -21 45 -21q41 0 76 40l28 -48q-42 -52 -113 -52
q-58 0 -93 39q-37 41 -37 126q0 41 9 82h-84l-50 -235h-78l50 235h-84q-35 -119 -96 -183t-134 -64q-49 0 -84 36l41 51q23 -27 57 -27q47 0 87 64q69 109 69 247q0 48 -18 70q-18 21 -45 21q-41 0 -76 -40z" />
    <glyph glyph-name="afii10073" unicode="&#x437;" horiz-adv-x="415" 
d="M136 293h34q60 0 95 29q31 25 31 62q0 27 -18 45q-21 20 -67 20q-36 0 -75 -13q-36 -14 -53 -24l-20 55q41 20 73 29q45 14 95 14q72 0 111 -34q34 -31 34 -78q0 -53 -40 -92q-30 -28 -68 -39q38 -8 62 -38q21 -27 21 -69q0 -90 -82 -139q-57 -33 -134 -33q-92 0 -163 54
l37 58q53 -50 129 -50q56 0 88 26q39 31 39 87q0 41 -30 58q-22 13 -66 13h-45z" />
    <glyph glyph-name="afii10074" unicode="&#x438;" horiz-adv-x="546" 
d="M432 494l82 15l-74 -351q-10 -45 -10 -67q0 -28 23 -57l-61 -50q-23 21 -30 43q-11 33 -7 67q-30 -37 -66 -63q-61 -43 -124 -43q-52 0 -77 23q-28 25 -28 77q0 35 8 73l71 333l81 15l-70 -330q-9 -43 -9 -70q0 -32 14 -44q11 -10 32 -10q51 0 100 38q47 34 79 89z" />
    <glyph glyph-name="afii10075" unicode="&#x439;" horiz-adv-x="546" 
d="M432 494l82 15l-74 -351q-10 -45 -10 -67q0 -28 23 -57l-61 -50q-23 21 -30 43q-11 33 -7 67q-30 -37 -66 -63q-61 -43 -124 -43q-52 0 -77 23q-28 25 -28 77q0 35 8 73l71 333l81 15l-70 -330q-9 -43 -9 -70q0 -32 14 -44q11 -10 32 -10q51 0 100 38q47 34 79 89z
M459 718l44 -25q-20 -52 -66 -85q-42 -30 -96 -30q-64 0 -99 35q-33 33 -33 80l55 25q3 -35 24 -53q20 -18 59 -18q37 0 65 18q30 20 47 53z" />
    <glyph glyph-name="afii10076" unicode="&#x43a;" horiz-adv-x="498" 
d="M139 495l78 14l-47 -218l-24 -86h3q22 52 51 96q29 45 63 84q45 51 104 84q50 27 108 40l21 -58l-15 -4q-141 -37 -226 -173l22 -2q56 -5 76 -34q14 -19 16 -54l8 -94q2 -24 15 -33q18 -9 27 -11l16 -4l-21 -52l-40 5q-52 7 -66 30q-11 19 -11 64l-1 75q0 35 -15 48
t-59 13q-65 -96 -113 -225h-75z" />
    <glyph glyph-name="afii10077" unicode="&#x43b;" horiz-adv-x="493" 
d="M461 498l-106 -498h-78l92 434h-118l-29 -93q-32 -103 -60 -178q-25 -63 -39 -89q-19 -35 -45 -53q-33 -23 -82 -27l-33 -3l-4 56l20 4q22 5 40 16q15 10 28 26q20 27 33 57q23 53 41 104q33 99 40 124l35 120h265z" />
    <glyph glyph-name="afii10078" unicode="&#x43c;" horiz-adv-x="608" 
d="M149 498h95l24 -291q4 -67 3 -113q28 70 48 110l151 294h95l-62 -498h-76l48 344q1 6 5.5 29t9.5 55h-2q-10 -23 -15 -34q-18 -38 -21 -44l-170 -350h-65l-23 355q-3 41 -3 73h-2q-1 -6 -4 -18.5t-5 -18.5q-1 -5 -3 -13.5t-3 -12.5l-102 -365h-72z" />
    <glyph glyph-name="afii10079" unicode="&#x43d;" horiz-adv-x="541" 
d="M162 233l-50 -233h-78l105 494l81 15l-45 -211h211l42 196l81 15l-108 -509h-78l50 233h-211z" />
    <glyph glyph-name="afii10080" unicode="&#x43e;" horiz-adv-x="535" 
d="M490 328q0 -83 -29 -156t-78 -118q-71 -66 -173 -66q-80 0 -123 51q-41 47 -41 133q0 75 25.5 143.5t69.5 115.5q73 79 181 79q81 0 124 -47q44 -48 44 -135zM404 330q0 61 -26 88q-26 28 -70 28q-74 0 -120 -64q-56 -78 -56 -217q0 -59 24 -86t70 -27q78 0 126 73
q52 78 52 205z" />
    <glyph glyph-name="afii10081" unicode="&#x43f;" horiz-adv-x="547" 
d="M120 479l73 34q12 -27 12 -60q0 -25 -7 -50q33 47 86 77t107 30q47 0 73 -26q27 -27 27 -74q0 -11 -3 -32l-81 -378h-78l72 337q8 36 8 54q0 26 -13 38t-35 12q-31 0 -68 -21q-61 -36 -106 -95l-69 -325h-78l76 356q11 48 11 77q0 24 -7 46z" />
    <glyph glyph-name="afii10082" unicode="&#x440;" horiz-adv-x="554" 
d="M119 479l73 34q13 -29 13 -55t-5 -51q35 47 85 76q50 27 96 27q59 0 91 -38q37 -43 37 -124q0 -63 -21.5 -139t-66.5 -131q-74 -90 -190 -90q-59 0 -111 25l-44 -206l-81 -15l121 565q10 46 10 79q0 22 -7 43zM186 328l-52 -245q39 -31 97 -31q81 0 129 67
q27 37 45.5 104.5t18.5 119.5q0 56 -22 79q-17 18 -47 18q-47 0 -95 -35q-44 -31 -74 -77z" />
    <glyph glyph-name="afii10083" unicode="&#x441;" horiz-adv-x="440" 
d="M450 468l-37 -61q-43 35 -101 35q-63 0 -106 -56q-26 -34 -47 -100q-23 -77 -23 -133q0 -43 17 -67q25 -36 77 -36q67 0 119 54l32 -50q-76 -66 -166 -66q-83 0 -124 45q-39 43 -39 124q0 82 38 169q35 78 90 127q66 57 149 57q72 0 121 -42z" />
    <glyph glyph-name="afii10084" unicode="&#x442;" horiz-adv-x="798" 
d="M120 479l75 34q13 -29 13 -59q0 -23 -8 -51q34 43 80 72q55 35 104 35q52 0 72 -40q13 -26 13 -66q35 46 85 76t93 30q47 0 74 -32q21 -27 21 -67q0 -23 -8 -55l-76 -356h-78l74 348q6 30 6 48q0 25 -18 37q-12 7 -31 7q-25 0 -57 -21q-42 -27 -96 -92l-70 -327h-78
l72 340q10 44 10 62t-10 28q-9 10 -27 10q-28 0 -62 -19q-51 -28 -106 -96l-69 -325h-78l76 357q11 51 11 75q0 22 -7 47z" />
    <glyph glyph-name="afii10085" unicode="&#x443;" 
d="M497 498l-258 -475q-33 -60 -45.5 -82t-36 -54.5t-44.5 -48.5q-41 -31 -97 -43l-18 53q48 9 88 46q35 32 64 106l-32 -4q2 74 -12 179l-41 317l82 17l34 -319q3 -26 3 -124q25 43 56 105l167 327h90z" />
    <glyph glyph-name="afii10086" unicode="&#x444;" horiz-adv-x="739" 
d="M510 732l-58 -273q55 51 111 51q53 0 90 -38q39 -41 39 -118q0 -141 -64 -246q-37 -61 -87.5 -90.5t-98.5 -29.5q-54 0 -82 40l-48 -225h-78l48 225q-43 -40 -105 -40q-50 0 -87 37q-45 45 -45 128q0 59 16.5 123t42.5 109q37 65 85.5 95t93.5 30q49 0 91 -51l54 258z
M439 400l-66 -311q37 -37 76 -37q61 0 106 74q26 44 40.5 107t14.5 113q0 52 -18 75q-19 24 -56 24q-48 0 -97 -45zM295 89l66 311q-34 45 -73 45q-74 0 -118 -94q-43 -93 -43 -180q0 -67 20 -93q19 -26 55 -26q40 0 93 37z" />
    <glyph glyph-name="afii10087" unicode="&#x445;" horiz-adv-x="401" 
d="M448 498l-196 -223l132 -275h-92l-90 215l-179 -215h-95l245 276l-107 222h94l64 -166l131 166h93z" />
    <glyph glyph-name="afii10088" unicode="&#x446;" horiz-adv-x="567" 
d="M432 494l82 15l-75 -356q-10 -47 -10 -64q0 -15 5 -25h76l-51 -239h-74l37 175h-18q-24 0 -39 21q-15 20 -10 73q-30 -37 -66 -63q-60 -43 -124 -43q-52 0 -77 23q-28 26 -28 77q0 35 8 73l71 333l81 15l-70 -330q-9 -45 -9 -70q0 -32 14 -44q11 -10 32 -10q50 0 100 39
q48 36 79 88z" />
    <glyph glyph-name="afii10089" unicode="&#x447;" horiz-adv-x="474" 
d="M172 509l-40 -187q-2 -10 -2 -18q0 -27 18 -41q19 -15 66 -15q46 0 99 20l48 226l81 15l-108 -509h-78l45 210q-51 -25 -114 -25q-88 0 -121 46q-16 23 -16 54q0 17 6 45l35 164z" />
    <glyph glyph-name="afii10090" unicode="&#x448;" horiz-adv-x="781" 
d="M667 18l-75 -34q-13 29 -13 59q0 23 8 51q-37 -46 -80 -72q-55 -34 -104 -34q-52 0 -72 39q-13 26 -13 66q-38 -46 -89 -75.5t-93 -29.5q-46 0 -74 33q-20 26 -20 67q0 25 7 55l75 351l81 15l-76 -360q-6 -33 -6 -50q0 -25 18 -35q11 -7 31 -7q23 0 57 21q54 34 100 92
l69 324l81 15l-74 -352q-10 -50 -10 -62q0 -18 10 -28q9 -10 27 -10q28 0 62 19q49 27 107 96l67 322l81 15l-78 -369q-11 -55 -11 -75q0 -23 7 -47z" />
    <glyph glyph-name="afii10091" unicode="&#x449;" horiz-adv-x="820" 
d="M692 153q-10 -46 -10 -63q0 -15 5 -26h76l-51 -239h-74l37 175h-18q-27 0 -43 21q-12 16 -12 48q0 14 1 20q-35 -40 -78 -67q-54 -34 -104 -34q-52 0 -72 39q-13 26 -13 66q-38 -46 -89 -75.5t-93 -29.5q-46 0 -74 33q-20 26 -20 67q0 25 7 55l75 351l81 15l-76 -360
q-6 -33 -6 -50q0 -25 18 -35q11 -7 31 -7q23 0 57 21q54 34 100 92l69 324l81 15l-74 -352q-10 -50 -10 -62q0 -18 10 -28q9 -10 27 -10q28 0 62 19q49 27 107 96l67 322l81 15z" />
    <glyph glyph-name="afii10092" unicode="&#x44a;" horiz-adv-x="533" 
d="M98 25l88 411h-151l24 62h218l-42 -199q45 14 93 14q71 0 113 -36q47 -39 47 -104q0 -79 -57 -133q-58 -52 -154 -52q-82 0 -163 31zM221 237l-36 -172q49 -15 86 -15q67 0 100 32q33 33 33 85q0 38 -24 61t-76 23q-42 0 -83 -14z" />
    <glyph glyph-name="afii10093" unicode="&#x44b;" horiz-adv-x="693" 
d="M34 25l100 469l81 15l-44 -210q45 14 93 14q71 0 113 -36q47 -39 47 -104q0 -79 -57 -133q-58 -52 -154 -52q-82 0 -163 31zM157 237l-36 -172q49 -15 86 -15q67 0 100 32q33 33 33 85q0 38 -24 61t-76 23q-42 0 -83 -14zM580 494l81 15l-108 -509h-78z" />
    <glyph glyph-name="afii10094" unicode="&#x44c;" horiz-adv-x="469" 
d="M34 25l100 469l81 15l-44 -210q45 14 93 14q71 0 113 -36q47 -39 47 -104q0 -79 -57 -133q-58 -52 -154 -52q-82 0 -163 31zM157 237l-36 -172q49 -15 86 -15q67 0 100 32q33 33 33 85q0 38 -24 61t-76 23q-42 0 -83 -14z" />
    <glyph glyph-name="afii10095" unicode="&#x44d;" horiz-adv-x="437" 
d="M-25 53l49 47q15 -22 37 -35q28 -17 67 -17q74 0 121 67q34 48 45 114h-170l12 60h168q5 28 5 52q0 44 -17 71q-23 38 -76 38q-60 0 -111 -40l-32 45q72 55 154 55q90 0 129 -53q35 -46 35 -127q0 -69 -26 -144t-66 -120q-70 -78 -180 -78q-50 0 -92 23q-31 17 -52 42z
" />
    <glyph glyph-name="afii10096" unicode="&#x44e;" horiz-adv-x="717" 
d="M175 297h85q26 80 70 132q70 83 179 83q78 0 120 -47q43 -48 43 -136q0 -82 -29.5 -155.5t-77.5 -119.5q-70 -66 -168 -66q-75 0 -117 51q-40 46 -40 135q0 35 5 59h-83l-50 -233h-78l105 494l81 15zM495 448q-72 0 -117 -65q-56 -81 -56 -224q0 -54 23 -80
q24 -27 68 -27q58 0 98 43q36 37 56.5 104.5t20.5 132.5q0 60 -27 89q-25 27 -66 27z" />
    <glyph glyph-name="afii10097" unicode="&#x44f;" horiz-adv-x="507" 
d="M334 214h-51h-8q-31 0 -53 -14q-24 -16 -40 -49l-30 -60q-28 -55 -48 -72q-25 -21 -74 -25l-31 -3l-13 55l17 3q15 2 28 10q16 10 33 39l39 66q20 34 39 50q25 21 59 27q-46 9 -74 35q-30 28 -30 71q0 83 75 129q56 34 154 34q34 0 120 -9l27 -3l-106 -498h-78zM347 274
l36 167q-38 9 -67 9q-71 0 -107 -27q-35 -27 -35 -72q0 -31 20 -51q27 -26 91 -26h62z" />
    <glyph glyph-name="afii10071" unicode="&#x451;" horiz-adv-x="501" 
d="M474 621q0 -22 -15 -37.5t-36 -15.5q-22 0 -37.5 15.5t-15.5 37.5q0 21 15 36t37 15q21 0 36.5 -15t15.5 -36zM288 621q0 -22 -14.5 -37.5t-36.5 -15.5t-37 15.5t-15 37.5q0 21 15 36t36 15q22 0 37 -15t15 -36zM386 110l33 -48q-39 -40 -84 -57t-118 -17
q-71 0 -117 48.5t-46 131.5q0 75 28.5 149.5t81.5 122.5q74 70 164 70q69 0 106 -34.5t37 -94.5q0 -61 -46 -104q-62 -56 -215 -56q-18 0 -62 2q-7 -32 -7 -63q0 -50 28.5 -78.5t70.5 -28.5q46 0 78.5 12.5t67.5 44.5zM392 379q0 31 -18.5 50t-57.5 19q-49 0 -92.5 -45.5
t-62.5 -121.5q14 -1 51 -1q117 0 155 38q25 25 25 61z" />
    <glyph glyph-name="afii10099" unicode="&#x452;" horiz-adv-x="556" 
d="M246 604h166l-35 -58h-143l-10 -49q-5 -22 -18 -68q97 74 182 74q111 0 111 -100q0 -23 -6 -51l-57 -267q-33 -152 -68 -200q-45 -60 -113 -83l-28 52q19 7 35 18t26.5 20t20.5 29.5t15.5 31t13 41.5t10 43t11.5 53l53 249q5 22 5 41q0 53 -62 53q-74 0 -162 -79
l-75 -354h-78l116 546h-60l12 58h60l27 126l75 -13z" />
    <glyph glyph-name="afii10100" unicode="&#x453;" horiz-adv-x="448" 
d="M127 410l-18 61q87 39 167 39q59 0 96 -24q52 -35 52 -99q0 -52 -40 -87q-8 -7 -18.5 -14t-19 -12t-23.5 -11.5t-22.5 -9.5l-27.5 -11t-27 -11q-86 -34 -113 -58q-28 -25 -28 -59q0 -27 17 -42q20 -20 64 -20q54 0 119 26q7 3 39 17l20 -61l-12 -6q-80 -40 -180 -40
q-72 0 -112 30q-42 31 -42 91q0 57 42 97q29 28 139 70q89 35 115 58q25 22 25 49q0 33 -24 50q-19 13 -52 13q-62 0 -112 -25zM436 665l-225 -100l-26 47l208 130z" />
    <glyph glyph-name="afii10101" unicode="&#x454;" horiz-adv-x="445" 
d="M351 101l31 -47q-74 -66 -173 -66q-95 0 -136 65q-27 43 -27 113q0 77 29 157q31 80 91 131q66 56 150 56q90 0 139 -54l-52 -46q-38 42 -95 42q-51 0 -87 -28q-42 -35 -60 -94l-11 -36h169l-12 -60h-169l-8 -35v-3q-1 -3 -1.5 -7.5t-1.5 -10t-1.5 -14.5t-0.5 -18
q0 -45 16 -67q24 -33 77 -33q76 0 133 55z" />
    <glyph glyph-name="afii10102" unicode="&#x455;" horiz-adv-x="449" 
d="M419 473l-31 -59q-60 35 -115 35q-54 0 -82 -20q-29 -18 -29 -57q0 -16 9 -32q12 -19 44 -32l62 -26q58 -23 80 -54q23 -31 23 -72q0 -79 -67 -127q-58 -41 -146 -41q-95 0 -169 47l31 59q68 -46 146 -46q63 0 93 27q25 22 25 59q0 31 -15 48.5t-46 30.5l-58 25
q-44 20 -64 39q-32 32 -32 79q0 77 66 119q54 35 134 35q84 0 141 -37z" />
    <glyph glyph-name="afii10103" unicode="&#x456;" horiz-adv-x="258" 
d="M277 652q0 -25 -18 -43t-43 -18t-43 17.5t-18 42.5t18 43.5t43 18.5t43 -18t18 -43zM226 509l-108 -509h-78l106 497z" />
    <glyph glyph-name="afii10104" unicode="&#x457;" horiz-adv-x="263" 
d="M231 509l-108 -509h-83l106 496zM369 621q0 -22 -15.5 -37.5t-35.5 -15.5q-21 0 -37 16t-16 37t15.5 36t36.5 15t36.5 -15.5t15.5 -35.5zM162 621q0 -19 -13.5 -36t-37.5 -17q-21 0 -36.5 15.5t-15.5 37.5q0 20 15.5 35.5t35.5 15.5q21 0 36.5 -15.5t15.5 -35.5z" />
    <glyph glyph-name="afii10105" unicode="&#x458;" horiz-adv-x="259" 
d="M280 661q0 -25 -18 -43.5t-43 -18.5t-43.5 17.5t-18.5 42.5q0 26 18.5 44.5t43.5 18.5t43 -18t18 -43zM228 510l-106 -497q-16 -74 -42 -118q-41 -67 -119 -93l-28 52q43 15 69 47q27 33 44 116l101 477z" />
    <glyph glyph-name="afii10106" unicode="&#x459;" horiz-adv-x="716" 
d="M281 25l88 413h-117l-23 -77q-10 -33 -47 -147q-17 -55 -33 -96q-29 -71 -64 -97q-31 -23 -77 -27l-34 -3l-2 49l20 6q15 4 32 13q26 14 42.5 43t40.5 99q19 56 57 179l36 118h260l-42 -199q46 14 93 14q71 0 113 -36q47 -39 47 -104q0 -79 -57 -133q-58 -52 -154 -52
q-82 0 -163 31zM404 237l-36 -172q49 -15 86 -15q67 0 100 32q33 33 33 85q0 38 -24 61t-76 23q-42 0 -83 -14z" />
    <glyph glyph-name="afii10107" unicode="&#x45a;" horiz-adv-x="756" 
d="M321 25l45 208h-204l-50 -233h-78l105 494l81 15l-45 -211h204l42 196l81 15l-44 -210q46 14 93 14q71 0 113 -36q47 -39 47 -104q0 -79 -57 -133q-58 -52 -154 -52q-82 0 -163 31zM444 237l-36 -172q49 -15 86 -15q67 0 100 32q33 33 33 85q0 38 -24 61t-76 23
q-42 0 -83 -14z" />
    <glyph glyph-name="afii10108" unicode="&#x45b;" horiz-adv-x="556" 
d="M418 0h-78l72 339q6 28 6 42q0 20 -9 32q-15 20 -54 20q-34 0 -80 -22q-43 -21 -82 -57l-75 -354h-78l116 546h-60l12 58h60l27 126l75 -13l-24 -113h166l-35 -58h-143l-10 -49q-5 -22 -18 -68q97 74 182 74q69 0 97 -42q15 -23 15 -54q0 -15 -7 -55z" />
    <glyph glyph-name="afii10109" unicode="&#x45c;" horiz-adv-x="498" 
d="M139 495l78 14l-47 -218l-24 -86h3q22 52 51 96q29 45 63 84q45 51 104 84q50 27 108 40l21 -58l-15 -4q-141 -37 -226 -173l22 -2q56 -5 76 -34q14 -19 16 -54l8 -94q2 -24 15 -33q18 -9 27 -11l16 -4l-21 -52l-40 5q-52 7 -66 30q-11 19 -11 64l-1 75q0 35 -15 48
t-59 13q-65 -96 -113 -225h-75zM484 665l-225 -100l-26 47l208 130z" />
    <glyph glyph-name="afii10110" unicode="&#x45e;" 
d="M497 498l-258 -475q-33 -60 -45.5 -82t-36 -54.5t-44.5 -48.5q-41 -31 -97 -43l-18 53q48 9 88 46q35 32 64 106l-32 -4q2 74 -12 179l-41 317l82 17l34 -319q3 -26 3 -124q25 43 56 105l167 327h90zM408 718l44 -25q-20 -52 -66 -85q-42 -30 -96 -30q-64 0 -99 35
q-33 33 -33 80l55 25q3 -35 24 -53q20 -18 59 -18q37 0 65 18q30 20 47 53z" />
    <glyph glyph-name="afii10193" unicode="&#x45f;" horiz-adv-x="546" 
d="M432 494l82 15l-74 -351q-10 -45 -10 -67q0 -28 23 -57l-61 -50q-23 21 -30 43q-11 33 -7 67q-30 -37 -66 -63q-61 -43 -124 -43q-52 0 -77 23q-28 25 -28 77q0 35 8 73l71 333l81 15l-70 -330q-9 -43 -9 -70q0 -32 14 -44q11 -10 32 -10q51 0 100 38q47 34 79 89z
M190 -175l29 132l81 31l-36 -163h-74z" />
    <glyph glyph-name="afii10050" unicode="&#x490;" horiz-adv-x="497" 
d="M186 686h291l24 116h76l-39 -184h-285l-131 -618h-82z" />
    <glyph glyph-name="afii10098" unicode="&#x491;" horiz-adv-x="388" 
d="M203 428l-91 -428h-78l106 498h224l21 99h73l-36 -169h-219z" />
    <glyph glyph-name="endash" unicode="&#x2013;" horiz-adv-x="585" 
d="M551 309l-13 -59h-485l13 59h485z" />
    <glyph glyph-name="emdash" unicode="&#x2014;" horiz-adv-x="812" 
d="M778 309l-13 -59h-712l13 59h712z" />
    <glyph glyph-name="quoteleft" unicode="&#x2018;" horiz-adv-x="261" 
d="M277 711l26 -44q-65 -29 -86 -89q22 0 37 -18.5t15 -43.5q-1 -33 -22 -53t-53 -20q-30 0 -50.5 21t-20.5 54q0 70 59 129q42 40 95 64z" />
    <glyph glyph-name="quoteright" unicode="&#x2019;" horiz-adv-x="261" 
d="M126 430l-26 44q65 29 86 89q-22 0 -37 18.5t-15 43.5q1 33 22 53t53 20q30 0 50.5 -21t20.5 -54q0 -70 -59 -129q-42 -40 -95 -64z" />
    <glyph glyph-name="quotedblleft" unicode="&#x201c;" horiz-adv-x="458" 
d="M475 711l26 -44q-65 -29 -86 -89q22 0 37 -18.5t15 -43.5q-1 -33 -22 -53t-53 -20q-30 0 -50.5 21t-20.5 54q0 64 59 129q33 37 95 64zM277 711l26 -44q-65 -29 -86 -89q22 0 37 -18.5t15 -43.5q-1 -33 -22 -53t-53 -20q-30 0 -50.5 21t-20.5 54q0 64 59 129q33 37 95 64
z" />
    <glyph glyph-name="quotedblright" unicode="&#x201d;" horiz-adv-x="459" 
d="M325 430l-26 44q65 29 86 89q-22 0 -37 18.5t-15 43.5q1 33 22 53t53 20q30 0 50.5 -21t20.5 -54q0 -70 -59 -129q-42 -40 -95 -64zM127 430l-26 44q65 29 86 89q-22 0 -37 18.5t-15 43.5q1 33 22 53t53 20q30 0 50.5 -21t20.5 -54q0 -70 -59 -129q-42 -40 -95 -64z" />
    <glyph glyph-name="quotedblbase" unicode="&#x201e;" horiz-adv-x="458" 
d="M202 -143l-26 44q65 29 86 89q-22 0 -37 18.5t-15 43.5q1 33 22 53t53 20q30 0 50.5 -21t20.5 -54q0 -70 -59 -129q-42 -40 -95 -64zM4 -143l-26 44q65 29 86 89q-22 0 -37 18.5t-15 43.5q1 33 22 53t53 20q30 0 50.5 -21t20.5 -54q0 -70 -59 -129q-42 -40 -95 -64z" />
    <glyph glyph-name="dagger" unicode="&#x2020;" horiz-adv-x="466" 
d="M498 524l-25 -69h-150l-97 -455h-79l97 455h-157l15 69h157l34 162h79l-34 -162h160z" />
    <glyph glyph-name="bullet" unicode="&#x2022;" horiz-adv-x="521" 
d="M463 354q1 -73 -50.5 -125t-125.5 -52t-126 52t-52 125q-1 73 51 125t126 52t125.5 -51.5t51.5 -125.5z" />
    <glyph glyph-name="ellipsis" unicode="&#x2026;" horiz-adv-x="767" 
d="M637 56q0 -28 -20 -48.5t-47 -20.5q-28 0 -47.5 20t-19.5 49q0 28 19 47t47 19q29 0 48.5 -19t19.5 -47zM407 56q0 -28 -20 -48.5t-47 -20.5q-28 0 -47.5 20t-19.5 49q0 28 19 47t47 19q29 0 48.5 -19t19.5 -47zM177 56q0 -28 -20 -48.5t-47 -20.5q-28 0 -47.5 20
t-19.5 49q0 28 19 47t47 19q29 0 48.5 -19t19.5 -47z" />
    <glyph glyph-name="Euro" unicode="&#x20ac;" horiz-adv-x="586" 
d="M579 405h-20q2 39 -33 58t-95 19q-95 0 -151.5 -47.5t-89.5 -137.5h306l-21 -26h-294q-5 -18 -6 -24q-5 -17 -6 -24h266l-22 -26h-248q-12 -90 27.5 -138.5t126.5 -48.5q56 0 101.5 19t63.5 60h20l-21 -58q-61 -47 -186 -47q-239 0 -213 213h-71l21 26h52q0 10 5 25
q2 10 6 23h-67l21 26h56q41 105 114.5 158.5t200.5 53.5q125 0 165 -44z" />
    <glyph glyph-name="afii61352" unicode="&#x2116;" horiz-adv-x="944" 
d="M191 686h86l147 -492q9 -29 20 -90q14 102 36 209l79 373h78l-146 -686h-86l-143 477q-13 46 -24 97q-15 -109 -30 -176l-85 -398h-78zM946 523q-18 -79 -62 -115.5t-99 -36.5q-41 0 -68.5 17t-27.5 53t6.5 73.5t22.5 78.5t50 67t82 26q44 0 71.5 -18t27.5 -55
q0 -9 0.5 -24.5t0.5 -23.5q0 -23 -4 -42zM888 520q7 28 7 50q0 33 -10.5 52.5t-44.5 19.5q-30 0 -51.5 -20.5t-31 -53t-13 -59t-3.5 -52.5q0 -42 55 -42q69 0 92 105zM875 203h-251l11 52h251z" />
    <glyph glyph-name="trademark" unicode="&#x2122;" horiz-adv-x="934" 
d="M899 686l-50 -428h-69l39 311q0 1 0.5 4t0.5 4q0 -2 -1.5 -4.5t-2.5 -3.5l-159 -311h-58l-25 299q-2 25 -3 27q-1 -9 -6 -27l-87 -299h-68l129 428h90l23 -276q2 -26 2 -33q2 6 7 15.5t7 15.5l140 278h91zM430 686l-17 -58h-116l-77 -370h-67l76 370h-115l11 58h305z" />
    <glyph glyph-name="radical" unicode="&#x221a;" horiz-adv-x="527" 
d="M645 695l-396 -695h-71l-56 439h-59l13 59h120l28 -252q12 -112 12 -148v-5q44 94 72 143l258 459h79z" />
    <glyph glyph-name="infinity" unicode="&#x221e;" horiz-adv-x="897" 
d="M897 301q0 -87 -64 -143.5t-153 -56.5q-78 0 -144 55l-74 61l-97 -60q-94 -57 -172 -57q-57 0 -100 27t-43 88q0 87 64 144t153 57q77 0 151 -60l69 -56l97 60q93 57 171 57q56 0 99 -27.5t43 -88.5zM814 281q0 31 -21.5 50.5t-59.5 19.5q-54 0 -128 -45l-72 -45l70 -55
q47 -36 91 -36q49 0 84.5 31.5t35.5 79.5zM414 255l-68 56q-43 35 -93 35t-85.5 -31t-35.5 -79q0 -31 22 -51t60 -20q57 0 128 45z" />
    <glyph glyph-name="approxequal" unicode="&#x2248;" horiz-adv-x="560" 
d="M562 384q-33 -34 -65 -51t-76 -17q-39 0 -102.5 33t-99.5 33q-9 0 -17 -1t-16 -4.5t-12.5 -5t-13 -8.5t-11 -9t-12.5 -11.5t-12 -10.5l-24 50q63 68 140 68q39 0 103 -33t99 -33q31 0 50.5 11.5t44.5 38.5zM523 203q-33 -34 -64.5 -51t-75.5 -17q-39 0 -102.5 33
t-99.5 33q-8 0 -16 -1.5t-13 -2.5t-12.5 -5t-10.5 -5.5t-11.5 -8t-10 -8t-11 -10t-10.5 -9.5l-23 50q63 68 139 68q39 0 103 -33t99 -33q31 0 51 11.5t45 38.5z" />
    <glyph glyph-name="notequal" unicode="&#x2260;" horiz-adv-x="622" 
d="M630 414l-14 -66h-198l-74 -90h253l-14 -66h-293l-147 -179l-40 30l123 149h-165l14 66h205l74 90h-260l14 66h300l147 179l40 -30l-123 -149h158z" />
    <glyph glyph-name="lessequal" unicode="&#x2264;" horiz-adv-x="457" 
d="M483 498l-16 -75l-302 -124l254 -101l-16 -74l-337 139l13 63zM400 107l-15 -71h-367l15 71h367z" />
    <glyph glyph-name="greaterequal" unicode="&#x2265;" horiz-adv-x="457" 
d="M446 326l-13 -63l-397 -139l16 74l298 101l-250 124l16 75zM400 107l-15 -71h-367l15 71h367z" />
    <glyph glyph-name="Acute" unicode="&#xf6c9;" horiz-adv-x="341" 
d="M401 825l-225 -100l-26 47l208 130z" />
    <glyph glyph-name="Dieresis" unicode="&#xf6cb;" horiz-adv-x="400" 
d="M450 781q0 -22 -15.5 -37.5t-35.5 -15.5q-21 0 -37 16t-16 37t15 36t37 15q21 0 36.5 -15.5t15.5 -35.5zM243 781q0 -19 -13.5 -36t-37.5 -17q-21 0 -36.5 15.5t-15.5 37.5q0 20 15.5 35.5t35.5 15.5q21 0 36.5 -15.5t15.5 -35.5z" />
    <glyph glyph-name="cyrBreve" unicode="&#xf6d1;" horiz-adv-x="406" 
d="M413 862l43 -23q-18 -50 -64 -81q-44 -29 -93 -29q-64 0 -97 33q-29 29 -32 77l53 23q3 -32 24 -50q22 -17 57 -17q33 0 63 17q27 16 46 50z" />
    <glyph glyph-name="cyrbreve" unicode="&#xf6d4;" horiz-adv-x="394" 
d="M380 718l44 -25q-20 -52 -66 -85q-42 -30 -96 -30q-64 0 -99 35q-33 33 -33 80l55 25q3 -35 24 -53q20 -18 59 -18q37 0 65 18q30 20 47 53z" />
    <glyph glyph-name="nbspace" horiz-adv-x="225" 
 />
    </font>
</defs>
</svg>
