<?xml version="1.0" standalone="no"?>
<!DOCTYPE svg PUBLIC "-//W3C//DTD SVG 1.1//EN" "http://www.w3.org/Graphics/SVG/1.1/DTD/svg11.dtd" >
<svg>
<metadata>
Created by FontForge 20110222 at Wed Oct 30 02:08:06 2013
 By Orthosie Webhosting
Copyright Erik Spiekermann, 1991, 93, 98. Published by FontShop International for  FontFont Release 23. Copyright (c) ParaType, Inc., 2000. All rights reserved. Meta is a trademark of FSI Fonts and Software GmbH.
</metadata>
<defs>
<font id="MetaMediumCRegular" horiz-adv-x="271" >
  <font-face 
    font-family="MetaMediumCRegular"
    font-weight="500"
    font-stretch="normal"
    units-per-em="1000"
    panose-1="0 0 6 0 0 0 0 0 0 0"
    ascent="784"
    descent="-216"
    x-height="506"
    cap-height="692"
    bbox="-43 -216 925 915"
    underline-thickness="50"
    underline-position="-50"
    unicode-range="U+0020-F6D4"
  />
<missing-glyph horiz-adv-x="225" 
 />
    <glyph glyph-name=".notdef" horiz-adv-x="225" 
 />
    <glyph glyph-name=".null" horiz-adv-x="0" 
 />
    <glyph glyph-name="nonmarkingreturn" horiz-adv-x="333" 
 />
    <glyph glyph-name="space" unicode=" " horiz-adv-x="225" 
 />
    <glyph glyph-name="space" unicode="&#xa0;" horiz-adv-x="225" 
 />
    <glyph glyph-name="exclam" unicode="!" horiz-adv-x="286" 
d="M208 706l-24 -494h-84l-25 475zM216 64q0 -31 -22 -52.5t-52 -21.5q-31 0 -51.5 21.5t-20.5 52.5q0 30 21 51.5t52 21.5q30 0 51.5 -21.5t21.5 -51.5z" />
    <glyph glyph-name="quotedbl" unicode="&#x22;" horiz-adv-x="443" 
d="M373 442h-102v267h102v-267zM172 442h-102v267h102v-267z" />
    <glyph glyph-name="numbersign" unicode="#" horiz-adv-x="556" 
d="M526 425h-100l-20 -141h90v-77h-100l-29 -207h-83l29 207h-112l-29 -207h-82l28 207h-88v77h99l19 141h-89v77h100l28 206h83l-29 -206h112l29 206h82l-28 -206h90v-77zM343 425h-112l-20 -141h113z" />
    <glyph glyph-name="dollar" unicode="$" horiz-adv-x="579" 
d="M539 210q0 -92 -64.5 -151.5t-157.5 -69.5v-88h-72v87q-109 3 -205 60l44 89q98 -56 192 -56q65 0 99 31t34 78q0 75 -95 103l-84 25q-94 28 -130 78q-33 45 -33 107q0 83 52.5 135t144.5 65v76h72v-76q103 -6 187 -66l-52 -81q-88 53 -159 53q-59 0 -88.5 -23.5
t-29.5 -64.5q0 -64 80 -85l94 -26q82 -22 125 -73q46 -52 46 -127z" />
    <glyph glyph-name="percent" unicode="%" horiz-adv-x="834" 
d="M804 162q0 -77 -44.5 -124t-122.5 -47q-77 0 -121.5 46t-44.5 125q0 78 45.5 124.5t119.5 46.5q79 0 123.5 -45.5t44.5 -125.5zM633 690l-351 -690h-79l350 690h80zM363 528q0 -79 -45 -124q-46 -46 -122 -46q-77 0 -121.5 46t-44.5 125q0 78 45.5 124.5t119.5 46.5
q78 0 123 -45t45 -127zM713 160q0 58 -18.5 83.5t-58.5 25.5q-75 0 -75 -103q0 -60 18 -85t59 -25q75 0 75 104zM272 527q0 57 -18.5 83t-58.5 26q-75 0 -75 -104q0 -59 18.5 -84.5t58.5 -25.5q75 0 75 105z" />
    <glyph glyph-name="ampersand" unicode="&#x26;" horiz-adv-x="689" 
d="M689 0h-151l-53 53q-66 -66 -193 -66q-116 0 -179 50t-63 136q0 61 33.5 101.5t99.5 72.5q-49 39 -69 73.5t-20 79.5q0 70 53.5 116.5t136.5 46.5q84 0 139 -42.5t55 -113.5q0 -55 -35 -93t-102 -70l136 -132q14 36 14 122h92q0 -121 -34 -195zM362 507q0 35 -21.5 57
t-55.5 22t-55.5 -20t-21.5 -56q0 -25 15 -48.5t57 -62.5q82 41 82 108zM420 115l-178 174q-74 -41 -74 -113q0 -51 34 -80t94 -29q84 0 124 48z" />
    <glyph glyph-name="quotesingle" unicode="'" horiz-adv-x="242" 
d="M172 442h-102v267h102v-267z" />
    <glyph glyph-name="parenleft" unicode="(" horiz-adv-x="303" 
d="M323 -103l-29 -60q-68 25 -120.5 78t-82.5 127q-41 102 -41 280q0 146 35 236q60 154 208 220l28 -61q-90 -61 -124 -143q-36 -84 -36 -250q0 -136 21 -221q19 -75 50 -125t91 -81z" />
    <glyph glyph-name="parenright" unicode=")" horiz-adv-x="304" 
d="M254 310q0 -146 -32 -242q-27 -79 -82 -140t-131 -91l-29 61q95 54 135 172q27 81 27 240q0 96 -19 196q-27 143 -141 211l28 61q131 -52 199 -194q45 -95 45 -274z" />
    <glyph glyph-name="asterisk" unicode="*" horiz-adv-x="456" 
d="M431 531l-136 -45l86 -118l-67 -51l-87 121l-84 -118l-66 50l86 116l-138 47l27 79l136 -48v144h82v-144l136 46z" />
    <glyph glyph-name="plus" unicode="+" horiz-adv-x="600" 
d="M550 232h-199v-200h-102v200h-199v104h199v200h102v-200h199v-104z" />
    <glyph glyph-name="comma" unicode="," horiz-adv-x="282" 
d="M222 35q0 -61 -37 -110t-95 -69l-40 50q30 10 49 30t19 41q0 12 -22 21q-43 17 -43 67q0 34 23 57t56 23q39 0 64.5 -31t25.5 -79z" />
    <glyph glyph-name="hyphen" unicode="-" horiz-adv-x="319" 
d="M269 221h-219v102h219v-102z" />
    <glyph glyph-name="hyphen" unicode="&#xad;" horiz-adv-x="319" 
d="M269 221h-219v102h219v-102z" />
    <glyph glyph-name="period" unicode="." horiz-adv-x="277" 
d="M217 67q0 -34 -23 -58t-55 -24q-33 0 -56 24t-23 58q0 33 22.5 56t54.5 23q33 0 56.5 -23t23.5 -56z" />
    <glyph glyph-name="slash" unicode="/" horiz-adv-x="440" 
d="M390 762l-264 -913h-76l263 913h77z" />
    <glyph glyph-name="zero" unicode="0" horiz-adv-x="562" 
d="M512 252q0 -120 -63.5 -192.5t-167.5 -72.5q-107 0 -169 71.5t-62 193.5q0 121 63.5 193.5t167.5 72.5q107 0 169 -72t62 -194zM392 245q0 106 -28 148.5t-84 42.5q-110 0 -110 -177q0 -105 28 -147.5t84 -42.5q110 0 110 176z" />
    <glyph glyph-name="one" unicode="1" horiz-adv-x="430" 
d="M385 0h-294v89h103v301q-58 -36 -127 -63l-27 58l183 132h77v-428h85v-89z" />
    <glyph glyph-name="two" unicode="2" horiz-adv-x="551" 
d="M491 91l-23 -91h-401v98l119 77q89 57 124 92.5t35 78.5q0 37 -24.5 56.5t-67.5 19.5q-64 0 -144 -63l-59 64q108 96 233 96q84 0 136 -42.5t52 -113.5q0 -62 -51 -118t-163 -124l-56 -34q44 4 101 4h189z" />
    <glyph glyph-name="three" unicode="3" horiz-adv-x="524" 
d="M474 51q0 -70 -47 -125q-98 -109 -299 -109q-39 0 -69 4l-25 75q63 -11 133 1t113 44q67 49 67 119q0 64 -58 90q-19 8 -54 11t-61 2l-25 -1v88q36 -3 62 -3q125 0 125 91q0 41 -26.5 65.5t-73.5 24.5q-68 0 -151 -55l-55 65q46 39 105.5 60.5t117.5 21.5
q89 0 146.5 -47.5t57.5 -120.5q0 -109 -113 -149q62 -19 96 -59t34 -93z" />
    <glyph glyph-name="four" unicode="4" horiz-adv-x="535" 
d="M505 8h-47l-31 2q4 -17 4 -36v-143l-105 -18v164l1 32q-19 -1 -37 -1h-260v78l205 437h115l-160 -342q-12 -25 -23.5 -46t-16.5 -29l-6 -9q18 3 31 3h120l35 -1q-5 37 7 163l8 88l86 21v-185l-3 -87q21 1 34 1h43v-92z" />
    <glyph glyph-name="five" unicode="5" horiz-adv-x="510" 
d="M450 63q0 -109 -86.5 -178.5t-216.5 -69.5q-41 0 -74 8l-23 80q45 -13 85 -13q85 0 140.5 46.5t55.5 116.5q0 54 -34.5 85.5t-91.5 31.5q-63 0 -137 -25l32 361h320l-16 -93h-203l-15 -163q35 5 57 5q91 0 149 -52.5t58 -139.5z" />
    <glyph glyph-name="six" unicode="6" horiz-adv-x="576" 
d="M521 209q0 -95 -65 -158.5t-162 -63.5q-106 0 -172.5 77t-66.5 200q0 94 42.5 177.5t114.5 146.5q97 85 224 122l24 -77q-109 -35 -176 -102q-68 -68 -94 -161q50 44 125 44q85 0 145.5 -58t60.5 -147zM403 207q0 56 -29 88t-77 32q-54 0 -116 -41q-3 -25 -3 -59
q0 -76 29 -115.5t83 -39.5q52 0 82.5 36t30.5 99z" />
    <glyph glyph-name="seven" unicode="7" horiz-adv-x="498" 
d="M468 506l-20 -100q-50 -72 -89 -141q-77 -133 -118 -264q-30 -67 -51 -163l-124 -32q22 98 61 201q42 110 91 203q65 123 131 203q-17 -4 -65 -4h-254l25 97h413z" />
    <glyph glyph-name="eight" unicode="8" horiz-adv-x="587" 
d="M537 191q0 -89 -67.5 -146.5t-183.5 -57.5q-107 0 -171.5 52t-64.5 136q0 61 36.5 107t93.5 66q-50 19 -79.5 62t-29.5 91q0 79 62 128t165 49q95 0 154.5 -46t59.5 -119q0 -45 -31.5 -87.5t-103.5 -65.5q160 -59 160 -169zM394 514q0 40 -28 62.5t-78 22.5
q-48 0 -77 -24t-29 -64q0 -32 23.5 -55t91.5 -55q97 49 97 113zM415 168q0 48 -33.5 74t-129.5 65q-82 -47 -82 -123q0 -53 34.5 -84.5t93.5 -31.5q52 0 84.5 28t32.5 72z" />
    <glyph glyph-name="nine" unicode="9" horiz-adv-x="561" 
d="M511 257q0 -188 -150 -332q-108 -101 -236 -135l-59 66q95 21 185 96q78 65 109 151q-52 -31 -103 -31q-89 0 -148 61.5t-59 155.5q0 99 66.5 164.5t166.5 65.5q104 0 166 -70.5t62 -191.5zM392 279q0 71 -30.5 113t-81.5 42q-50 0 -80 -39t-30 -103q0 -61 30 -97t81 -36
q53 0 101 44q10 41 10 76z" />
    <glyph glyph-name="colon" unicode=":" horiz-adv-x="295" 
d="M225 372q0 -33 -23 -55.5t-55 -22.5q-31 0 -53.5 22t-22.5 54q0 33 22.5 56t54.5 24q32 0 54.5 -23t22.5 -55zM224 63q0 -32 -23 -54.5t-55 -22.5t-54 22.5t-22 54.5q0 33 22.5 57t55.5 23q31 0 53.5 -23.5t22.5 -56.5z" />
    <glyph glyph-name="semicolon" unicode=";" horiz-adv-x="313" 
d="M229 371q0 -32 -22.5 -55t-54.5 -23t-55 23t-23 55t22.5 55.5t53.5 23.5q32 1 55.5 -23t23.5 -56zM243 32q0 -60 -37.5 -109t-95.5 -69l-40 49q30 10 49 30t19 40q0 9 -10 16t-22.5 12.5t-22.5 21.5t-10 39q0 34 23 57.5t56 23.5q40 0 65.5 -31t25.5 -80z" />
    <glyph glyph-name="less" unicode="&#x3c;" horiz-adv-x="368" 
d="M328 81l-88 -69l-220 287l220 288l88 -71l-165 -217z" />
    <glyph glyph-name="equal" unicode="=" horiz-adv-x="635" 
d="M585 344h-535v101h535v-101zM585 162h-535v101h535v-101z" />
    <glyph glyph-name="greater" unicode="&#x3e;" horiz-adv-x="367" 
d="M347 299l-219 -287l-88 69l164 218l-164 217l88 71z" />
    <glyph glyph-name="question" unicode="?" horiz-adv-x="463" 
d="M403 543q0 -33 -10 -59.5t-29 -46.5t-29.5 -28t-28.5 -20q-67 -45 -67 -127q0 -20 3 -39h-94q-8 35 -8 62q0 85 78 148q6 4 20 14.5t21 16.5t16.5 16.5t13.5 22.5t4 27q0 37 -24.5 57t-62.5 20q-61 0 -118 -45l-48 71q76 69 188 69q74 0 124.5 -43.5t50.5 -115.5zM282 64
q0 -32 -22.5 -54.5t-53.5 -22.5t-52.5 22.5t-21.5 54.5q0 31 21.5 52.5t53.5 21.5q30 0 52.5 -21.5t22.5 -52.5z" />
    <glyph glyph-name="at" unicode="@" horiz-adv-x="911" 
d="M861 276q0 -129 -66 -209.5t-161 -80.5q-55 0 -83.5 24.5t-31.5 62.5q-28 -33 -67.5 -54t-82.5 -21q-50 0 -86.5 37.5t-36.5 107.5q0 127 73.5 218.5t202.5 91.5q70 0 137 -36q-20 -67 -63 -269q-12 -58 -3 -76.5t44 -18.5q54 0 92.5 64t38.5 159q0 119 -84.5 200.5
t-219.5 81.5q-141 0 -230.5 -105.5t-89.5 -247.5q0 -131 87 -216t215 -85q78 0 144 22l18 -68q-70 -23 -162 -23q-80 0 -151 24.5t-126 70.5t-87 117t-32 158q0 178 117.5 299t296.5 121q171 0 284 -96.5t113 -252.5zM556 380q-15 7 -41 7q-59 0 -101 -40t-59 -94t-17 -114
q0 -38 12.5 -53t39.5 -15q36 0 75 34.5t52 95.5z" />
    <glyph glyph-name="A" unicode="A" horiz-adv-x="577" 
d="M579 0h-126l-56 182h-224l-56 -182h-119l227 692h133zM201 278h170q-52 173 -82 300q-31 -113 -88 -300z" />
    <glyph glyph-name="B" unicode="B" horiz-adv-x="601" 
d="M551 196q0 -196 -270 -196h-201v692h183q77 0 113.5 -7t68.5 -27q78 -50 78 -136q0 -56 -31 -95.5t-88 -55.5q79 -19 113 -67t34 -108zM402 503q0 30 -15.5 54t-40.5 33q-22 8 -65 8h-86v-190h95q34 0 51.5 5t33.5 21q27 28 27 69zM423 206q0 37 -18 65.5t-47 36.5
q-20 6 -64 6h-99v-220h102q63 0 94.5 31t31.5 81z" />
    <glyph glyph-name="C" unicode="C" horiz-adv-x="567" 
d="M537 51q-80 -61 -189 -61q-136 0 -219 100q-79 96 -79 244q0 123 46 209q39 74 106.5 116.5t148.5 42.5q107 0 172 -54l-53 -75q-53 39 -118 39q-91 0 -138 -83q-36 -63 -36 -181q0 -112 27 -170q45 -98 154 -98q69 0 124 44z" />
    <glyph glyph-name="D" unicode="D" horiz-adv-x="621" 
d="M571 344q0 -154 -73 -247q-43 -55 -96.5 -76t-150.5 -21h-171v692h144q100 0 162 -22t110 -76q75 -87 75 -250zM443 333q0 149 -44 209q-24 33 -53.5 46.5t-76.5 13.5h-74v-508h77q90 0 130.5 59t40.5 180z" />
    <glyph glyph-name="E" unicode="E" horiz-adv-x="499" 
d="M474 0h-394v692h384l-15 -94h-252v-189h211v-94h-211v-217h277v-98z" />
    <glyph glyph-name="F" unicode="F" horiz-adv-x="431" 
d="M446 692l-14 -94h-237v-188h193v-94h-193v-316h-115v692h366z" />
    <glyph glyph-name="G" unicode="G" horiz-adv-x="639" 
d="M569 48q-96 -58 -216 -58q-147 0 -226 98q-77 94 -77 253q0 210 130 307q71 54 171 54q121 0 206 -73l-58 -70q-69 53 -146 53q-175 0 -175 -275q0 -147 51 -207q44 -52 131 -52q51 0 92 22v180h-118l-16 94h251v-326z" />
    <glyph glyph-name="H" unicode="H" horiz-adv-x="626" 
d="M546 0h-115v320h-236v-320h-115v692h115v-278h236v278h115v-692z" />
    <glyph glyph-name="I" unicode="I" horiz-adv-x="278" 
d="M198 0h-118v692h118v-692z" />
    <glyph glyph-name="J" unicode="J" horiz-adv-x="283" 
d="M203 128q0 -83 -9 -122t-32 -71q-41 -57 -117 -85l-54 61q59 32 81 78q16 33 16 129v574h115v-564z" />
    <glyph glyph-name="K" unicode="K" horiz-adv-x="571" 
d="M581 0h-150l-233 369l225 323h142l-240 -321zM195 0h-115v692h115v-692z" />
    <glyph glyph-name="L" unicode="L" horiz-adv-x="463" 
d="M453 94l-19 -94h-354v692h115v-598h258z" />
    <glyph glyph-name="M" unicode="M" horiz-adv-x="816" 
d="M756 0h-113l-32 429q-5 73 -5 120q-16 -74 -27 -111l-126 -438h-98l-115 419q-19 66 -30 131q0 -32 -7 -132l-30 -418h-113l63 692h153l106 -392q11 -41 26 -118q7 50 25 116l109 394h153z" />
    <glyph glyph-name="N" unicode="N" horiz-adv-x="629" 
d="M549 0h-121l-155 325q-63 131 -90 205l-3 -3q5 -55 7 -192l4 -335h-111v692h130l168 -338q53 -107 69 -178l3 3q-10 117 -10 197l-2 316h111v-692z" />
    <glyph glyph-name="O" unicode="O" horiz-adv-x="678" 
d="M628 346q0 -164 -75 -260t-209 -96q-143 0 -218.5 98.5t-75.5 258.5q0 168 78.5 261.5t210.5 93.5q141 0 215 -99t74 -257zM500 340q0 135 -35.5 204.5t-123.5 69.5q-86 0 -124.5 -65.5t-38.5 -193.5q0 -138 39 -207.5t127 -69.5q79 0 117.5 62.5t38.5 199.5z" />
    <glyph glyph-name="P" unicode="P" horiz-adv-x="555" 
d="M535 485q0 -100 -64 -160.5t-160 -60.5h-116v-264h-115v692h184q73 0 109.5 -7.5t66.5 -25.5q95 -56 95 -174zM407 479q0 58 -28 87q-32 34 -96 34h-88v-244h88q124 0 124 123z" />
    <glyph glyph-name="Q" unicode="Q" horiz-adv-x="680" 
d="M702 -39l-31 -77q-25 -11 -54 -11q-59 0 -134 50q-73 49 -143 67q-140 0 -215 99t-75 258q0 167 78.5 261t209.5 94q139 0 214.5 -96t75.5 -261q0 -229 -142 -318q23 -9 76 -41q48 -29 97 -29q22 0 43 4zM500 339q0 140 -36 207.5t-123 67.5q-85 0 -124 -64t-39 -196
q0 -150 42 -213t125 -63q78 0 116.5 61t38.5 200z" />
    <glyph glyph-name="R" unicode="R" horiz-adv-x="573" 
d="M553 0h-137l-60 107q-69 122 -118 171q-20 20 -43 21v-299h-115v692h211q111 0 168 -56t57 -142q0 -78 -47 -134t-125 -56q32 -16 107 -138zM396 494q0 54 -32.5 80t-107.5 26h-61v-220h57q84 0 113 29q31 31 31 85z" />
    <glyph glyph-name="S" unicode="S" horiz-adv-x="587" 
d="M542 212q0 -92 -72 -157t-198 -65q-124 0 -227 62l44 89q98 -57 187 -57q64 0 100 29t36 81q0 70 -103 99l-74 21q-97 28 -134 83q-29 43 -29 100q0 91 65.5 148t169.5 57q125 0 219 -66l-52 -81q-89 53 -163 53q-51 0 -82 -25.5t-31 -68.5q0 -32 20.5 -50.5t71.5 -33.5
l82 -24q79 -23 124.5 -72t45.5 -122z" />
    <glyph glyph-name="T" unicode="T" horiz-adv-x="474" 
d="M494 692l-15 -96h-174v-596h-115v596h-175v96h479z" />
    <glyph glyph-name="U" unicode="U" horiz-adv-x="629" 
d="M554 196q0 -96 -63.5 -151t-176.5 -55q-127 0 -183 56.5t-56 148.5v497h115v-463q0 -78 29 -109.5t94 -31.5q126 0 126 141v463h115v-496z" />
    <glyph glyph-name="V" unicode="V" horiz-adv-x="558" 
d="M568 692l-238 -695h-107l-233 695h126l125 -392q24 -74 36 -139h1q19 73 41 139l129 392h120z" />
    <glyph glyph-name="W" unicode="W" horiz-adv-x="816" 
d="M811 692l-164 -696h-132l-71 321q-23 104 -34 200h-2q-13 -84 -36 -197l-67 -324h-135l-165 696h123l69 -322q24 -109 37 -221h2q22 129 39 213l72 330h129l72 -344q17 -83 34 -195h2q16 103 41 225l66 314h120z" />
    <glyph glyph-name="X" unicode="X" horiz-adv-x="540" 
d="M550 0h-138l-143 274l-138 -274h-141l212 371l-186 321h140l111 -214l109 214h136l-176 -313z" />
    <glyph glyph-name="Y" unicode="Y" horiz-adv-x="518" 
d="M-20 692h139l107 -223q10 -20 34 -83q19 46 38 87l106 219h134l-223 -413v-279h-115v280z" />
    <glyph glyph-name="Z" unicode="Z" horiz-adv-x="531" 
d="M491 94l-29 -94h-422v84l270 449q19 33 46 69q-33 -4 -75 -4h-228l26 94h406v-87l-269 -454q-14 -25 -40 -59q30 2 69 2h246z" />
    <glyph glyph-name="bracketleft" unicode="[" horiz-adv-x="289" 
d="M269 -155h-189v888h189v-76h-91v-738h91v-74z" />
    <glyph glyph-name="backslash" unicode="\" horiz-adv-x="410" 
d="M400 -19l-92 -30l-298 776l91 31z" />
    <glyph glyph-name="bracketright" unicode="]" horiz-adv-x="289" 
d="M209 -155h-189v74h91v738h-91v76h189v-888z" />
    <glyph glyph-name="asciicircum" unicode="^" horiz-adv-x="600" 
d="M550 318h-112l-138 286l-138 -286h-112l194 390h112z" />
    <glyph glyph-name="underscore" unicode="_" horiz-adv-x="500" 
d="M500 -125h-500v50h500v-50z" />
    <glyph glyph-name="grave" unicode="`" horiz-adv-x="314" 
d="M284 623l-34 -63l-220 102l50 93z" />
    <glyph glyph-name="a" unicode="a" horiz-adv-x="515" 
d="M478 49l-57 -70q-51 20 -69 68q-53 -60 -139 -60q-84 0 -126 40.5t-42 109.5q0 87 64 131.5t186 44.5h34v27q0 48 -14 68.5t-56 20.5q-32 0 -70 -14.5t-59 -28.5l-22 -15l-49 79q109 69 215 69q120 0 154 -84q9 -23 8 -124l-2 -145q-1 -52 7 -74.5t37 -42.5zM327 238
q-12 1 -20 1q-80 0 -111.5 -23t-31.5 -73q0 -36 18.5 -56t51.5 -20q56 0 91 51z" />
    <glyph glyph-name="b" unicode="b" horiz-adv-x="557" 
d="M507 262q0 -122 -56.5 -197.5t-145.5 -75.5q-76 0 -123 58q-7 -34 -14 -47h-101q13 33 13 113v477q0 82 -13 122l114 25q8 -48 8 -101v-117l-3 -48l4 -1q50 49 120 49q91 0 144 -69.5t53 -187.5zM385 260q0 78 -21 122t-76 44q-58 0 -99 -51v-249q42 -44 97 -44
q52 0 75.5 41.5t23.5 136.5z" />
    <glyph glyph-name="c" unicode="c" horiz-adv-x="457" 
d="M427 54q-67 -67 -162 -67q-103 0 -159 68.5t-56 191.5q0 130 65.5 201t157.5 71q81 0 140 -55l-55 -73q-43 39 -85 39q-55 0 -80 -51q-21 -43 -21 -141q0 -101 34 -138q26 -29 67 -29q52 0 102 50z" />
    <glyph glyph-name="d" unicode="d" horiz-adv-x="555" 
d="M491 0h-101q-8 18 -9 39q-50 -50 -124 -50q-84 0 -136 52q-71 69 -71 210q0 140 78 216q56 53 134 53q65 0 106 -46l2 1q-4 26 -4 82v180l109 -17v-544q0 -130 16 -176zM366 130v256q-38 41 -92 41q-39 0 -63 -24q-39 -39 -39 -153q0 -109 34 -143q25 -25 67 -25
q62 0 93 48z" />
    <glyph glyph-name="e" unicode="e" horiz-adv-x="513" 
d="M473 224h-302v-9q0 -62 28.5 -103t96.5 -41t126 50l43 -67q-79 -67 -182 -67q-107 0 -170 72t-63 194q0 126 63 198q59 68 155 68q82 0 139 -52q66 -60 66 -220v-23zM359 306q0 61 -24.5 96t-66.5 35q-46 0 -71 -34.5t-25 -96.5h187z" />
    <glyph glyph-name="f" unicode="f" horiz-adv-x="307" 
d="M347 706l-36 -71q-35 18 -59 18q-27 0 -45 -16q-19 -19 -19 -62v-69h132l-28 -76h-103v-430h-109v430h-47v76h46q-2 30 -2 49q0 96 41 138t116 42q61 0 113 -29z" />
    <glyph glyph-name="g" unicode="g" horiz-adv-x="536" 
d="M500 528l51 -70q-38 -33 -88 -33q-19 0 -39 6v1q33 -38 33 -89q0 -61 -41 -102q-56 -56 -151 -54l-5 -2q-5 -2 -10.5 -4.5t-13 -6t-14.5 -7.5q-25 -15 -25 -28q0 -8 5 -13q6 -6 45 -7l52 -1q34 -1 54.5 -3t50.5 -13t50 -31q37 -37 37 -97q0 -65 -42 -107
q-59 -59 -185 -59q-135 0 -191 56q-33 33 -33 82q0 27 10 54h97q-2 -12 -2 -25q0 -38 21 -58q27 -26 90 -26q72 0 103 33q18 19 18 46t-17 44q-21 19 -72 24q-32 2 -47 2q-42 0 -63 2q-63 5 -89 27q-18 17 -18 46q0 31 20 51q22 22 76 38q-38 10 -76 42q-39 39 -39 102
q0 66 42 111q55 60 159 60q42 0 101 -16q40 -10 56 -10q50 0 90 35zM340 349q0 43 -22 65t-65 22q-42 0 -65 -23q-22 -23 -22 -65q0 -43 23 -65q22 -21 64 -21q43 0 65 22t22 65z" />
    <glyph glyph-name="h" unicode="h" horiz-adv-x="564" 
d="M484 0h-109v345q0 45 -15.5 63t-48.5 18q-62 0 -122 -62v-364h-109v602q0 67 -10 110l111 24q10 -41 10 -119v-107l-2 -57q73 66 155 66q43 0 76 -18t47 -44q17 -33 17 -99v-358z" />
    <glyph glyph-name="i" unicode="i" 
d="M209 654q0 -30 -21.5 -51.5t-52.5 -21.5q-30 0 -50.5 21.5t-20.5 51.5q0 31 21 52.5t52 21.5q30 0 51 -21.5t21 -52.5zM190 0h-109v498l109 20v-518z" />
    <glyph glyph-name="j" unicode="j" 
d="M208 656q0 -31 -21.5 -53t-52.5 -22q-30 0 -51 21t-21 52q0 30 21.5 52t51.5 22t51.5 -21.5t21.5 -50.5zM189 12q0 -105 -37 -152q-37 -46 -95 -72l-45 64q39 27 53.5 61.5t14.5 97.5v487l109 20v-506z" />
    <glyph glyph-name="k" unicode="k" horiz-adv-x="511" 
d="M521 0h-133l-191 286l150 220h133l-173 -214zM189 0h-109v589q0 68 -11 122l110 27q10 -53 10 -134v-604z" />
    <glyph glyph-name="l" unicode="l" horiz-adv-x="272" 
d="M257 1q-30 -12 -66 -12q-32 0 -54 11.5t-33 25.5t-17 37.5t-6.5 36.5t-0.5 32v431q0 88 -10 148l110 25q9 -35 9 -139v-429q0 -74 11 -91q12 -18 39 -8z" />
    <glyph glyph-name="m" unicode="m" horiz-adv-x="798" 
d="M717 0h-109v350q0 44 -11 60t-41 16q-43 0 -105 -58v-368h-105v348q0 44 -11.5 61t-41.5 17q-50 0 -104 -50v-376h-109v363q0 87 -18 128l100 28q15 -24 18 -64q62 64 134 64q75 0 121 -74q73 74 150 74q132 0 132 -148v-371z" />
    <glyph glyph-name="n" unicode="n" horiz-adv-x="546" 
d="M466 0h-109v338q0 51 -12.5 69.5t-44.5 18.5q-24 0 -55 -16t-56 -41v-369h-109v372q0 71 -19 120l100 28q18 -34 18 -71q82 70 155 70q60 0 96 -36t36 -104v-379z" />
    <glyph glyph-name="o" unicode="o" horiz-adv-x="537" 
d="M492 252q0 -123 -60.5 -194t-163.5 -71t-163 72t-60 194q0 121 60 193.5t161 72.5q106 0 166 -72.5t60 -194.5zM370 251q0 102 -26.5 144t-77.5 42q-52 0 -75.5 -42t-23.5 -134q0 -107 25 -149.5t77 -42.5q101 0 101 182z" />
    <glyph glyph-name="p" unicode="p" horiz-adv-x="550" 
d="M70 501l101 18q8 -34 8 -60q51 60 135 60q74 0 123 -49q68 -68 68 -211q0 -152 -73 -223q-51 -49 -130 -49q-65 0 -119 42q3 -34 3 -69v-148l-106 -27v590q0 82 -10 126zM186 374v-249q47 -45 101 -45q34 0 56 21q44 40 44 152q0 114 -35 150q-22 23 -57 23
q-59 0 -109 -52z" />
    <glyph glyph-name="q" unicode="q" horiz-adv-x="555" 
d="M487 506q-12 -47 -12 -144v-551l-106 -27v187l2 67q-51 -51 -119 -51q-87 0 -144.5 65.5t-57.5 188.5q0 131 54 204.5t150 73.5q40 0 75 -16.5t54 -45.5q1 29 9 49h95zM369 135v241q-37 50 -98 50q-103 0 -103 -165q0 -101 27 -141t79 -40q28 0 53.5 15.5t41.5 39.5z" />
    <glyph glyph-name="r" unicode="r" horiz-adv-x="340" 
d="M350 512l-34 -102q-19 7 -32 7q-34 0 -60.5 -22t-34.5 -53v-342h-109v357q0 85 -18 136l101 26q19 -36 19 -80q59 81 129 81q22 0 39 -8z" />
    <glyph glyph-name="s" unicode="s" horiz-adv-x="474" 
d="M434 158q0 -77 -57 -124.5t-148 -47.5q-93 0 -194 56l39 79q92 -53 164 -53q36 0 59 20t23 51q0 29 -19.5 45.5t-62.5 25.5l-61 13q-57 12 -89 49t-32 90q0 71 52 114t136 43q85 0 167 -44l-36 -76q-69 38 -124 38q-36 0 -56.5 -16t-20.5 -45q0 -24 15 -37.5t53 -23.5
l63 -16q129 -33 129 -141z" />
    <glyph glyph-name="t" unicode="t" horiz-adv-x="331" 
d="M311 9q-48 -22 -99 -22q-69 0 -100.5 35.5t-31.5 94.5v313h-56v76h56q0 87 5 125l113 27q-9 -74 -9 -152h121l-29 -76h-92v-284q0 -47 13 -64t49 -17q19 0 46 10z" />
    <glyph glyph-name="u" unicode="u" horiz-adv-x="542" 
d="M493 36l-76 -52q-32 23 -44 65q-55 -62 -144 -62q-84 0 -126 50q-28 34 -28 120v341l109 20v-339q0 -54 14 -81.5t57 -27.5q27 0 56 19.5t42 46.5v362l109 20v-381q0 -34 8 -59t16 -34z" />
    <glyph glyph-name="v" unicode="v" horiz-adv-x="473" 
d="M468 506l-184 -508h-97l-182 504l113 16l88 -273q16 -51 31 -113h1q12 58 31 117l84 257h115z" />
    <glyph glyph-name="w" unicode="w" horiz-adv-x="698" 
d="M688 506l-143 -508h-103l-62 233q-11 41 -33 138h-1q-15 -72 -34 -143l-61 -228h-103l-138 501l109 15l55 -245q15 -65 25 -133h2q12 64 31 136l65 234h108l57 -228q17 -66 33 -144h1q13 77 26 136l52 236h114z" />
    <glyph glyph-name="x" unicode="x" horiz-adv-x="477" 
d="M487 0h-138q-48 77 -110 189q-14 -28 -54.5 -97.5t-55.5 -91.5h-139l188 274l-146 217l119 24q53 -87 92 -164q11 27 40 83.5t40 71.5h128l-149 -230z" />
    <glyph glyph-name="y" unicode="y" horiz-adv-x="483" 
d="M360 506h118l-187 -540q-28 -81 -69 -125q-37 -38 -120 -57l-36 71q57 15 84 44q34 34 53 101h-35q-16 58 -43 143l-120 355l112 19l93 -308q14 -46 27 -113h2q15 62 37 136z" />
    <glyph glyph-name="z" unicode="z" horiz-adv-x="459" 
d="M424 78l-32 -78h-357v73l254 355h-234v78h358v-78l-240 -350h251z" />
    <glyph glyph-name="braceleft" unicode="{" horiz-adv-x="348" 
d="M328 -155h-90q-50 0 -84 35t-34 102v174q0 30 -19 51t-40 28t-41 8v91q33 1 66.5 23t33.5 65v175q0 66 33.5 101t84.5 35h90v-91h-49q-37 0 -49 -19.5t-12 -51.5v-168q0 -100 -93 -113v-4q93 -10 93 -111v-168q0 -72 61 -72h49v-90z" />
    <glyph glyph-name="bar" unicode="|" horiz-adv-x="260" 
d="M180 -207h-100v964h100v-964z" />
    <glyph glyph-name="braceright" unicode="}" horiz-adv-x="348" 
d="M328 243q-35 -1 -67.5 -22t-32.5 -65v-175q0 -67 -33.5 -101.5t-84.5 -34.5h-90v90h48q62 0 62 72v167q0 102 94 112v5q-94 10 -94 111v169q0 32 -12 51.5t-50 19.5h-48v91h91q49 0 83 -35t34 -102v-174q0 -43 33 -65t67 -23v-91z" />
    <glyph glyph-name="asciitilde" unicode="~" horiz-adv-x="556" 
d="M506 305q-49 -88 -123 -88q-33 0 -107 33q-4 2 -18 8.5t-19.5 9t-17.5 7.5t-19 6.5t-16 3.5t-17 2q-19 0 -36.5 -11t-27.5 -23.5t-23 -33.5l-32 84q50 87 123 87q37 0 107 -32q8 -4 26.5 -12.5t29 -13t25 -8.5t26.5 -4q19 0 36.5 12t26.5 23t24 33z" />
    <glyph glyph-name="sterling" unicode="&#xa3;" horiz-adv-x="582" 
d="M562 656l-81 -87q-47 45 -97 45q-122 0 -122 -146v-62h158v-86h-158v-223h250v-97h-472v97h100v223h-96v86h96v77q0 105 63 171t170 66q120 0 189 -64z" />
    <glyph glyph-name="currency" unicode="&#xa4;" horiz-adv-x="627" 
d="M91 702l100 -99q52 38 119 38q68 0 121 -38l99 99l51 -52l-99 -100q37 -52 37 -118q0 -65 -37 -118l99 -100l-51 -51l-99 99q-52 -38 -120 -38q-69 0 -120 38l-100 -99l-51 51l99 100q-37 52 -37 118t37 118l-99 100zM311 567q-55 0 -95 -40t-40 -95q0 -56 39.5 -95
t95.5 -39t95.5 39.5t39.5 94.5t-40 95t-95 40z" />
    <glyph glyph-name="section" unicode="&#xa7;" horiz-adv-x="552" 
d="M512 282q0 -42 -24 -76.5t-63 -54.5q62 -46 62 -122q0 -45 -20.5 -80t-54.5 -55.5t-73.5 -31t-80.5 -10.5q-161 0 -218 123l106 51q11 -37 43.5 -56t73.5 -19q37 0 65 17t28 52q0 17 -8.5 30.5t-28 25.5t-33.5 18.5t-43 18.5q-74 31 -120 62q-67 47 -67 123q0 93 95 146
q-71 45 -71 117q0 79 62 122.5t143 43.5q66 0 122 -24t82 -77l-104 -59q-12 29 -38.5 45t-58.5 16q-34 0 -58 -17.5t-24 -49.5q0 -41 54 -69q11 -5 52 -23t49 -22q34 -16 55.5 -28.5t46.5 -32.5t37 -46t12 -58zM398 260q0 50 -79 87l-95 45q-55 -26 -55 -70q0 -19 6.5 -33
t21 -25t24.5 -16.5t30 -14.5l99 -46q48 24 48 73z" />
    <glyph glyph-name="dieresis" unicode="&#xa8;" horiz-adv-x="444" 
d="M394 630q0 -29 -20 -49.5t-48 -20.5t-47.5 20.5t-19.5 49.5t20 49.5t48 20.5q27 0 47 -20.5t20 -49.5zM184 630q0 -29 -19.5 -49.5t-47.5 -20.5t-47.5 20.5t-19.5 49.5t19.5 49.5t47.5 20.5t47.5 -20.5t19.5 -49.5z" />
    <glyph glyph-name="copyright" unicode="&#xa9;" horiz-adv-x="840" 
d="M790 355q0 -155 -108.5 -263.5t-261.5 -108.5t-261.5 108.5t-108.5 263.5t108.5 263.5t261.5 108.5t261.5 -108.5t108.5 -263.5zM706 355q0 124 -83.5 211t-202.5 87t-202 -87t-83 -211q0 -125 83.5 -212.5t201.5 -87.5q119 0 202.5 88t83.5 212zM546 179
q-48 -39 -116 -39q-85 0 -136 58q-50 58 -50 149q0 77 28 130q24 46 66.5 71.5t93.5 25.5q65 0 105 -33l-38 -57q-32 23 -66 23q-46 0 -71 -36q-23 -35 -23 -107q0 -82 17 -112q26 -47 80 -47q38 0 72 27z" />
    <glyph glyph-name="guillemotleft" unicode="&#xab;" horiz-adv-x="507" 
d="M477 70l-74 -50l-152 226l152 227l74 -50l-116 -177zM255 70l-74 -50l-151 226l151 227l74 -50l-115 -177z" />
    <glyph glyph-name="logicalnot" unicode="&#xac;" horiz-adv-x="525" 
d="M475 66h-107v140h-318v93h425v-233z" />
    <glyph glyph-name="registered" unicode="&#xae;" horiz-adv-x="840" 
d="M790 355q0 -155 -108.5 -263.5t-261.5 -108.5t-261.5 108.5t-108.5 263.5t108.5 263.5t261.5 108.5t261.5 -108.5t108.5 -263.5zM706 355q0 124 -83.5 211t-202.5 87t-202 -87t-83 -211q0 -125 83.5 -212.5t201.5 -87.5q119 0 202.5 88t83.5 212zM592 149h-99
q-33 58 -39 69q-32 58 -45 78t-24 24q-6 3 -13 3v-174h-82v417h155q55 0 89 -33.5t34 -88.5q0 -47 -27.5 -80.5t-65.5 -34.5q11 -10 17 -18q11 -13 36 -53.5t44 -74.5zM479 442q0 39 -30 51q-18 6 -47 6h-30v-113h28q48 0 63 14q16 16 16 42z" />
    <glyph glyph-name="degree" unicode="&#xb0;" horiz-adv-x="393" 
d="M363 528q0 -79 -45 -124.5t-122 -45.5t-121.5 46t-44.5 125q0 78 45.5 124.5t119.5 46.5q79 0 123.5 -45.5t44.5 -126.5zM272 527q0 57 -18.5 83t-58.5 26q-75 0 -75 -104q0 -57 18.5 -83.5t58.5 -26.5q75 0 75 105z" />
    <glyph glyph-name="plusminus" unicode="&#xb1;" horiz-adv-x="507" 
d="M457 277h-150v-143h-107v143h-150v100h150v137h107v-137h150v-100zM455 0h-403v100h403v-100z" />
    <glyph glyph-name="acute" unicode="&#xb4;" horiz-adv-x="314" 
d="M284 662l-220 -102l-34 63l204 132z" />
    <glyph glyph-name="mu" unicode="&#xb5;" horiz-adv-x="546" 
d="M497 37l-76 -51q-32 24 -44 63q-55 -63 -144 -63q-29 0 -46 17q3 -30 3 -45v-146l-110 -27v714l108 21v-349q0 -57 18 -77q20 -22 53 -22q30 0 59 18.5t41 45.5v360l107 22v-384q0 -32 8 -56t16 -32z" />
    <glyph glyph-name="mu" unicode="&#x3bc;" horiz-adv-x="546" 
d="M497 37l-76 -51q-32 24 -44 63q-55 -63 -144 -63q-29 0 -46 17q3 -30 3 -45v-146l-110 -27v714l108 21v-349q0 -57 18 -77q20 -22 53 -22q30 0 59 18.5t41 45.5v360l107 22v-384q0 -32 8 -56t16 -32z" />
    <glyph glyph-name="paragraph" unicode="&#xb6;" horiz-adv-x="597" 
d="M517 -125h-79v767h-115v-767h-80v458q-95 0 -154 51.5t-59 130.5q0 96 61 145t168 49h258v-834z" />
    <glyph glyph-name="guillemotright" unicode="&#xbb;" horiz-adv-x="508" 
d="M478 246l-152 -226l-74 50l116 176l-116 177l74 50zM256 246l-151 -226l-75 50l117 176l-117 177l75 50z" />
    <glyph glyph-name="divide" unicode="&#xf7;" horiz-adv-x="605" 
d="M378 472q0 -33 -23 -55.5t-55 -22.5t-54 22t-22 54q0 33 22.5 56t54.5 24q32 0 54.5 -23t22.5 -55zM555 220h-505v93h505v-93zM377 63q0 -32 -23 -54.5t-55 -22.5t-54 22.5t-22 54.5q0 33 22.5 57t55.5 23q31 0 53.5 -23.5t22.5 -56.5z" />
    <glyph glyph-name="dotlessi" unicode="&#x131;" 
d="M191 0h-111v498l111 20v-518z" />
    <glyph glyph-name="florin" unicode="&#x192;" horiz-adv-x="319" 
d="M369 707l-35 -70q-34 18 -57 18q-28 0 -45.5 -18.5t-19.5 -52.5l-5 -78h123l-29 -78h-98l-26 -387q-7 -115 -30.5 -157t-105.5 -95l-51 75q51 38 65.5 66.5t18.5 92.5l26 405h-43v78h51l4 76q4 78 47.5 116.5t106.5 37.5q59 -1 103 -29z" />
    <glyph glyph-name="dotaccent" unicode="&#x2d9;" horiz-adv-x="206" 
d="M176 653q0 -31 -21.5 -53t-52.5 -22q-30 0 -51 22t-21 53t21.5 53t51.5 22t51.5 -22t21.5 -53z" />
    <glyph glyph-name="Delta" unicode="&#x394;" horiz-adv-x="614" 
d="M160 65h292l-149 416zM349 588l225 -588h-534l221 588h88z" />
    <glyph glyph-name="Delta" unicode="&#x2206;" horiz-adv-x="614" 
d="M160 65h292l-149 416zM349 588l225 -588h-534l221 588h88z" />
    <glyph glyph-name="afii10023" unicode="&#x401;" horiz-adv-x="499" 
d="M445 807q0 -28 -20 -48.5t-47 -20.5t-46.5 20.5t-19.5 48.5t19.5 48t47.5 20q27 0 46.5 -20t19.5 -48zM232 807q0 -28 -19.5 -48.5t-46.5 -20.5t-46.5 20.5t-19.5 48.5t19.5 48t46.5 20t46.5 -20t19.5 -48zM474 0h-394v692h384l-15 -94h-254v-189h213v-94h-211v-217h277
v-98z" />
    <glyph glyph-name="afii10051" unicode="&#x402;" horiz-adv-x="659" 
d="M470 692l-14 -96h-186v-192q71 33 135 33q82 0 132 -46q62 -58 62 -178q0 -115 -55 -175q-46 -50 -121 -50q-47 0 -100 22l20 83q29 -18 64 -18q34 0 51 24q19 28 19 111q0 78 -23 106q-25 31 -77 31q-53 0 -107 -27v-320h-115v596h-165v96h480z" />
    <glyph glyph-name="afii10052" unicode="&#x403;" horiz-adv-x="471" 
d="M456 692l-14 -94h-247v-598h-115v692h376zM399 822l-220 -102l-34 63l204 132z" />
    <glyph glyph-name="afii10053" unicode="&#x404;" horiz-adv-x="571" 
d="M382 403v-90h-224v-9q0 -128 45 -179q40 -45 120 -45q86 0 149 54l49 -74q-35 -31 -84 -49q-57 -21 -120 -21q-132 0 -206 78q-81 86 -81 265q0 198 95 292q79 77 201 77q106 0 185 -57l-51 -78q-56 45 -135 45q-73 0 -115 -42q-50 -50 -50 -158v-9h222z" />
    <glyph glyph-name="afii10054" unicode="&#x405;" horiz-adv-x="587" 
d="M542 212q0 -92 -72 -157t-198 -65q-124 0 -227 62l44 89q98 -57 187 -57q64 0 100 29t36 81q0 70 -103 99l-74 21q-97 28 -134 83q-29 43 -29 100q0 91 65.5 148t169.5 57q125 0 219 -66l-52 -81q-89 53 -163 53q-51 0 -82 -25.5t-31 -68.5q0 -32 20.5 -50.5t71.5 -33.5
l82 -24q79 -23 124.5 -72t45.5 -122z" />
    <glyph glyph-name="afii10055" unicode="&#x406;" horiz-adv-x="278" 
d="M198 0h-118v692h118v-692z" />
    <glyph glyph-name="afii10056" unicode="&#x407;" horiz-adv-x="278" 
d="M198 0h-118v692h118v-692zM269 808q0 -29 -17 -49.5t-41 -20.5q-23 0 -40.5 21t-17.5 49q0 29 17.5 49.5t41.5 20.5q23 0 40 -20.5t17 -49.5zM124 808q0 -28 -17.5 -49t-40.5 -21t-40 20.5t-17 49.5t17 49.5t40 20.5t40.5 -20.5t17.5 -49.5z" />
    <glyph glyph-name="afii10057" unicode="&#x408;" horiz-adv-x="283" 
d="M203 128q0 -83 -9 -122t-32 -71q-41 -57 -117 -85l-54 61q59 32 81 78q16 33 16 129v574h115v-564z" />
    <glyph glyph-name="afii10058" unicode="&#x409;" horiz-adv-x="901" 
d="M399 0v598h-147l-5 -112q-6 -154 -24 -287q-15 -110 -59 -154q-41 -40 -122 -50l-31 -4l-21 81l20 5q38 10 61 32q20 19 32 51.5t15 55.5t9 77q13 134 17 286l3 113h367v-278h96q118 0 177 -46q74 -58 74 -162q0 -88 -53 -141q-65 -65 -208 -65h-201zM514 94h75
q80 0 113 32q31 31 31 82t-30 81q-31 31 -98 31h-91v-226z" />
    <glyph glyph-name="afii10059" unicode="&#x40a;" horiz-adv-x="933" 
d="M431 0v320h-236v-320h-115v692h115v-278h236v278h115v-278h96q118 0 177 -46q74 -58 74 -162q0 -88 -53 -141q-65 -65 -208 -65h-201zM546 94h75q80 0 113 32q31 31 31 82t-30 81q-31 31 -98 31h-91v-226z" />
    <glyph glyph-name="afii10060" unicode="&#x40b;" horiz-adv-x="653" 
d="M471 692l-15 -96h-186v-193q73 34 143 34q86 0 135 -45q45 -43 45 -120v-272h-115v241q0 55 -25 81q-23 25 -71 25q-51 0 -112 -27v-320h-115v596h-165v96h481z" />
    <glyph glyph-name="afii10061" unicode="&#x40c;" horiz-adv-x="610" 
d="M555 701l22 -79l-32 -8q-29 -7 -39 -17q-13 -13 -21 -45l-18 -72q-14 -59 -41 -84q-21 -19 -49 -28v-2q26 -9 43 -25q30 -28 44 -79l31 -111q10 -38 23 -49q13 -13 42 -21l30 -9l-21 -81l-38 4q-77 7 -110 39q-5 5 -9 10.5t-7 10t-5.5 12t-4 11t-4 12.5t-3 11t-2.5 12
t-2 11l-23 106q-12 50 -32 68q-23 21 -68 21h-66v-319h-115v692h115v-279h76q47 0 70 22q16 16 28 65l19 84q12 55 37 79q11 11 26 17.5t25.5 8.5t37.5 6zM459 822l-220 -102l-34 63l204 132z" />
    <glyph glyph-name="afii10062" unicode="&#x40e;" horiz-adv-x="519" 
d="M427 855q-14 -19 -34.5 -41t-60 -48.5t-73.5 -26.5t-74 26.5t-60 48.5t-34 41l33 43q71 -67 139 -67q59 0 134 67zM118 692l112 -294q28 -74 41 -124q13 53 44 143l93 275h121l-188 -523q-40 -113 -72 -143q-39 -36 -120 -48l-29 -4l-21 84l19 5q53 15 76 39q20 21 37 72
l11 32l-56 -7l-196 493h128z" />
    <glyph glyph-name="afii10145" unicode="&#x40f;" horiz-adv-x="615" 
d="M80 692h115v-598h225v598h115v-692h-173v-176h-108v176h-174v692z" />
    <glyph glyph-name="afii10017" unicode="&#x410;" horiz-adv-x="577" 
d="M579 0h-126l-56 182h-224l-56 -182h-119l227 692h133zM201 278h170q-52 173 -82 300q-31 -113 -88 -300z" />
    <glyph glyph-name="afii10018" unicode="&#x411;" horiz-adv-x="599" 
d="M80 692h416l-15 -94h-286v-184h96q39 0 64 -2t67.5 -16t70.5 -42q56 -55 56 -152q0 -88 -49 -138q-62 -64 -214 -64h-206v692zM195 94h98q65 0 98 31q30 29 30 83t-30 82q-31 30 -98 30h-98v-226z" />
    <glyph glyph-name="afii10019" unicode="&#x412;" horiz-adv-x="601" 
d="M551 196q0 -196 -270 -196h-201v692h183q77 0 113.5 -7t68.5 -27q78 -50 78 -136q0 -56 -31 -95.5t-88 -55.5q79 -19 113 -67t34 -108zM402 503q0 30 -15.5 54t-40.5 33q-22 8 -65 8h-86v-190h95q34 0 51.5 5t33.5 21q27 28 27 69zM423 206q0 37 -18 65.5t-47 36.5
q-20 6 -64 6h-99v-220h102q63 0 94.5 31t31.5 81z" />
    <glyph glyph-name="afii10020" unicode="&#x413;" horiz-adv-x="471" 
d="M456 692l-14 -94h-247v-598h-115v692h376z" />
    <glyph glyph-name="afii10021" unicode="&#x414;" horiz-adv-x="636" 
d="M540 692v-600h71v-266h-108v174h-390v-174h-108v266h45q61 120 89 254q22 103 29 267l3 79h369zM267 600l-5 -80q-8 -128 -30 -221q-26 -108 -78 -207h271v508h-158z" />
    <glyph glyph-name="afii10022" unicode="&#x415;" horiz-adv-x="499" 
d="M474 0h-394v692h384l-15 -94h-252v-189h211v-94h-211v-217h277v-98z" />
    <glyph glyph-name="afii10024" unicode="&#x416;" horiz-adv-x="891" 
d="M840 702l23 -79l-33 -8q-23 -5 -38 -19q-11 -11 -21 -45l-21 -78q-16 -55 -39 -78q-18 -18 -46 -28v-2q25 -9 43 -26q27 -26 42 -77l30 -107q10 -39 25 -54t52 -24l19 -5l-21 -81l-46 5q-70 7 -98 35t-41 93l-21 99q-11 56 -31 75q-22 21 -71 21h-44v-319h-115v319h-44
q-49 0 -71 -21q-20 -19 -31 -75l-21 -99q-13 -65 -41 -93t-98 -35l-46 -5l-21 81l19 5q37 9 52 24t25 54l30 107q15 51 42 77q17 17 43 26v2q-28 10 -46 28q-23 23 -39 78l-21 78q-10 34 -21 45q-15 14 -38 19l-33 8l23 79l38 -6q3 -1 14.5 -2.5t15.5 -2.5t13.5 -3t14 -4
t12 -5.5t13 -7.5t11.5 -10q22 -20 32 -68l21 -93q12 -49 30 -66q23 -21 64 -21h58v279h115v-279h58q41 0 64 21q18 17 30 66l21 93q10 48 32 68q6 6 11.5 10t13 7.5t12 5.5t14 4t13.5 3t15.5 2.5t14.5 2.5z" />
    <glyph glyph-name="afii10025" unicode="&#x417;" horiz-adv-x="552" 
d="M224 313h-63v88h70q57 0 88 27q31 28 31 80q0 47 -29 74q-30 30 -89 30q-43 0 -77 -15q-28 -12 -51 -31l-54 76q39 27 85 43q51 17 116 17q96 0 153 -41q71 -52 71 -143q0 -69 -44 -112q-29 -29 -72 -42q61 -11 98 -48q45 -45 45 -117q0 -84 -57 -141q-67 -68 -200 -68
q-78 0 -137 22q-35 13 -78 42l53 78q69 -52 156 -52q65 0 98 32t33 90q0 52 -31 81q-33 30 -115 30z" />
    <glyph glyph-name="afii10026" unicode="&#x418;" horiz-adv-x="645" 
d="M565 0h-115v397q0 58 6 140q-20 -58 -50 -120l-207 -417h-119v692h115v-401q0 -53 -7 -132q19 57 53 126l200 407h124v-692z" />
    <glyph glyph-name="afii10027" unicode="&#x419;" horiz-adv-x="645" 
d="M565 0h-115v397q0 58 6 140q-20 -58 -50 -120l-207 -417h-119v692h115v-401q0 -53 -7 -132q19 57 53 126l200 407h124v-692zM422 873l57 -32q-12 -33 -36 -59q-42 -44 -119 -44t-122 47q-21 21 -35 56l57 31q13 -25 39 -41q24 -15 60 -15t60 15q25 15 39 42z" />
    <glyph glyph-name="afii10028" unicode="&#x41a;" horiz-adv-x="610" 
d="M555 701l22 -79l-32 -8q-29 -7 -39 -17q-13 -13 -21 -45l-18 -72q-14 -59 -41 -84q-21 -19 -49 -28v-2q26 -9 43 -25q30 -28 44 -79l31 -111q10 -38 23 -49q13 -13 42 -21l30 -9l-21 -81l-38 4q-77 7 -110 39q-5 5 -9 10.5t-7 10t-5.5 12t-4 11t-4 12.5t-3 11t-2.5 12
t-2 11l-23 106q-12 50 -32 68q-23 21 -68 21h-66v-319h-115v692h115v-279h76q47 0 70 22q16 16 28 65l19 84q12 55 37 79q11 11 26 17.5t25.5 8.5t37.5 6z" />
    <glyph glyph-name="afii10029" unicode="&#x41b;" horiz-adv-x="594" 
d="M252 598l-5 -112q-6 -154 -24 -287q-15 -110 -59 -154q-41 -40 -122 -50l-31 -4l-21 81l20 5q38 10 61 32q20 19 32 51.5t15 55.5t9 77q13 134 17 286l3 113h367v-692h-115v598h-147z" />
    <glyph glyph-name="afii10030" unicode="&#x41c;" horiz-adv-x="816" 
d="M756 0h-113l-32 429q-5 73 -5 120q-16 -74 -27 -111l-126 -438h-98l-115 419q-19 66 -30 131q0 -32 -7 -132l-30 -418h-113l63 692h153l106 -392q11 -41 26 -118q7 50 25 116l109 394h153z" />
    <glyph glyph-name="afii10031" unicode="&#x41d;" horiz-adv-x="626" 
d="M546 0h-115v320h-236v-320h-115v692h115v-278h236v278h115v-692z" />
    <glyph glyph-name="afii10032" unicode="&#x41e;" horiz-adv-x="678" 
d="M628 346q0 -164 -75 -260t-209 -96q-143 0 -218.5 98.5t-75.5 258.5q0 168 78.5 261.5t210.5 93.5q141 0 215 -99t74 -257zM500 340q0 135 -35.5 204.5t-123.5 69.5q-86 0 -124.5 -65.5t-38.5 -193.5q0 -138 39 -207.5t127 -69.5q79 0 117.5 62.5t38.5 199.5z" />
    <glyph glyph-name="afii10033" unicode="&#x41f;" horiz-adv-x="606" 
d="M526 0h-115v598h-216v-598h-115v692h446v-692z" />
    <glyph glyph-name="afii10034" unicode="&#x420;" horiz-adv-x="555" 
d="M535 485q0 -100 -64 -160.5t-160 -60.5h-116v-264h-115v692h184q73 0 109.5 -7.5t66.5 -25.5q95 -56 95 -174zM407 479q0 58 -28 87q-32 34 -96 34h-88v-244h88q124 0 124 123z" />
    <glyph glyph-name="afii10035" unicode="&#x421;" horiz-adv-x="567" 
d="M537 51q-80 -61 -189 -61q-136 0 -219 100q-79 96 -79 244q0 123 46 209q39 74 106.5 116.5t148.5 42.5q107 0 172 -54l-53 -75q-53 39 -118 39q-91 0 -138 -83q-36 -63 -36 -181q0 -112 27 -170q45 -98 154 -98q69 0 124 44z" />
    <glyph glyph-name="afii10036" unicode="&#x422;" horiz-adv-x="474" 
d="M494 692l-15 -96h-174v-596h-115v596h-175v96h479z" />
    <glyph glyph-name="afii10037" unicode="&#x423;" horiz-adv-x="519" 
d="M118 692l112 -294q28 -74 41 -124q13 53 44 143l93 275h121l-188 -523q-40 -113 -72 -143q-39 -36 -120 -48l-29 -4l-21 84l19 5q53 15 76 39q20 21 37 72l11 32l-56 -7l-196 493h128z" />
    <glyph glyph-name="afii10038" unicode="&#x424;" horiz-adv-x="749" 
d="M432 0h-115v106h-10q-123 0 -190 69q-67 67 -67 191q0 132 69 199q66 65 189 65h9v103h115v-103h9q123 0 189 -65q69 -67 69 -199q0 -124 -67 -191q-67 -69 -190 -69h-10v-106zM427 550v-364h13q63 0 97 35q40 41 40 140q0 114 -41 155q-34 34 -96 34h-13zM322 550h-13
q-62 0 -96 -34q-41 -41 -41 -155q0 -99 40 -140q34 -35 97 -35h13v364z" />
    <glyph glyph-name="afii10039" unicode="&#x425;" horiz-adv-x="540" 
d="M550 0h-138l-143 274l-138 -274h-141l212 371l-186 321h140l111 -214l109 214h136l-176 -313z" />
    <glyph glyph-name="afii10040" unicode="&#x426;" horiz-adv-x="631" 
d="M80 692h115v-598h225v598h115v-598h71v-270h-108v176h-418v692z" />
    <glyph glyph-name="afii10041" unicode="&#x427;" horiz-adv-x="580" 
d="M500 0h-115v297q-67 -32 -149 -32q-90 0 -138 48q-43 43 -43 122v257h115v-225q0 -60 24 -85q25 -27 79 -27q56 0 112 24v313h115v-692z" />
    <glyph glyph-name="afii10042" unicode="&#x428;" horiz-adv-x="885" 
d="M195 692v-598h190v598h115v-598h190v598h115v-692h-725v692h115z" />
    <glyph glyph-name="afii10043" unicode="&#x429;" horiz-adv-x="904" 
d="M195 692v-598h191v598h115v-598h191v598h115v-598h72v-270h-108v176h-691v692h115z" />
    <glyph glyph-name="afii10044" unicode="&#x42a;" horiz-adv-x="701" 
d="M199 0v598h-192l-7 94h314v-278h96q118 0 177 -46q74 -58 74 -162q0 -88 -53 -141q-65 -65 -208 -65h-201zM314 94h75q80 0 113 32q31 31 31 82t-30 81q-31 31 -98 31h-91v-226z" />
    <glyph glyph-name="afii10045" unicode="&#x42b;" horiz-adv-x="826" 
d="M80 692h115v-278h90q118 0 177 -46q74 -58 74 -162q0 -88 -53 -141q-65 -65 -208 -65h-195v692zM631 692h115v-692h-115v692zM195 94h75q80 0 113 32q31 29 31 84q0 51 -30 79q-32 31 -109 31h-80v-226z" />
    <glyph glyph-name="afii10046" unicode="&#x42c;" horiz-adv-x="582" 
d="M80 0v692h115v-278h96q118 0 177 -46q74 -58 74 -162q0 -88 -53 -141q-65 -65 -208 -65h-201zM195 94h75q80 0 113 32q31 31 31 82t-30 81q-31 31 -98 31h-91v-226z" />
    <glyph glyph-name="afii10047" unicode="&#x42d;" horiz-adv-x="575" 
d="M173 408h222v4q0 111 -51 161q-39 39 -112 39q-47 0 -82 -15q-31 -12 -55 -32l-48 76q36 27 76 42q49 19 111 19q120 0 197 -77q94 -95 94 -281q0 -181 -89 -272q-80 -82 -215 -82q-66 0 -121 22q-38 15 -70 42l53 80q27 -23 54 -36q38 -18 90 -18q81 0 121 47
q49 56 49 181v10h-224v90z" />
    <glyph glyph-name="afii10048" unicode="&#x42e;" horiz-adv-x="913" 
d="M195 414h111q11 136 86 214q71 74 188 74q116 0 188 -73q95 -96 95 -281q0 -187 -99 -286q-73 -72 -183 -72q-111 0 -179 67q-48 46 -72 118t-24 145h-111v-320h-115v692h115v-278zM735 346q0 178 -58 234q-36 34 -95 34t-95 -34q-58 -56 -58 -234t58 -234q36 -34 95 -34
t95 34q58 56 58 234z" />
    <glyph glyph-name="afii10049" unicode="&#x42f;" horiz-adv-x="606" 
d="M526 0h-115v294h-55q-63 0 -90 -25q-23 -21 -35 -75l-15 -72q-14 -65 -40 -91q-13 -12 -32 -20t-29 -9.5t-34 -4.5l-50 -6l-21 81l25 7q32 9 46 22q16 14 27 54l19 74q13 52 40 79q23 23 58 32v3q-61 12 -96 46q-46 46 -46 120q0 77 50 125q60 58 184 58h209v-692z
M411 600h-83q-64 0 -94 -30q-28 -26 -28 -76q0 -53 31 -81q31 -27 103 -27h71v214z" />
    <glyph glyph-name="afii10065" unicode="&#x430;" horiz-adv-x="515" 
d="M478 49l-57 -70q-51 20 -69 68q-53 -60 -139 -60q-84 0 -126 40.5t-42 109.5q0 87 64 131.5t186 44.5h34v27q0 48 -14 68.5t-56 20.5q-32 0 -70 -14.5t-59 -28.5l-22 -15l-49 79q109 69 215 69q120 0 154 -84q9 -23 8 -124l-2 -145q-1 -52 7 -74.5t37 -42.5zM327 238
q-12 1 -20 1q-80 0 -111.5 -23t-31.5 -73q0 -36 18.5 -56t51.5 -20q56 0 91 51z" />
    <glyph glyph-name="afii10066" unicode="&#x431;" horiz-adv-x="543" 
d="M441 774l40 -89q-21 -14 -57 -30q-10 -4 -59 -24l-131 -54q-77 -32 -90 -126l-4 -31l5 -1q19 34 50 56q44 31 102 31q87 0 144 -67q57 -70 57 -190t-60 -191q-62 -71 -165 -71q-102 0 -162 71q-27 32 -41.5 77.5t-17 81t-2.5 91.5q0 134 24 208q19 59 61 101
q43 41 109 69l158 67zM274 424q-51 0 -76 -42q-26 -43 -26 -136q0 -90 26 -135q25 -42 76 -42t76 42q26 43 26 135t-26 136q-25 42 -76 42z" />
    <glyph glyph-name="afii10067" unicode="&#x432;" horiz-adv-x="526" 
d="M75 506h210q91 0 131 -40q33 -33 33 -88q0 -47 -28 -78q-21 -23 -50 -32q39 -7 66 -34q34 -34 34 -88q0 -66 -41 -105q-47 -41 -129 -41h-226v506zM184 432v-133h71q46 0 67 20q18 17 18 47q0 33 -19 50q-18 16 -62 16h-75zM184 227v-153h80q50 0 72 20q20 18 20 53
q0 46 -26 65q-20 15 -66 15h-80z" />
    <glyph glyph-name="afii10068" unicode="&#x433;" horiz-adv-x="411" 
d="M184 424v-424h-109v506h316l-13 -82h-194z" />
    <glyph glyph-name="afii10069" unicode="&#x434;" horiz-adv-x="524" 
d="M504 80v-223h-102v143h-295v-143h-102v223h39q44 78 66 169q19 80 21 183l2 74h308v-426h63zM332 426h-113l-2 -47q-3 -84 -21 -159q-17 -68 -54 -140h190v346z" />
    <glyph glyph-name="afii10070" unicode="&#x435;" horiz-adv-x="513" 
d="M473 224h-302v-9q0 -62 28.5 -103t96.5 -41t126 50l43 -67q-79 -67 -182 -67q-107 0 -170 72t-63 194q0 126 63 198q59 68 155 68q82 0 139 -52q66 -60 66 -220v-23zM359 306q0 61 -24.5 96t-66.5 35q-46 0 -71 -34.5t-25 -96.5h187z" />
    <glyph glyph-name="afii10072" unicode="&#x436;" horiz-adv-x="713" 
d="M302 497l109 21v-212h39q30 0 46 16q12 12 19 46l12 56q8 39 30 61q24 24 68 27l47 4l20 -75l-26 -5q-19 -4 -28 -13q-8 -7 -15 -29l-18 -58q-10 -30 -24 -44q-15 -15 -42 -23v-2q21 -6 38 -22q17 -17 31 -57l21 -63q11 -32 20 -39q14 -12 41 -18l13 -3l-20 -75l-38 3
q-63 4 -90 30q-20 19 -31 67l-12 60q-10 45 -24 59q-16 15 -51 15h-26v-224h-109v224h-26q-35 0 -51 -15q-14 -14 -24 -59l-12 -60q-11 -48 -31 -67q-27 -26 -90 -30l-38 -3l-20 75l13 3q27 6 41 18q9 7 20 39l21 63q14 40 31 57q17 16 38 22v2q-27 8 -42 23q-14 14 -24 44
l-18 58q-7 22 -15 29q-9 9 -28 13l-26 5l20 75l47 -4q44 -3 68 -27q22 -22 30 -61l12 -56q7 -34 19 -46q16 -16 46 -16h39v191z" />
    <glyph glyph-name="afii10073" unicode="&#x437;" horiz-adv-x="448" 
d="M132 306h58q44 0 65 20q18 17 18 44q0 28 -17 44q-22 21 -65 21q-30 0 -65 -13q-20 -8 -46 -26l-44 69q35 24 70 37q45 17 105 17q92 0 139 -45q39 -37 39 -94q0 -49 -35 -83q-20 -20 -49 -29q37 -9 64 -36q34 -34 34 -85q0 -66 -45 -109q-53 -51 -154 -51q-83 0 -138 31
q-19 11 -46 32l48 71q23 -20 50 -33q35 -17 74 -17q44 0 67 21t23 55t-21 53q-24 22 -75 22h-54v84z" />
    <glyph glyph-name="afii10074" unicode="&#x438;" horiz-adv-x="560" 
d="M75 0v498l109 21v-265q0 -46 -4 -114h2q24 65 54 118l135 241l114 20v-519h-109v230q0 72 5 131h-2q-19 -54 -51 -112l-139 -249h-114z" />
    <glyph glyph-name="afii10075" unicode="&#x439;" horiz-adv-x="560" 
d="M75 0v498l109 21v-265q0 -46 -4 -114h2q24 65 54 118l135 241l114 20v-519h-109v230q0 72 5 131h-2q-19 -54 -51 -112l-139 -249h-114zM384 699l55 -31q-19 -53 -56 -77q-41 -31 -104 -31t-104 31q-37 24 -56 77l55 31q12 -17 21 -27q31 -33 86 -33q51 0 82 33
q9 10 21 27z" />
    <glyph glyph-name="afii10076" unicode="&#x43a;" horiz-adv-x="518" 
d="M75 0v497l109 21v-212h47q40 0 56 15q14 14 21 47l13 57q8 38 27 58q21 23 81 29l37 4l20 -75l-25 -5q-19 -4 -28 -12q-10 -9 -18 -34l-16 -54q-8 -29 -25 -46q-16 -16 -40 -21v-2q19 -5 37 -20q19 -19 30 -54l25 -75q8 -23 19 -34q9 -9 33 -15l20 -4l-20 -75l-34 3
q-71 6 -96 30q-21 21 -31 67l-16 71q-8 37 -23 50t-49 13h-45v-224h-109z" />
    <glyph glyph-name="afii10077" unicode="&#x43b;" horiz-adv-x="529" 
d="M137 506h317v-506h-109v424h-114l-4 -55q-4 -63 -9 -117q-10 -97 -15 -129q-9 -62 -39 -92q-32 -31 -105 -38l-27 -3l-22 75l22 5q31 8 49 26q6 6 11 14t8.5 18.5t6 19t4 23.5t2.5 23t2.5 26t2.5 26q6 59 13 165z" />
    <glyph glyph-name="afii10078" unicode="&#x43c;" horiz-adv-x="685" 
d="M100 506h134l81 -266q23 -77 26 -93q7 28 26 91l83 268h134l51 -506h-103l-25 295q-2 34 -2 85h-4q-11 -53 -20 -78l-99 -302h-87l-92 293q-16 48 -23 87h-4q0 -61 -2 -81l-23 -299h-101z" />
    <glyph glyph-name="afii10079" unicode="&#x43d;" horiz-adv-x="539" 
d="M184 228v-228h-109v497l109 21v-208h171v187l109 21v-518h-109v228h-171z" />
    <glyph glyph-name="afii10080" unicode="&#x43e;" horiz-adv-x="537" 
d="M492 252q0 -123 -60.5 -194t-163.5 -71t-163 72t-60 194q0 121 60 193.5t161 72.5q106 0 166 -72.5t60 -194.5zM370 251q0 102 -26.5 144t-77.5 42q-52 0 -75.5 -42t-23.5 -134q0 -107 25 -149.5t77 -42.5q101 0 101 182z" />
    <glyph glyph-name="afii10081" unicode="&#x43f;" horiz-adv-x="530" 
d="M184 0h-109v506h380v-506h-109v424h-162v-424z" />
    <glyph glyph-name="afii10082" unicode="&#x440;" horiz-adv-x="550" 
d="M70 501l101 18q8 -34 8 -60q51 60 135 60q74 0 123 -49q68 -68 68 -211q0 -152 -73 -223q-51 -49 -130 -49q-65 0 -119 42q3 -34 3 -69v-148l-106 -27v590q0 82 -10 126zM186 374v-249q47 -45 101 -45q34 0 56 21q44 40 44 152q0 114 -35 150q-22 23 -57 23
q-59 0 -109 -52z" />
    <glyph glyph-name="afii10083" unicode="&#x441;" horiz-adv-x="457" 
d="M427 54q-67 -67 -162 -67q-103 0 -159 68.5t-56 191.5q0 130 65.5 201t157.5 71q81 0 140 -55l-55 -73q-43 39 -85 39q-55 0 -80 -51q-21 -43 -21 -141q0 -101 34 -138q26 -29 67 -29q52 0 102 50z" />
    <glyph glyph-name="afii10084" unicode="&#x442;" horiz-adv-x="380" 
d="M240 424v-424h-109v424h-136v82h390l-14 -82h-131z" />
    <glyph glyph-name="afii10085" unicode="&#x443;" horiz-adv-x="483" 
d="M360 506h118l-187 -540q-28 -81 -69 -125q-37 -38 -120 -57l-36 71q57 15 84 44q34 34 53 101h-35q-16 58 -43 143l-120 355l112 19l93 -308q14 -46 27 -113h2q15 62 37 136z" />
    <glyph glyph-name="afii10086" unicode="&#x444;" horiz-adv-x="739" 
d="M424 737v-255q41 36 96 36q72 0 119 -59q55 -69 55 -198q0 -135 -51 -206q-49 -68 -130 -68q-53 0 -89 30v-217h-109v217q-36 -30 -89 -30q-81 0 -130 68q-51 71 -51 206q0 129 55 198q47 59 119 59q55 0 96 -36v230zM424 398v-295q30 -28 69 -28q41 0 63 34t22 152
q0 106 -24 139q-22 30 -58 30q-37 0 -72 -32zM315 103v295q-35 32 -72 32q-36 0 -58 -30q-24 -33 -24 -139q0 -118 22 -152t63 -34q39 0 69 28z" />
    <glyph glyph-name="afii10087" unicode="&#x445;" horiz-adv-x="477" 
d="M487 0h-138q-48 77 -110 189q-14 -28 -54.5 -97.5t-55.5 -91.5h-139l188 274l-146 217l119 24q53 -87 92 -164q11 27 40 83.5t40 71.5h128l-149 -230z" />
    <glyph glyph-name="afii10088" unicode="&#x446;" horiz-adv-x="538" 
d="M341 497l109 21v-436h63v-225h-102v143h-336v497l109 21v-436h157v415z" />
    <glyph glyph-name="afii10089" unicode="&#x447;" horiz-adv-x="489" 
d="M305 497l109 21v-518h-109v202q-53 -21 -104 -21q-80 0 -120 40q-36 36 -36 107v169l109 21v-178q0 -43 20 -61q18 -16 55 -16q43 0 76 17v217z" />
    <glyph glyph-name="afii10090" unicode="&#x448;" horiz-adv-x="753" 
d="M75 497l109 21v-436h138v415l109 21v-436h138v415l109 21v-518h-603v497z" />
    <glyph glyph-name="afii10091" unicode="&#x449;" horiz-adv-x="766" 
d="M75 497l109 21v-436h138v415l109 21v-436h138v415l109 21v-436h63v-225h-102v143h-564v497z" />
    <glyph glyph-name="afii10092" unicode="&#x44a;" horiz-adv-x="553" 
d="M247 319h73q109 0 157 -49q41 -42 41 -113q0 -70 -39 -111q-45 -46 -150 -46h-191v424h-129l-9 82h247v-187zM247 241v-163h63q50 0 72 22q20 20 20 58q0 41 -21 61q-23 22 -74 22h-60z" />
    <glyph glyph-name="afii10093" unicode="&#x44b;" horiz-adv-x="712" 
d="M75 497l109 21v-199h69q109 0 157 -49q41 -42 41 -113q0 -70 -39 -111q-45 -46 -150 -46h-187v497zM528 497l109 21v-518h-109v497zM184 241v-163h57q51 0 74 22q20 19 20 57q0 43 -23 64q-21 20 -71 20h-57z" />
    <glyph glyph-name="afii10094" unicode="&#x44c;" horiz-adv-x="490" 
d="M75 497l109 21v-199h73q109 0 157 -49q41 -42 41 -113q0 -70 -39 -111q-45 -46 -150 -46h-191v497zM184 241v-163h63q50 0 72 22q20 20 20 58q0 41 -21 61q-23 22 -74 22h-60z" />
    <glyph glyph-name="afii10095" unicode="&#x44d;" horiz-adv-x="467" 
d="M155 224v82h145v9q0 62 -31 95q-26 27 -72 27q-33 0 -61 -14q-21 -10 -39 -28l-53 66q27 25 66 41q40 17 93 17q93 0 147 -54q72 -71 72 -216q0 -136 -63 -202q-57 -60 -158 -60q-62 0 -109 23q-33 16 -62 45l53 65q8 -8 17.5 -15.5t15.5 -11.5l6 -4q31 -20 72 -20
q51 0 76 26q30 31 30 114v15h-145z" />
    <glyph glyph-name="afii10096" unicode="&#x44e;" horiz-adv-x="740" 
d="M184 307h81q3 94 63 156q56 56 147 56q94 0 151 -59q69 -69 69 -209q0 -141 -66 -208q-55 -56 -147 -56q-98 0 -154 58q-61 64 -64 180h-80v-225h-109v498l109 21v-212zM379 253q0 -124 35 -160q24 -24 61 -24t61 24q35 36 35 160t-35 160q-24 24 -61 24t-61 -24
q-35 -36 -35 -160z" />
    <glyph glyph-name="afii10097" unicode="&#x44f;" horiz-adv-x="514" 
d="M439 506v-506h-109v200h-46q-36 0 -53 -16q-12 -11 -22 -47l-14 -50q-13 -45 -30 -62q-26 -26 -92 -32l-39 -3l-19 75l16 4q24 6 39 18q12 11 22 40l15 45q10 30 26 44q19 19 42 23v2q-45 4 -77 36q-32 34 -32 87q0 61 39 98q46 44 147 44h187zM330 426h-63
q-46 0 -66 -19t-20 -53q0 -35 20 -54q24 -22 67 -22h62v148z" />
    <glyph glyph-name="afii10071" unicode="&#x451;" horiz-adv-x="513" 
d="M431 648q0 -28 -19 -47.5t-45 -19.5t-45 19.5t-19 47.5t19 47t46 19q26 0 44.5 -19t18.5 -47zM232 648q0 -28 -19 -47.5t-45 -19.5t-44.5 19.5t-18.5 47.5t18.5 47t44.5 19t45 -19t19 -47zM473 224h-302v-9q0 -62 28.5 -103t96.5 -41t126 50l43 -67q-79 -67 -182 -67
q-107 0 -170 72t-63 194q0 126 63 198q59 68 155 68q82 0 139 -52q66 -60 66 -220v-23zM359 306q0 61 -24.5 96t-66.5 35q-46 0 -71 -34.5t-25 -96.5h187z" />
    <glyph glyph-name="afii10099" unicode="&#x452;" horiz-adv-x="579" 
d="M204 620h182l-23 -64h-159v-58l-3 -54q70 63 158 63q68 0 105 -38q35 -37 35 -115v-286q0 -139 -46 -203q-39 -53 -98 -75l-48 64q34 21 53 51q20 29 25 57.5t5 77.5v294q0 48 -16 64t-47 16t-67 -19q-33 -17 -56 -42v-353h-109v556h-55v64h55v117l109 -17v-100z" />
    <glyph glyph-name="afii10100" unicode="&#x453;" horiz-adv-x="411" 
d="M184 424v-424h-109v506h316l-13 -82h-194zM359 662l-220 -102l-34 63l204 132z" />
    <glyph glyph-name="afii10101" unicode="&#x454;" horiz-adv-x="467" 
d="M312 219h-145v-10q0 -83 30 -114q25 -26 76 -26q41 0 72 20l6 4q6 4 15.5 11.5t17.5 15.5l53 -65q-29 -29 -62 -45q-47 -23 -109 -23q-101 0 -158 60q-63 66 -63 202q0 145 72 216q54 54 147 54q53 0 93 -17q39 -16 66 -41l-53 -66q-18 18 -39 28q-28 14 -61 14
q-46 0 -72 -27q-31 -33 -31 -95v-14h145v-82z" />
    <glyph glyph-name="afii10102" unicode="&#x455;" horiz-adv-x="474" 
d="M434 158q0 -77 -57 -124.5t-148 -47.5q-93 0 -194 56l39 79q92 -53 164 -53q36 0 59 20t23 51q0 29 -19.5 45.5t-62.5 25.5l-61 13q-57 12 -89 49t-32 90q0 71 52 114t136 43q85 0 167 -44l-36 -76q-69 38 -124 38q-36 0 -56.5 -16t-20.5 -45q0 -24 15 -37.5t53 -23.5
l63 -16q129 -33 129 -141z" />
    <glyph glyph-name="afii10103" unicode="&#x456;" 
d="M209 654q0 -30 -21.5 -51.5t-52.5 -21.5q-30 0 -50.5 21.5t-20.5 51.5q0 31 21 52.5t52 21.5q30 0 51 -21.5t21 -52.5zM190 0h-109v498l109 20v-518z" />
    <glyph glyph-name="afii10104" unicode="&#x457;" 
d="M190 0h-109v498l109 20v-518zM259 648q0 -28 -16 -47.5t-39 -19.5q-22 0 -38.5 20t-16.5 47t16.5 46.5t39.5 19.5t38.5 -19t15.5 -47zM122 648q0 -27 -16.5 -47t-38.5 -20q-23 0 -39 19.5t-16 47.5t16 47t39 19q22 0 38.5 -19.5t16.5 -46.5z" />
    <glyph glyph-name="afii10105" unicode="&#x458;" 
d="M208 656q0 -31 -21.5 -53t-52.5 -22q-30 0 -51 21t-21 52q0 30 21.5 52t51.5 22t51.5 -21.5t21.5 -50.5zM189 12q0 -105 -37 -152q-37 -46 -95 -72l-45 64q39 27 53.5 61.5t14.5 97.5v487l109 20v-506z" />
    <glyph glyph-name="afii10106" unicode="&#x459;" horiz-adv-x="760" 
d="M454 319h73q109 0 157 -49q41 -42 41 -113q0 -70 -39 -111q-45 -46 -150 -46h-191v424h-114l-4 -55q-4 -63 -9 -117q-10 -97 -15 -129q-9 -62 -39 -92q-32 -31 -105 -38l-27 -3l-22 75l22 5q31 8 49 26q6 6 11 14t8.5 18.5t6 19t4 23.5t2.5 23t2.5 26t2.5 26q6 59 13 165
l6 95h317v-187zM454 241v-163h63q50 0 72 22q20 20 20 58q0 41 -21 61q-23 22 -74 22h-60z" />
    <glyph glyph-name="afii10107" unicode="&#x45a;" horiz-adv-x="770" 
d="M355 497l109 21v-199h73q109 0 157 -49q41 -42 41 -113q0 -70 -39 -111q-45 -46 -150 -46h-191v241h-171v-241h-109v497l109 21v-199h171v178zM464 241v-163h63q50 0 72 22q20 20 20 58q0 41 -21 61q-23 22 -74 22h-60z" />
    <glyph glyph-name="afii10108" unicode="&#x45b;" horiz-adv-x="580" 
d="M500 0h-109v334q0 47 -16 64q-15 16 -45 16q-33 0 -69 -19q-31 -17 -57 -42v-353h-109v556h-55v64h55v117l109 -17v-100h182l-23 -64h-159v-58l-2 -54q27 25 69 44q45 19 87 19q68 0 106 -38q36 -36 36 -115v-354z" />
    <glyph glyph-name="afii10109" unicode="&#x45c;" horiz-adv-x="518" 
d="M75 0v497l109 21v-212h47q40 0 56 15q14 14 21 47l13 57q8 38 27 58q21 23 81 29l37 4l20 -75l-25 -5q-19 -4 -28 -12q-10 -9 -18 -34l-16 -54q-8 -29 -25 -46q-16 -16 -40 -21v-2q19 -5 37 -20q19 -19 30 -54l25 -75q8 -23 19 -34q9 -9 33 -15l20 -4l-20 -75l-34 3
q-71 6 -96 30q-21 21 -31 67l-16 71q-8 37 -23 50t-49 13h-45v-224h-109zM409 662l-220 -102l-34 63l204 132z" />
    <glyph glyph-name="afii10110" unicode="&#x45e;" horiz-adv-x="483" 
d="M361 695q-14 -19 -34.5 -41t-60 -48.5t-73.5 -26.5t-74 26.5t-60 48.5t-34 41l33 43q71 -67 139 -67q59 0 134 67zM312 506h118l-187 -540q-28 -81 -69 -125q-37 -38 -120 -57l-36 71q57 15 84 44q34 34 53 101h-35q-16 58 -43 143l-120 355l112 19l93 -308
q14 -46 27 -113h2q15 62 37 136z" />
    <glyph glyph-name="afii10193" unicode="&#x45f;" horiz-adv-x="525" 
d="M341 497l109 21v-518h-138v-149h-98v149h-139v497l109 21v-436h157v415z" />
    <glyph glyph-name="afii10050" unicode="&#x490;" horiz-adv-x="471" 
d="M195 0h-115v692h272v156h104v-250h-261v-598z" />
    <glyph glyph-name="afii10098" unicode="&#x491;" horiz-adv-x="423" 
d="M184 424v-424h-109v506h223v144h100v-226h-214z" />
    <glyph glyph-name="endash" unicode="&#x2013;" horiz-adv-x="583" 
d="M533 233h-483v87h483v-87z" />
    <glyph glyph-name="emdash" unicode="&#x2014;" horiz-adv-x="809" 
d="M759 233h-709v87h709v-87z" />
    <glyph glyph-name="quoteleft" unicode="&#x2018;" horiz-adv-x="267" 
d="M222 665q-30 -10 -49 -29.5t-19 -39.5q0 -9 10 -15.5t22.5 -12t22.5 -21.5t10 -41q0 -33 -23 -56.5t-56 -23.5q-39 0 -64.5 31t-25.5 80q0 59 36.5 108t95.5 70z" />
    <glyph glyph-name="quoteright" unicode="&#x2019;" horiz-adv-x="267" 
d="M217 597q0 -63 -39 -114q-35 -44 -92 -64l-41 49q31 10 49.5 29.5t18.5 41.5q0 11 -22 21q-43 18 -43 67q0 34 23 57t56 23q39 0 64.5 -31t25.5 -79z" />
    <glyph glyph-name="quotedblleft" unicode="&#x201c;" horiz-adv-x="481" 
d="M436 665q-30 -9 -49 -28.5t-19 -41.5q0 -3 1.5 -6t5.5 -5.5t7 -4.5t9.5 -5.5t9.5 -5.5q33 -19 33 -62q0 -33 -23.5 -56.5t-56.5 -23.5q-39 0 -64 31t-25 80q0 63 38 112q34 45 93 66zM222 665q-31 -9 -50 -28.5t-19 -41.5q0 -8 10.5 -14.5t22.5 -12.5t22.5 -22t10.5 -40
q0 -33 -23 -56.5t-57 -23.5q-39 0 -64 31t-25 80q0 61 39 112q36 46 92 66z" />
    <glyph glyph-name="quotedblright" unicode="&#x201d;" horiz-adv-x="482" 
d="M432 597q0 -63 -36.5 -110.5t-94.5 -67.5l-41 49q31 10 49.5 29.5t18.5 41.5q0 4 -7 11t-14 10q-43 18 -43 67q0 34 22.5 57t56.5 23q39 0 64 -31t25 -79zM218 597q0 -60 -36.5 -109t-95.5 -69l-41 49q31 10 50 29.5t19 41.5q0 4 -7.5 11t-14.5 10q-43 17 -43 67
q0 34 22.5 57t56.5 23q39 0 64.5 -31t25.5 -79z" />
    <glyph glyph-name="quotedblbase" unicode="&#x201e;" horiz-adv-x="482" 
d="M432 35q0 -62 -36.5 -109.5t-95.5 -69.5l-40 50q30 10 49 30t19 41q0 12 -22 21q-43 17 -43 67q0 34 23 57t56 23q39 0 64.5 -31t25.5 -79zM217 35q0 -62 -36.5 -109.5t-95.5 -69.5l-40 50q30 10 49 30t19 41q0 12 -22 21q-43 17 -43 67q0 34 23 57t56 23q39 0 64.5 -31
t25.5 -79z" />
    <glyph glyph-name="dagger" unicode="&#x2020;" horiz-adv-x="476" 
d="M451 536l-17 -97h-143v-439h-109v439h-152v97h152v156h109v-156h160z" />
    <glyph glyph-name="bullet" unicode="&#x2022;" horiz-adv-x="490" 
d="M420 355q0 -74 -51 -125.5t-124 -51.5t-124 51.5t-51 125.5t51 125.5t124 51.5t124 -51.5t51 -125.5z" />
    <glyph glyph-name="ellipsis" unicode="&#x2026;" horiz-adv-x="762" 
d="M702 67q0 -34 -23 -58t-55 -24q-33 0 -56 24t-23 58q0 33 23 56t55 23t55.5 -23t23.5 -56zM459 67q0 -34 -23 -58t-55 -24q-33 0 -55.5 24t-22.5 58q0 33 22.5 56t54.5 23q33 0 56 -23t23 -56zM217 67q0 -34 -23 -58t-55 -24q-33 0 -56 24t-23 58q0 33 22.5 56t54.5 23
q33 0 56.5 -23t23.5 -56z" />
    <glyph glyph-name="Euro" unicode="&#x20ac;" horiz-adv-x="562" 
d="M519 489v-79q-51 35 -147 35q-142 0 -165 -106h276l-29 -61h-258q-1 -6 -1 -22q0 -19 1 -25h235l-29 -62h-195q23 -109 166 -109q91 0 146 36v-80q-49 -28 -160 -28q-221 0 -259 181h-79l29 62h42q-2 12 -2 25q0 10 2 22h-71l29 61h49q41 179 260 179q104 0 160 -29z" />
    <glyph glyph-name="afii61352" unicode="&#x2116;" horiz-adv-x="978" 
d="M913 202h-271v58h271v-58zM549 0h-121l-155 325q-32 67 -56 122q-20 46 -34 83l-3 -3q6 -68 7 -184l4 -343h-111v692h130l168 -338q21 -43 44 -102q15 -38 25 -76l3 3q-3 32 -6 87q-4 54 -4 110l-2 316h111v-692zM918 528q0 -86 -42 -128q-37 -37 -98 -37q-62 0 -99 37
q-42 42 -42 128q0 84 42 127q37 37 99 37q61 0 98 -37q42 -43 42 -127zM777 634q-24 0 -37 -13q-21 -20 -21 -93q0 -74 21 -94q13 -13 37 -13q25 0 38 13q21 21 21 94q0 72 -21 93q-13 13 -38 13z" />
    <glyph glyph-name="trademark" unicode="&#x2122;" horiz-adv-x="985" 
d="M925 296h-89v301h-5l-113 -301h-58l-112 299l-5 1v-300h-89v412h127l109 -290l108 290h127v-412zM365 627h-123v-331h-89v331h-123v81h335v-81z" />
    <glyph glyph-name="radical" unicode="&#x221a;" horiz-adv-x="571" 
d="M571 718l-261 -726h-97l-149 434h-64v82h152l85 -246q11 -31 27 -86q6 20 25 76l164 466h118z" />
    <glyph glyph-name="infinity" unicode="&#x221e;" horiz-adv-x="916" 
d="M886 262q0 -85 -59.5 -131t-135.5 -46q-87 0 -167 56l-77 54l-72 -52q-81 -59 -171 -59q-32 0 -62.5 8t-60.5 26t-48.5 53t-18.5 83q0 88 59 133t138 45q87 0 174 -61l71 -49l72 53q79 58 170 58q25 0 49.5 -4.5t50 -17t44.5 -31t31.5 -49t12.5 -69.5zM771 261
q0 31 -22.5 51.5t-58.5 20.5q-50 0 -107 -41l-42 -31l60 -40q49 -33 89 -33q42 0 61.5 22t19.5 51zM360 255l-59 41q-45 32 -90 32q-42 0 -61.5 -22t-19.5 -51q0 -31 22.5 -51.5t58.5 -20.5q49 0 107 42z" />
    <glyph glyph-name="approxequal" unicode="&#x2248;" horiz-adv-x="556" 
d="M506 385q-49 -88 -123 -88q-33 0 -107 33q-4 2 -18 8.5t-19.5 9t-17.5 7.5t-19 6.5t-16 3.5t-17 2q-19 0 -36.5 -11t-27.5 -23.5t-23 -33.5l-32 84q50 87 123 87q37 0 107 -32q8 -4 26.5 -12.5t29 -13t25 -8.5t26.5 -4q19 0 36.5 12t26.5 23t24 33zM506 195
q-49 -88 -123 -88q-33 0 -107 33q-4 2 -18 8.5t-19.5 9t-17.5 7.5t-19 6.5t-16 3.5t-17 2q-19 0 -36.5 -11t-27.5 -23.5t-23 -33.5l-32 84q50 87 123 87q37 0 107 -32q8 -4 26.5 -12.5t29 -13t25 -8.5t26.5 -4q19 0 36.5 12t26.5 23t24 33z" />
    <glyph glyph-name="notequal" unicode="&#x2260;" horiz-adv-x="635" 
d="M585 344h-201l-46 -81h247v-101h-305l-63 -111h-88l63 111h-142v101h200l46 81h-246v101h304l63 111h88l-63 -111h143v-101z" />
    <glyph glyph-name="lessequal" unicode="&#x2264;" horiz-adv-x="453" 
d="M413 113l-383 144v86l383 179v-114l-227 -101l227 -83v-111zM413 0h-383v97h383v-97z" />
    <glyph glyph-name="greaterequal" unicode="&#x2265;" horiz-adv-x="453" 
d="M423 257l-383 -144v111l227 83l-227 101v114l383 -179v-86zM423 0h-383v97h383v-97z" />
    <glyph glyph-name="Acute" unicode="&#xf6c9;" horiz-adv-x="314" 
d="M284 822l-220 -102l-34 63l204 132z" />
    <glyph glyph-name="Dieresis" unicode="&#xf6cb;" horiz-adv-x="444" 
d="M394 808q0 -29 -20 -49.5t-48 -20.5t-47.5 20.5t-19.5 49.5t20 49.5t48 20.5q27 0 47 -20.5t20 -49.5zM184 808q0 -29 -19.5 -49.5t-47.5 -20.5t-47.5 20.5t-19.5 49.5t19.5 49.5t47.5 20.5t47.5 -20.5t19.5 -49.5z" />
    <glyph glyph-name="cyrBreve" unicode="&#xf6d1;" horiz-adv-x="472" 
d="M335 877l57 -32q-12 -33 -36 -59q-42 -44 -119 -44t-122 47q-21 21 -35 56l57 31q13 -25 39 -41q24 -15 60 -15t60 15q25 15 39 42z" />
    <glyph glyph-name="cyrbreve" unicode="&#xf6d4;" horiz-adv-x="470" 
d="M340 731l55 -31q-19 -53 -56 -77q-41 -31 -104 -31t-104 31q-37 24 -56 77l55 31q12 -17 21 -27q31 -33 86 -33q51 0 82 33q9 10 21 27z" />
    <glyph glyph-name="nbspace" horiz-adv-x="225" 
 />
    </font>
</defs>
</svg>
