<?xml version="1.0" standalone="no"?>
<!DOCTYPE svg PUBLIC "-//W3C//DTD SVG 1.1//EN" "http://www.w3.org/Graphics/SVG/1.1/DTD/svg11.dtd" >
<svg>
<metadata>
Created by FontForge 20110222 at Wed Oct 30 02:00:58 2013
 By Orthosie Webhosting
Copyright Erik Spiekermann, 1991, 93, 98. Published by FontShop International for  FontFont Release 23. Copyright (c) ParaType, Inc., 2000. All rights reserved. Meta is a trademark of FSI Fonts and Software GmbH.
</metadata>
<defs>
<font id="MetaBlackCRegular" horiz-adv-x="568" >
  <font-face 
    font-family="MetaBlackCRegular"
    font-weight="900"
    font-stretch="normal"
    units-per-em="1000"
    panose-1="0 0 10 0 0 0 0 0 0 0"
    ascent="760"
    descent="-240"
    x-height="516"
    cap-height="697"
    bbox="-30 -240 958 919"
    underline-thickness="50"
    underline-position="-50"
    unicode-range="U+0020-F6D4"
  />
<missing-glyph horiz-adv-x="225" 
 />
    <glyph glyph-name=".notdef" horiz-adv-x="225" 
 />
    <glyph glyph-name=".null" horiz-adv-x="0" 
 />
    <glyph glyph-name="nonmarkingreturn" horiz-adv-x="333" 
 />
    <glyph glyph-name="space" unicode=" " horiz-adv-x="225" 
 />
    <glyph glyph-name="space" unicode="&#xa0;" horiz-adv-x="225" 
 />
    <glyph glyph-name="exclam" unicode="!" horiz-adv-x="322" 
d="M262 717l-34 -512h-130l-38 483zM260 79q0 -40 -29.5 -68t-70.5 -28q-39 0 -66.5 28.5t-27.5 68.5t29 69t69 29q39 0 67.5 -29t28.5 -70z" />
    <glyph glyph-name="quotedbl" unicode="&#x22;" horiz-adv-x="492" 
d="M452 398h-162v310h162v-310zM203 398h-163v310h163v-310z" />
    <glyph glyph-name="numbersign" unicode="#" horiz-adv-x="546" 
d="M526 410h-88l-15 -111h75v-106h-88l-27 -193h-117l27 193h-81l-27 -193h-117l27 193h-75v106h88l15 111h-75v106h88l25 181h117l-24 -181h80l25 181h117l-24 -181h74v-106zM320 410h-81l-14 -111h81z" />
    <glyph glyph-name="dollar" unicode="$" horiz-adv-x="612" 
d="M328 454l71 -18q28 -7 48.5 -14t48 -22t44.5 -34t29.5 -51t12.5 -72q0 -111 -68.5 -176t-186.5 -77v-74h-106v75q-105 9 -201 60l63 140q97 -56 196 -56q98 0 98 64q0 23 -16.5 35.5t-53.5 21.5l-82 21q-170 44 -170 202q0 89 59 150t155 76v83h106v-81q121 -11 199 -66
l-86 -127q-74 49 -157 49q-33 0 -52 -14t-19 -36q0 -42 68 -59z" />
    <glyph glyph-name="percent" unicode="%" horiz-adv-x="829" 
d="M809 166q0 -80 -48.5 -129.5t-130.5 -49.5q-81 0 -128 44t-47 128q0 76 51 126t128 50q80 0 127.5 -43t47.5 -126zM705 697l-424 -697h-162l424 697h162zM374 541q0 -80 -48.5 -129.5t-130.5 -49.5q-81 0 -128 44t-47 128q0 76 51 126t128 50q80 0 127.5 -43t47.5 -126z
M671 164q0 47 -8.5 66t-30.5 19q-24 0 -31.5 -18.5t-7.5 -71.5q0 -49 8 -66.5t31 -17.5q22 0 30.5 19t8.5 70zM236 539q0 47 -8.5 66t-30.5 19q-24 0 -31.5 -18.5t-7.5 -71.5q0 -49 8 -66.5t31 -17.5q22 0 30.5 19t8.5 70z" />
    <glyph glyph-name="ampersand" unicode="&#x26;" horiz-adv-x="722" 
d="M722 0h-230l-35 36q-77 -49 -196 -49q-103 0 -167 49.5t-64 141.5q0 119 120 173q-77 49 -77 147q0 78 61 126.5t161 48.5q97 0 156.5 -46t59.5 -115q0 -55 -28.5 -93.5t-102.5 -74.5l100 -100q25 38 43 96l138 -40q-25 -87 -80 -158zM272 459l21 -25q16 10 28.5 30.5
t12.5 43.5q0 21 -10.5 34t-27.5 13q-22 0 -32.5 -14t-10.5 -33q0 -25 19 -49zM364 129l-125 127q-24 -26 -24 -60q0 -35 22 -59t62 -24q36 0 65 16z" />
    <glyph glyph-name="quotesingle" unicode="'" horiz-adv-x="242" 
d="M202 398h-162v310h162v-310z" />
    <glyph glyph-name="parenleft" unicode="(" horiz-adv-x="327" 
d="M347 -75l-44 -103q-43 13 -79.5 34t-62.5 44t-47 53.5t-34.5 58.5t-23 63t-14.5 61.5t-8 61t-3.5 55t-0.5 48.5q0 67 6.5 121.5t24 111t47 101t78 84.5t114.5 69l46 -106q-26 -20 -38.5 -30.5t-36.5 -40.5t-35.5 -63.5t-21.5 -91.5t-10 -131q0 -135 18 -217t46.5 -118.5
t78.5 -64.5z" />
    <glyph glyph-name="parenright" unicode=")" horiz-adv-x="326" 
d="M-18 685l44 104q29 -12 42 -18t41 -20.5t42 -26t37.5 -33t36 -43.5t28.5 -55t24 -70t13.5 -86t5.5 -105q0 -101 -11.5 -174t-41 -138t-83.5 -113t-136 -85l-44 107q41 31 67.5 63.5t42 63.5t23 77.5t9.5 86.5t2 111q0 146 -31 228.5t-111 125.5z" />
    <glyph glyph-name="asterisk" unicode="*" horiz-adv-x="495" 
d="M475 499l-124 -38l79 -111l-106 -76l-80 109l-78 -102l-102 77l83 103l-127 45l40 120l124 -47v131h130v-131l124 40z" />
    <glyph glyph-name="plus" unicode="+" horiz-adv-x="709" 
d="M669 262h-233v-238h-163v238h-233v158h233v234h163v-234h233v-158z" />
    <glyph glyph-name="comma" unicode="," horiz-adv-x="292" 
d="M100 -152l-70 64q33 7 52 21.5t19 30.5q0 11 -3.5 16.5t-14 13t-16.5 13.5q-28 29 -28 75q0 40 28.5 67.5t69.5 27.5q54 0 84.5 -36t30.5 -100q0 -70 -42 -125q-42 -52 -110 -68z" />
    <glyph glyph-name="hyphen" unicode="-" horiz-adv-x="353" 
d="M313 207h-273v143h273v-143z" />
    <glyph glyph-name="hyphen" unicode="&#xad;" horiz-adv-x="353" 
d="M313 207h-273v143h273v-143z" />
    <glyph glyph-name="period" unicode="." horiz-adv-x="285" 
d="M245 85q0 -43 -30.5 -73t-72.5 -30t-72 30t-30 73q0 41 30 71t72 30t72.5 -30t30.5 -71z" />
    <glyph glyph-name="slash" unicode="/" horiz-adv-x="457" 
d="M427 769l-274 -927h-123l274 927h123z" />
    <glyph glyph-name="zero" unicode="0" horiz-adv-x="554" 
d="M524 264q0 -120 -70 -198.5t-179 -78.5q-110 0 -177.5 75.5t-67.5 195.5t69.5 196.5t178.5 76.5q111 0 178.5 -73.5t67.5 -193.5zM332 268q0 142 -53 142q-35 0 -46.5 -40t-11.5 -116q0 -145 54 -145q35 0 46 41t11 118z" />
    <glyph glyph-name="one" unicode="1" horiz-adv-x="429" 
d="M404 0h-353v130h119v208q-75 -43 -110 -54l-45 92l208 156h110v-402h71v-130z" />
    <glyph glyph-name="two" unicode="2" horiz-adv-x="573" 
d="M533 145l-38 -145h-441v146q148 72 196 103q76 52 76 90q0 26 -18 40t-44 14q-29 0 -56.5 -15t-64.5 -48l-113 102q64 53 125.5 78t139.5 25q106 0 164 -48t58 -124q0 -87 -49 -132t-169 -94q31 6 93 6z" />
    <glyph glyph-name="three" unicode="3" horiz-adv-x="535" 
d="M102 338l-77 124q99 73 231 73q104 0 169 -49.5t65 -131.5q0 -110 -91 -153q51 -14 78.5 -55.5t27.5 -96.5q0 -104 -101 -169t-260 -65q-51 0 -94 5l-30 133q33 -6 62 -6q219 0 219 121q0 57 -75 63q-32 2 -96 -5v147q35 -5 68 -5q57 1 78.5 17.5t21.5 56.5q0 22 -17 36
t-45 14q-82 0 -134 -54z" />
    <glyph glyph-name="four" unicode="4" horiz-adv-x="553" 
d="M538 0h-36q-15 0 -21 2q2 -8 2 -40v-141l-175 -12v171q0 15 2 24q-7 -4 -31 -4h-264v111l176 418h173l-121 -297q-25 -62 -45 -82q3 1 23 1h75q10 0 13 -1q-1 3 -1 12q0 60 10 130l9 63l156 23v-132q0 -51 -5 -96h60v-150z" />
    <glyph glyph-name="five" unicode="5" horiz-adv-x="519" 
d="M247 375l-11 -95q20 3 48 3q84 0 139.5 -57t55.5 -141q0 -116 -91.5 -193t-241.5 -77q-37 0 -77 7l-39 135q50 -11 107 -11q72 0 114.5 33t42.5 89q0 39 -27 60t-79 21q-64 0 -133 -19l30 396h372l-26 -151h-184z" />
    <glyph glyph-name="six" unicode="6" horiz-adv-x="585" 
d="M457 731l36 -127q-106 -35 -163 -76.5t-80 -110.5q27 20 92 20q99 0 156 -60.5t57 -159.5q0 -100 -72 -167.5t-182 -67.5q-128 0 -199.5 72t-71.5 201q0 163 107.5 292t319.5 184zM379 215q0 36 -17 59t-51 23q-35 0 -83 -20q-3 -20 -3 -66q0 -21 4 -40t22.5 -38
t49.5 -19q35 0 56.5 27.5t21.5 73.5z" />
    <glyph glyph-name="seven" unicode="7" horiz-adv-x="462" 
d="M452 526l-15 -142q0 -1 -21.5 -36t-41 -69.5t-47.5 -92t-48 -110.5t-34.5 -118t-15.5 -121l-189 -45q8 101 31 193.5t61.5 175.5t57 117.5t56.5 98.5q-9 -3 -26 -3h-210l20 152h422z" />
    <glyph glyph-name="eight" unicode="8" horiz-adv-x="619" 
d="M589 192q0 -98 -78 -151.5t-217 -53.5q-74 0 -128 17.5t-82.5 47t-41 62t-12.5 68.5q0 57 26.5 99t76.5 60q-38 16 -62 53t-24 93q0 88 73.5 143t185.5 55q115 0 185.5 -48.5t70.5 -136.5q0 -55 -34.5 -93t-90.5 -48q152 -40 152 -167zM364 503q0 56 -68 56
q-33 0 -52 -15.5t-19 -42.5t16 -40t62 -30q61 28 61 72zM331 246l-69 25q-36 -22 -36 -78q0 -38 23.5 -58.5t65.5 -20.5q35 0 56.5 15.5t21.5 43.5q0 27 -13.5 43.5t-48.5 29.5z" />
    <glyph glyph-name="nine" unicode="9" horiz-adv-x="570" 
d="M170 -203l-90 106q99 31 161.5 85.5t77.5 94.5q-32 -16 -70 -16q-96 0 -157.5 59t-61.5 173q0 106 72.5 173.5t192.5 67.5t182.5 -71t62.5 -197q0 -95 -23 -168t-72 -129t-114.5 -97.5t-160.5 -80.5zM350 294q0 108 -65 108q-71 0 -71 -98q0 -42 24 -69.5t62 -27.5
q27 0 44 12q6 24 6 75z" />
    <glyph glyph-name="colon" unicode=":" horiz-adv-x="305" 
d="M255 368q0 -43 -30.5 -73t-72.5 -30t-72 30t-30 73q0 41 30 71t72 30t72.5 -30t30.5 -71zM255 85q0 -43 -30.5 -73t-72.5 -30t-72 30t-30 73q0 41 30 71t72 30t72.5 -30t30.5 -71z" />
    <glyph glyph-name="semicolon" unicode=";" horiz-adv-x="322" 
d="M266 368q0 -43 -30.5 -73t-72.5 -30t-72 30t-30 73q0 41 30 71t72 30t72.5 -30t30.5 -71zM120 -152l-70 64q33 7 52 21.5t19 30.5q0 11 -3.5 16.5t-14 13t-16.5 13.5q-28 29 -28 75q0 40 28.5 67.5t69.5 27.5q54 0 84.5 -36t30.5 -100q0 -70 -42 -125q-42 -52 -110 -68z
" />
    <glyph glyph-name="less" unicode="&#x3c;" horiz-adv-x="446" 
d="M406 78l-125 -90l-241 311l241 311l125 -92l-168 -219z" />
    <glyph glyph-name="equal" unicode="=" horiz-adv-x="646" 
d="M606 333h-566v162h566v-162zM606 111h-566v162h566v-162z" />
    <glyph glyph-name="greater" unicode="&#x3e;" horiz-adv-x="446" 
d="M406 299l-241 -311l-125 90l168 221l-168 219l125 92z" />
    <glyph glyph-name="question" unicode="?" horiz-adv-x="496" 
d="M107 524l-77 107q86 81 202 81q91 0 152.5 -45t61.5 -127q0 -105 -91 -159q-51 -31 -69 -65.5t-18 -88.5v-22h-146q-6 33 -6 61q0 106 95 174q34 24 46.5 39.5t12.5 36.5q0 52 -68 52q-57 0 -95 -44zM300 79q0 -40 -29.5 -68t-70.5 -28q-39 0 -66.5 28.5t-27.5 68.5
t29 69t69 29q39 0 67.5 -29t28.5 -70z" />
    <glyph glyph-name="at" unicode="@" horiz-adv-x="891" 
d="M587 -66l23 -102q-95 -31 -174 -31q-181 0 -293.5 102t-112.5 289q0 188 121 318t303 130q172 0 289.5 -103t117.5 -262q0 -129 -69 -213.5t-168 -84.5q-62 0 -88.5 21t-33.5 57q-63 -63 -140 -63q-66 0 -103.5 40.5t-37.5 115.5q0 131 78 222.5t213 91.5q60 0 151 -48
q-14 -44 -25 -94l-37 -172q-8 -44 -1.5 -58.5t27.5 -14.5q39 0 67.5 54.5t28.5 145.5q0 122 -72.5 190t-196.5 68q-115 0 -200 -101t-85 -240q0 -138 74.5 -210.5t192.5 -72.5q71 0 151 25zM492 204l35 158q-14 4 -24 4q-76 0 -114 -65t-38 -157q0 -52 32 -52q30 0 63.5 30
t45.5 82z" />
    <glyph glyph-name="A" unicode="A" horiz-adv-x="597" 
d="M609 0h-194l-36 134h-165l-38 -134h-188l224 697h186zM343 272l-30 127q-9 37 -13 98q-5 -51 -19 -111l-28 -114h90z" />
    <glyph glyph-name="B" unicode="B" horiz-adv-x="607" 
d="M60 697h309q99 0 145 -52q38 -43 38 -119q0 -55 -25 -95q-27 -44 -78 -59q59 -15 95 -60q33 -42 33 -105q0 -93 -61 -150t-173 -57h-283v697zM239 429h71q28 0 44 18q14 16 14 48q0 24 -10 36q-15 19 -50 19h-69v-121zM239 149h68q32 0 49 20q15 18 15 52q0 29 -11 44
q-16 22 -55 22h-66v-138z" />
    <glyph glyph-name="C" unicode="C" horiz-adv-x="555" 
d="M538 658l-76 -132q-46 37 -104 37q-49 0 -78 -27q-21 -20 -32 -51.5t-12 -50t-1 -51.5q0 -94 6.5 -135.5t27.5 -68.5q34 -45 89 -45q72 0 120 47l77 -122q-82 -71 -217 -71q-142 0 -228 96q-80 90 -80 251q0 130 48 216q87 158 282 158q115 0 178 -51z" />
    <glyph glyph-name="D" unicode="D" horiz-adv-x="616" 
d="M60 697h246q104 0 166 -43q114 -79 114 -293q0 -182 -79 -277q-69 -84 -194 -84h-253v697zM239 149h60q46 0 66 40q24 48 24 178q0 95 -19 138q-21 45 -76 45h-55v-401z" />
    <glyph glyph-name="E" unicode="E" horiz-adv-x="498" 
d="M478 0h-418v697h405l-13 -147h-213v-117h174v-142h-174v-142h239v-149z" />
    <glyph glyph-name="F" unicode="F" horiz-adv-x="434" 
d="M444 697l-13 -147h-193v-117h157v-142h-156v-291h-179v697h384z" />
    <glyph glyph-name="G" unicode="G" horiz-adv-x="657" 
d="M607 620l-99 -111q-57 54 -143 54q-62 0 -94 -42q-37 -48 -37 -179q0 -112 35 -164q30 -44 94 -44q36 0 60 10v111h-85l-20 142h284v-340q-113 -69 -251 -69q-170 0 -255 119q-66 92 -66 222q0 64 13 119t31.5 90.5t44 64.5t45.5 43.5t41 25.5q69 37 149 37
q151 0 253 -89z" />
    <glyph glyph-name="H" unicode="H" horiz-adv-x="621" 
d="M561 0h-179v293h-143v-293h-179v697h179v-256h143v256h179v-697z" />
    <glyph glyph-name="I" unicode="I" horiz-adv-x="303" 
d="M243 0h-183v697h183v-697z" />
    <glyph glyph-name="J" unicode="J" horiz-adv-x="305" 
d="M245 697v-650q0 -82 -56 -147q-52 -60 -137 -90l-82 88q50 29 74 78q18 39 18 147v574h183z" />
    <glyph glyph-name="K" unicode="K" horiz-adv-x="632" 
d="M652 0h-236l-175 375l154 322h222l-183 -319zM239 0h-179v697h179v-697z" />
    <glyph glyph-name="L" unicode="L" horiz-adv-x="478" 
d="M478 148l-34 -148h-384v697h181v-549h237z" />
    <glyph glyph-name="M" unicode="M" horiz-adv-x="853" 
d="M527 697h212l64 -697h-174l-17 281q-4 58 -5 140h-1q-11 -88 -24 -131l-85 -290h-152l-74 282q-20 75 -23 140h-1q1 -66 -3 -144l-14 -278h-180l68 697h219l68 -276q16 -63 23 -132h1q8 70 27 142z" />
    <glyph glyph-name="N" unicode="N" horiz-adv-x="641" 
d="M581 0h-184l-123 242q-26 53 -54 131q10 -74 10 -177v-196h-170v697h172l127 -239q34 -66 58 -133q-6 48 -6 156v216h170v-697z" />
    <glyph glyph-name="O" unicode="O" horiz-adv-x="686" 
d="M656 375q0 -179 -71 -279q-78 -108 -241 -108q-161 0 -243 107q-71 92 -71 236q0 190 102 292q86 86 218 86q165 0 246 -117q60 -86 60 -217zM456 353q0 151 -39 190q-26 26 -67 26q-58 0 -87 -46q-33 -52 -33 -172q0 -153 44 -195q30 -28 73 -28q45 0 71 28
q38 39 38 197z" />
    <glyph glyph-name="P" unicode="P" horiz-adv-x="578" 
d="M60 697h227q142 0 208 -50q73 -55 73 -167q0 -119 -78 -180q-66 -52 -195 -52h-56v-248h-179v697zM239 390h52q41 0 58 13q24 19 24 74q0 39 -13 54q-17 20 -59 20h-62v-161z" />
    <glyph glyph-name="Q" unicode="Q" horiz-adv-x="686" 
d="M713 -17l-44 -115q-13 -2 -46 -2q-51 0 -92 23t-84 54.5t-88 44.5q-167 0 -248 92.5t-81 263.5q0 172 89 268.5t231 96.5q148 0 227 -89t79 -245q0 -247 -129 -334q16 -3 63.5 -30.5t92.5 -27.5h30zM456 353q0 126 -25.5 171t-85.5 45q-115 0 -115 -218
q0 -127 28.5 -174.5t88.5 -47.5q59 0 84 47t25 177z" />
    <glyph glyph-name="R" unicode="R" horiz-adv-x="606" 
d="M601 0h-207l-73 195q-14 37 -25 54q-18 28 -57 27v-276h-179v697h240q163 0 228 -71q43 -48 43 -128q0 -85 -42 -137q-38 -47 -103 -58q43 -18 70 -75l23 -48q3 -7 82 -180zM239 408h51q39 0 59 16q23 19 23 60q0 33 -15 48q-18 19 -68 19h-50v-143z" />
    <glyph glyph-name="S" unicode="S" horiz-adv-x="617" 
d="M579 641l-86 -127q-36 24 -78 36q-44 13 -79 13q-32 0 -51 -13q-20 -14 -20 -37q0 -19 14 -33q17 -17 54 -26l71 -18q29 -8 49 -14.5t48 -21.5t44.5 -34t29 -51t12.5 -72q0 -119 -81 -187q-80 -68 -233 -68q-70 0 -140 20q-63 18 -108 43l63 140q48 -26 94 -40
q57 -17 102 -17q51 0 77 20q21 16 21 45q0 25 -20 38q-10 7 -50 19l-82 21q-170 43 -170 198q0 102 69 164q77 70 201 70q79 0 150 -22q55 -16 99 -46z" />
    <glyph glyph-name="T" unicode="T" horiz-adv-x="516" 
d="M536 697l-21 -148h-162v-549h-181v549h-162v148h526z" />
    <glyph glyph-name="U" unicode="U" horiz-adv-x="634" 
d="M579 697v-482q0 -82 -17 -115q-29 -54 -93 -83t-152 -29q-160 0 -228 87q-22 29 -28 59t-6 89v474h180v-455q0 -50 15 -74q22 -34 68 -34q53 0 72 40q10 20 10 65v458h179z" />
    <glyph glyph-name="V" unicode="V" horiz-adv-x="604" 
d="M624 697l-246 -697h-161l-237 697h197l92 -302q23 -79 29 -116h1q13 68 37 136l99 282h189z" />
    <glyph glyph-name="W" unicode="W" horiz-adv-x="868" 
d="M873 697l-181 -697h-191l-36 202q-32 180 -34 229h-1q-10 -97 -34 -229l-37 -202h-195l-169 697h189l39 -188q38 -190 40 -261h1q11 131 35 256l36 193h199l45 -233q24 -130 28 -215h1q12 141 39 275l35 173h191z" />
    <glyph glyph-name="X" unicode="X" horiz-adv-x="584" 
d="M604 0h-217l-89 196l-91 -196h-227l217 362l-195 335h221l74 -169l73 169h215l-188 -324z" />
    <glyph glyph-name="Y" unicode="Y" horiz-adv-x="561" 
d="M591 697l-223 -402v-295h-183v291l-215 406h214l61 -148q8 -19 11.5 -28t5 -13.5t2 -7.5t5 -15t11.5 -33l98 245h213z" />
    <glyph glyph-name="Z" unicode="Z" horiz-adv-x="540" 
d="M515 149l-14 -149h-476v122l235 381q25 41 38 54q-22 -7 -71 -7h-181l13 147h452v-125l-240 -392q-13 -21 -32 -37q20 6 76 6h200z" />
    <glyph glyph-name="bracketleft" unicode="[" horiz-adv-x="310" 
d="M300 -156h-240v888h240v-110h-88v-668h88v-110z" />
    <glyph glyph-name="backslash" unicode="\" horiz-adv-x="443" 
d="M443 -14l-144 -50l-299 786l145 50z" />
    <glyph glyph-name="bracketright" unicode="]" horiz-adv-x="311" 
d="M251 -156h-241v110h88v668h-88v110h241v-888z" />
    <glyph glyph-name="asciicircum" unicode="^" horiz-adv-x="626" 
d="M566 389h-188l-65 163l-67 -163h-186l151 319h204z" />
    <glyph glyph-name="underscore" unicode="_" horiz-adv-x="500" 
d="M500 -125h-500v50h500v-50z" />
    <glyph glyph-name="grave" unicode="`" horiz-adv-x="325" 
d="M305 630l-51 -88l-234 96l66 113z" />
    <glyph glyph-name="a" unicode="a" horiz-adv-x="516" 
d="M495 76l-100 -97q-46 21 -64 51q-50 -43 -133 -43q-81 0 -127 44t-46 118q0 89 74 136q71 44 184 37v32q0 26 -7 36q-9 12 -35 12q-28 0 -56 -7q-45 -13 -91 -47l-63 108q51 31 104 50q65 23 128 23q74 0 122 -24q50 -25 64 -70q8 -26 8 -80l-2 -178q-1 -74 40 -101z
M283 124v90h-6q-40 0 -59 -12q-24 -15 -24 -44q0 -18 8 -31q12 -20 40 -20q13 0 25 6q10 5 16 11z" />
    <glyph glyph-name="b" unicode="b" horiz-adv-x="554" 
d="M234 636v-79q0 -46 -4 -57q33 29 91 29q93 0 148 -66t55 -192q0 -166 -100 -244q-51 -40 -115 -40t-102 45q-2 -19 -10 -32h-149q12 26 12 99v463q0 90 -13 143l176 30q11 -55 11 -99zM234 364v-216q19 -17 43 -17q33 0 47 29.5t14 101.5q0 73 -14 100t-45 27
q-26 0 -45 -25z" />
    <glyph glyph-name="c" unicode="c" horiz-adv-x="459" 
d="M376 162l73 -102q-73 -73 -185 -73q-109 0 -169 66q-65 70 -65 200q0 132 66 204q65 72 181 72q91 0 159 -61l-80 -105q-38 38 -73 38q-26 0 -40 -15q-23 -25 -23 -127q0 -93 18 -121q13 -22 43 -22q56 0 95 46z" />
    <glyph glyph-name="d" unicode="d" horiz-adv-x="549" 
d="M508 0h-151q-8 24 -8 31q-37 -44 -112 -44q-87 0 -140 55q-67 69 -67 206q0 132 63 209q59 72 157 72q42 0 71 -18q-6 48 -6 82v139l174 -23v-504q0 -95 4 -135t15 -70zM315 135v240q-12 20 -37 20q-26 0 -40 -19q-19 -26 -19 -131q0 -72 12 -98q13 -29 46 -29
q23 0 38 17z" />
    <glyph glyph-name="e" unicode="e" horiz-adv-x="522" 
d="M498 203h-288q0 -34 13 -57q21 -37 70 -37q71 0 136 52l67 -100q-92 -74 -210 -74q-110 0 -175 57q-81 71 -81 211q0 130 64 202q63 72 180 72q105 0 165 -70q59 -70 59 -213v-43zM210 316h116v5q0 35 -7 54q-14 33 -49 33q-25 0 -40 -16q-20 -23 -20 -68v-8z" />
    <glyph glyph-name="f" unicode="f" horiz-adv-x="335" 
d="M365 718l-41 -109q-21 12 -50 12q-16 0 -28 -10t-12 -27v-68h109l-23 -114h-86v-402h-174v402h-44v114h44q-3 18 -3 62q0 43 13 74.5t31.5 49t44.5 27.5t47 13t44 3q79 0 128 -27z" />
    <glyph glyph-name="g" unicode="g" horiz-adv-x="561" 
d="M521 541l47 -121q-44 -23 -78 -15q25 -24 25 -63q0 -61 -56 -110t-156 -49h-56l-2 -2q-9 -9 -9 -16t11 -11q14 -5 35 -5h75q51 0 88.5 -13t56 -30.5t29.5 -41t13 -37.5t2 -27q0 -84 -67.5 -143.5t-212.5 -59.5q-127 0 -189 47q-47 36 -47 89q0 35 7 67h156l-1 -24
q-3 -51 83 -51q50 0 77 20q19 15 19 39q0 17 -9 26q-14 15 -85 15h-91q-41 0 -69.5 10t-42 27t-18.5 32t-5 31q0 29 15 54q16 28 49 42q-34 18 -50 43q-24 36 -24 88q0 78 57 124q65 53 179 53q50 0 103 -14q31 -8 52 -8q52 0 89 34zM337 352q0 59 -61 59q-60 0 -60 -59
q0 -57 59 -57q62 0 62 57z" />
    <glyph glyph-name="h" unicode="h" 
d="M508 0h-174v339q0 36 -7 45q-9 9 -29 9q-37 0 -64 -32v-361h-174v577q0 74 -13 128l176 30q11 -52 11 -121v-82l-1 -42q45 39 120 39q80 0 118 -38q37 -37 37 -113v-378z" />
    <glyph glyph-name="i" unicode="i" horiz-adv-x="294" 
d="M247 652q0 -40 -29.5 -69t-71.5 -29q-41 0 -70 28.5t-29 69.5t29.5 69.5t72.5 28.5q41 0 69.5 -29t28.5 -69zM234 0h-174v508l174 16v-524z" />
    <glyph glyph-name="j" unicode="j" horiz-adv-x="294" 
d="M242 652q0 -40 -29.5 -69t-71.5 -29q-41 0 -70 28.5t-29 69.5t29.5 69.5t72.5 28.5q40 0 69 -29t29 -69zM234 524v-507q0 -69 -12.5 -114t-46.5 -77q-41 -38 -103 -61l-69 90q26 21 39.5 50.5t15.5 49t2 50.5v503z" />
    <glyph glyph-name="k" unicode="k" horiz-adv-x="553" 
d="M563 0h-195l-133 292l91 224h204l-141 -210zM234 0h-174v552q0 110 -10 153l173 30q11 -65 11 -182v-553z" />
    <glyph glyph-name="l" unicode="l" horiz-adv-x="304" 
d="M294 111l28 -108q-50 -16 -112 -16q-83 0 -116 33q-34 34 -34 123v398q0 125 -6 165l172 29q8 -51 8 -129v-383q0 -86 10 -101q13 -18 39 -13z" />
    <glyph glyph-name="m" unicode="m" horiz-adv-x="803" 
d="M743 0h-167v345q0 31 -7 41q-7 9 -23 9q-33 0 -61 -20v-375h-167v345q0 31 -7 41q-7 9 -23 9q-33 0 -61 -20v-375h-167v328q0 97 -16 173l160 27l3 -11q6 -20 7 -39q55 51 125 51q71 0 116 -56q62 56 147 56q65 0 98 -29q43 -36 43 -124v-376z" />
    <glyph glyph-name="n" unicode="n" 
d="M508 0h-174v330q0 53 -29 56q-7 1 -14 0q-28 -3 -57 -30v-356h-174v328q0 97 -16 173l160 27q8 -19 10 -48q61 49 149 49q145 0 145 -142v-387z" />
    <glyph glyph-name="o" unicode="o" horiz-adv-x="535" 
d="M510 271q0 -147 -82 -222q-68 -62 -164 -62q-113 0 -177 74q-62 72 -62 185q0 133 70 209q68 74 179 74q109 0 170 -63q66 -68 66 -195zM322 267q0 101 -18 124q-13 17 -37 17q-18 0 -31 -13q-14 -16 -18.5 -47t-4.5 -105q0 -67 8 -97q10 -37 47 -37q30 0 42 33
q12 34 12 125z" />
    <glyph glyph-name="p" unicode="p" horiz-adv-x="556" 
d="M44 501l160 27q5 -14 11 -46q13 23 47.5 35t68.5 12q102 0 153 -74q42 -61 42 -171q0 -151 -61 -227q-56 -70 -162 -70q-34 0 -77 17q8 -24 8 -79v-106l-174 -47v556q0 97 -16 173zM234 369v-231q9 -14 36 -14q26 0 40 12q30 25 30 135q0 78 -12 100q-13 24 -40 24
q-38 0 -54 -26z" />
    <glyph glyph-name="q" unicode="q" horiz-adv-x="552" 
d="M350 516h151q-9 -37 -9 -126v-579l-174 -46v192q0 27 4 51q-32 -21 -90 -21q-100 0 -152 71q-50 67 -50 190q0 144 78 222q59 59 136 59q70 0 97 -50q1 10 9 37zM318 151v214q-9 20 -40 20q-24 0 -35 -10q-13 -11 -19.5 -36.5t-7 -40t-0.5 -46.5q0 -72 14 -100
q14 -26 45 -26q29 0 43 25z" />
    <glyph glyph-name="r" unicode="r" horiz-adv-x="376" 
d="M386 516l-40 -140q-25 14 -51 14q-43 0 -61 -37v-353h-174v314q0 118 -16 187l160 27q10 -34 11 -61q45 64 106 64q34 0 65 -15z" />
    <glyph glyph-name="s" unicode="s" horiz-adv-x="509" 
d="M464 476l-54 -108q-66 38 -126 38q-23 0 -34 -8q-12 -9 -12 -21q0 -14 11 -24q15 -11 43 -17l64 -14q59 -13 91 -45q37 -37 37 -99q0 -89 -68 -142q-64 -49 -160 -49q-70 0 -132 20q-42 14 -74 30l-30 15l61 126q36 -23 86.5 -44.5t82.5 -21.5q24 0 39 12t15 29
q0 14 -9 23q-13 12 -59 22l-67 14q-121 27 -121 141q0 80 58 128t154 48q93 0 185 -44z" />
    <glyph glyph-name="t" unicode="t" horiz-adv-x="373" 
d="M342 116l21 -100q-62 -30 -131 -30q-87 0 -122 28q-40 31 -40 97v291h-42v114h42q-2 72 6 128l173 26q-5 -43 -5 -136v-18h95l-23 -114h-72v-208q0 -61 13 -75q11 -13 37 -13q27 0 48 10z" />
    <glyph glyph-name="u" unicode="u" horiz-adv-x="563" 
d="M529 41l-151 -54q-11 13 -19 38l-3 9q-54 -47 -129 -47q-135 0 -162 90q-10 34 -10 104v321l174 28v-374q0 -19 8 -28q10 -11 37 -11q18 0 33 9q10 5 22 17v359l174 28v-372q0 -38 6 -63q6 -26 20 -54z" />
    <glyph glyph-name="v" unicode="v" horiz-adv-x="472" 
d="M492 516l-187 -516h-134l-191 506l176 17l46 -154q13 -45 37 -149h2q9 72 34 160l39 136h178z" />
    <glyph glyph-name="w" unicode="w" horiz-adv-x="719" 
d="M282 516h155l41 -185q15 -70 23 -138h1q7 82 22 177l24 146h176l-149 -516h-155l-42 193q-15 72 -20 133q-7 -68 -24 -138l-44 -188h-153l-142 504l170 19l33 -204q13 -81 19 -129h1q7 75 32 184z" />
    <glyph glyph-name="x" unicode="x" horiz-adv-x="522" 
d="M542 0h-221l-37 80q-21 45 -23 58h-2q-11 -43 -35 -84l-31 -54h-213l178 269l-148 229l188 36l39 -68q22 -36 31 -79h1q5 47 26 85l23 44h204l-155 -242z" />
    <glyph glyph-name="y" unicode="y" horiz-adv-x="540" 
d="M550 516l-196 -517q-18 -48 -27.5 -70.5t-34.5 -61t-55 -59.5q-57 -41 -147 -45l-61 112q73 13 111 41q40 28 63 84h-48q-9 48 -37 133l-128 378l178 13l77 -270q14 -46 24 -106h1q15 98 35 160l69 208h176z" />
    <glyph glyph-name="z" unicode="z" horiz-adv-x="468" 
d="M443 127l-16 -127h-402v117l201 275h-194v124h402v-124l-197 -265h206z" />
    <glyph glyph-name="braceleft" unicode="{" horiz-adv-x="311" 
d="M301 -156h-79q-145 0 -145 160v156q0 40 -13.5 51t-53.5 11v134q40 0 53.5 12.5t13.5 47.5v157q0 87 36.5 123t108.5 36h79v-151h-23q-48 0 -48 -53v-151q0 -31 -8 -51t-22.5 -27t-22.5 -8.5t-20 -1.5v-2q73 0 73 -85v-154q0 -19 11 -36t37 -17h23v-151z" />
    <glyph glyph-name="bar" unicode="|" horiz-adv-x="286" 
d="M226 -208h-166v964h166v-964z" />
    <glyph glyph-name="braceright" unicode="}" horiz-adv-x="311" 
d="M301 356v-134q-40 0 -53.5 -11t-13.5 -51v-156q0 -160 -145 -160h-79v151h23q26 0 37 17t11 36v154q0 85 73 85v2q-12 0 -20 1.5t-22.5 8.5t-22.5 27t-8 51v151q0 53 -48 53h-23v151h79q73 0 109 -36t36 -123v-157q0 -35 13.5 -47.5t53.5 -12.5z" />
    <glyph glyph-name="asciitilde" unicode="~" horiz-adv-x="588" 
d="M494 404l34 -156q-42 -56 -128 -56q-56 0 -117 29t-93 29q-49 0 -92 -37l-38 154q50 48 126 48q46 0 109 -28.5t102 -28.5q59 0 97 46z" />
    <glyph glyph-name="sterling" unicode="&#xa3;" horiz-adv-x="553" 
d="M563 663l-95 -125q-38 27 -84 27q-47 0 -68.5 -22t-21.5 -55v-62h143v-126h-143v-168h242v-132h-506v132h69v168h-69v126h69v65q0 40 14 77.5t43.5 71.5t84.5 55t129 21q119 0 193 -53z" />
    <glyph glyph-name="currency" unicode="&#xa4;" horiz-adv-x="633" 
d="M61 115l44 43q-38 59 -38 130t38 130l-44 43l77 80l44 -44q59 38 134 38t134 -38l44 44l77 -80l-44 -43q38 -59 38 -130t-38 -130l44 -43l-77 -80l-44 44q-59 -38 -134 -38t-134 38l-44 -44zM194 288q0 -51 35.5 -86.5t86.5 -35.5t86.5 35.5t35.5 86.5t-35.5 86.5
t-86.5 35.5t-86.5 -35.5t-35.5 -86.5z" />
    <glyph glyph-name="section" unicode="&#xa7;" horiz-adv-x="614" 
d="M319 483l100 -41q76 -32 120.5 -72t44.5 -104q0 -37 -20 -71.5t-52 -56.5q43 -46 43 -110t-43 -110.5t-101.5 -65.5t-121.5 -19q-186 0 -259 149l167 79q20 -75 96 -75q60 0 60 31q0 9 -5 16.5t-16.5 14t-21.5 11t-29 11.5t-29 11l-80 33q-59 24 -89.5 69t-30.5 94
q0 89 73 143q-49 43 -49 109q0 86 71.5 133.5t163.5 47.5q184 0 251 -130l-163 -90q-27 67 -82 67q-45 0 -45 -31q0 -23 47 -43zM298 243l92 -40q16 12 16 36q0 13 -10 24.5t-18.5 16t-25.5 11.5l-105 47q-17 -12 -17 -34q0 -8 2 -14.5t6.5 -12t8.5 -9t12 -8t12 -6t14 -6
t13 -5.5z" />
    <glyph glyph-name="dieresis" unicode="&#xa8;" horiz-adv-x="437" 
d="M417 650q0 -35 -25.5 -58.5t-60.5 -23.5q-37 0 -62.5 24t-25.5 58q0 36 24.5 60t59.5 24q37 0 63.5 -24.5t26.5 -59.5zM194 650q0 -35 -24.5 -58.5t-60.5 -23.5t-62.5 24t-26.5 58q0 31 23 57.5t62 26.5q38 0 63.5 -24t25.5 -60z" />
    <glyph glyph-name="copyright" unicode="&#xa9;" horiz-adv-x="804" 
d="M774 354q0 -151 -109 -261.5t-263 -110.5q-153 0 -262.5 110.5t-109.5 261.5t109.5 261.5t262.5 110.5q154 0 263 -110.5t109 -261.5zM648 354q0 104 -72.5 181t-173.5 77q-100 0 -173 -77t-73 -181t73 -181t173 -77q101 0 173.5 77t72.5 181zM475 294l63 -79
q-62 -55 -136 -55q-77 0 -129 47t-52 138t51.5 145t136.5 54q71 0 119 -41l-58 -85q-29 25 -59 25t-40 -17t-10 -59q0 -59 9.5 -81t43.5 -22t61 30z" />
    <glyph glyph-name="guillemotleft" unicode="&#xab;" horiz-adv-x="605" 
d="M585 85l-115 -77l-170 247l170 248l115 -78l-115 -170zM305 85l-115 -77l-170 247l170 248l115 -78l-115 -170z" />
    <glyph glyph-name="logicalnot" unicode="&#xac;" horiz-adv-x="577" 
d="M527 45h-159v140h-318v135h477v-275z" />
    <glyph glyph-name="registered" unicode="&#xae;" horiz-adv-x="804" 
d="M774 354q0 -151 -109 -261.5t-263 -110.5q-153 0 -262.5 110.5t-109.5 261.5t109.5 261.5t262.5 110.5q154 0 263 -110.5t109 -261.5zM648 354q0 104 -72.5 181t-173.5 77q-100 0 -173 -77t-73 -181t73 -181t173 -77q101 0 173.5 77t72.5 181zM565 182h-130q-2 8 -9.5 37
t-13 47.5t-11.5 29.5q-9 16 -22 16h-4v-130h-118v361h178q47 0 81 -28t34 -77q0 -87 -72 -105q21 -4 34 -17.5t25 -49.5zM375 401h22q22 0 22 25t-22 25h-22v-50z" />
    <glyph glyph-name="degree" unicode="&#xb0;" horiz-adv-x="414" 
d="M384 551q0 -79 -48 -124t-131 -45q-175 0 -175 162q0 75 50 120.5t129 45.5q81 0 128 -38.5t47 -120.5zM246 549q0 43 -8.5 59t-30.5 16q-24 0 -31.5 -16t-7.5 -64q0 -43 8.5 -58.5t30.5 -15.5q23 0 31 16t8 63z" />
    <glyph glyph-name="plusminus" unicode="&#xb1;" horiz-adv-x="538" 
d="M498 276h-150v-145h-158v145h-150v141h150v140h158v-140h150v-141zM496 -24h-454v134h454v-134z" />
    <glyph glyph-name="acute" unicode="&#xb4;" horiz-adv-x="326" 
d="M306 638l-231 -96l-55 88l218 121z" />
    <glyph glyph-name="mu" unicode="&#xb5;" horiz-adv-x="572" 
d="M537 44l-141 -58q-19 16 -28 44q-70 -41 -116 -41q-14 0 -20 4l-2 1q1 -11 1 -67v-108l-171 -47v732l174 31v-379q0 -23 11 -32.5t35 -9.5q23 0 54 23v363l174 36v-380q0 -70 29 -112z" />
    <glyph glyph-name="mu" unicode="&#x3bc;" horiz-adv-x="572" 
d="M537 44l-141 -58q-19 16 -28 44q-70 -41 -116 -41q-14 0 -20 4l-2 1q1 -11 1 -67v-108l-171 -47v732l174 31v-379q0 -23 11 -32.5t35 -9.5q23 0 54 23v363l174 36v-380q0 -70 29 -112z" />
    <glyph glyph-name="paragraph" unicode="&#xb6;" horiz-adv-x="603" 
d="M543 -126h-117v733h-69v-733h-117v467q-220 0 -220 179q0 97 62 137t175 40h286v-823z" />
    <glyph glyph-name="guillemotright" unicode="&#xbb;" horiz-adv-x="605" 
d="M585 255l-170 -247l-115 77l115 170l-115 170l115 78zM305 255l-170 -247l-115 77l115 170l-115 170l115 78z" />
    <glyph glyph-name="divide" unicode="&#xf7;" horiz-adv-x="585" 
d="M393 468q0 -43 -30.5 -73t-72.5 -30t-72 30t-30 73q0 41 30 71t72 30t72.5 -30t30.5 -71zM545 204h-505v125h505v-125zM393 73q0 -43 -30.5 -73t-72.5 -30t-72 30t-30 73q0 41 30 71t72 30t72.5 -30t30.5 -71z" />
    <glyph glyph-name="dotlessi" unicode="&#x131;" horiz-adv-x="294" 
d="M234 0h-174v508l174 16v-524z" />
    <glyph glyph-name="florin" unicode="&#x192;" horiz-adv-x="394" 
d="M387 720l-34 -107q-28 9 -48 9q-44 0 -48 -51l-4 -55h107l-35 -114h-76l-28 -382q-5 -63 -15.5 -104t-34 -69t-47.5 -43.5t-71 -38.5l-77 112q40 18 58 42t21 65l29 418h-41v114h48l3 63q2 44 21.5 83t50.5 59q41 25 101 25q61 0 120 -26z" />
    <glyph glyph-name="dotaccent" unicode="&#x2d9;" horiz-adv-x="234" 
d="M214 654q0 -40 -29 -69t-69 -29q-39 0 -67.5 29t-28.5 69t29 69t70 29q39 0 67 -29t28 -69z" />
    <glyph glyph-name="Delta" unicode="&#x394;" horiz-adv-x="659" 
d="M659 0h-659l260 672h148zM422 149l-96 300l-111 -300h207z" />
    <glyph glyph-name="Delta" unicode="&#x2206;" horiz-adv-x="659" 
d="M659 0h-659l260 672h148zM422 149l-96 300l-111 -300h207z" />
    <glyph glyph-name="afii10023" unicode="&#x401;" horiz-adv-x="498" 
d="M478 0h-418v697h405l-13 -147h-213v-117h174v-142h-174v-142h239v-149zM458 801q0 -33 -24 -55.5t-58 -22.5q-32 0 -57.5 21t-25.5 57q0 34 23 57t57 23q35 0 60 -23.5t25 -56.5zM233 801q0 -32 -24 -55t-58 -23q-30 0 -57 21t-27 57q0 33 24 56.5t57 23.5q35 0 60 -23.5
t25 -56.5z" />
    <glyph glyph-name="afii10051" unicode="&#x402;" horiz-adv-x="692" 
d="M536 697l-21 -148h-179v-158q55 39 125 39q93 0 136 -38q41 -37 41 -113v-232q0 -85 -54 -146t-135 -91l-82 88q50 29 74 78q18 39 18 147v115q0 32 -11 43t-36 11q-41 0 -76 -32v-260h-179v549h-147v148h526z" />
    <glyph glyph-name="afii10052" unicode="&#x403;" horiz-adv-x="439" 
d="M444 697l-13 -147h-192v-550h-179v697h384zM362 806l-231 -96l-55 88l218 121z" />
    <glyph glyph-name="afii10053" unicode="&#x404;" 
d="M410 425v-134h-174q0 -20 4 -54q8 -54 31 -76q29 -29 91 -29q40 0 76 14q33 13 56 32l75 -119q-38 -29 -82 -46q-61 -25 -129 -25q-188 0 -271 140q-54 91 -54 234q0 168 81 259q79 88 222 88q63 0 128 -18q47 -14 86 -37l-76 -125q-56 38 -121 38q-62 0 -90 -38
q-27 -35 -27 -104h174z" />
    <glyph glyph-name="afii10054" unicode="&#x405;" horiz-adv-x="617" 
d="M579 641l-86 -127q-36 24 -78 36q-44 13 -79 13q-32 0 -51 -13q-20 -14 -20 -37q0 -19 14 -33q17 -17 54 -26l71 -18q29 -8 49 -14.5t48 -21.5t44.5 -34t29 -51t12.5 -72q0 -119 -81 -187q-80 -68 -233 -68q-70 0 -140 20q-63 18 -108 43l63 140q48 -26 94 -40
q57 -17 102 -17q51 0 77 20q21 16 21 45q0 25 -20 38q-10 7 -50 19l-82 21q-170 43 -170 198q0 102 69 164q77 70 201 70q79 0 150 -22q55 -16 99 -46z" />
    <glyph glyph-name="afii10055" unicode="&#x406;" horiz-adv-x="303" 
d="M243 0h-183v697h183v-697z" />
    <glyph glyph-name="afii10056" unicode="&#x407;" horiz-adv-x="303" 
d="M243 0h-183v697h183v-697zM333 816q0 -31 -23 -52.5t-54 -21.5q-32 0 -55.5 21.5t-23.5 52.5q0 29 20 52.5t55 23.5q33 0 57 -22t24 -54zM127 816q0 -31 -22 -52.5t-54 -21.5q-29 0 -55 19.5t-26 54.5q0 33 22.5 54.5t54.5 21.5q30 0 55 -20.5t25 -55.5z" />
    <glyph glyph-name="afii10057" unicode="&#x408;" horiz-adv-x="305" 
d="M245 697v-650q0 -82 -56 -147q-52 -60 -137 -90l-82 88q50 29 74 78q18 39 18 147v574h183z" />
    <glyph glyph-name="afii10058" unicode="&#x409;" horiz-adv-x="942" 
d="M586 441h61q136 0 196 -47q69 -55 69 -164q0 -114 -61 -173q-58 -57 -164 -57h-280v557h-109l-3 -84q-8 -183 -21 -277q-13 -99 -54 -141q-42 -43 -140 -58l-53 -8l-37 125l26 7q29 8 49 21q25 17 36 47q14 40 21 108q13 109 17 273l3 127h444v-256zM581 299v-150h61
q31 0 48 18q18 20 18 55q0 37 -15 56q-17 21 -49 21h-63z" />
    <glyph glyph-name="afii10059" unicode="&#x40a;" horiz-adv-x="917" 
d="M561 441h61q136 0 196 -47q69 -55 69 -164q0 -114 -61 -173q-58 -57 -164 -57h-280v293h-143v-293h-179v697h179v-256h143v256h179v-256zM556 299v-150h61q31 0 48 18q18 20 18 55q0 37 -15 56q-17 21 -49 21h-63z" />
    <glyph glyph-name="afii10060" unicode="&#x40b;" horiz-adv-x="692" 
d="M536 697l-21 -148h-179v-158q55 39 125 39q57 0 95.5 -15t54.5 -40.5t21.5 -47t5.5 -48.5v-279h-179v240q0 32 -11 43t-36 11q-41 0 -76 -32v-262h-179v549h-147v148h526z" />
    <glyph glyph-name="afii10061" unicode="&#x40c;" horiz-adv-x="647" 
d="M239 697v-256h39q43 0 63 20q16 15 25 56l17 72q13 55 45 80q33 25 102 33l49 5l41 -113l-40 -11q-22 -7 -29 -12q-12 -10 -21 -38l-19 -62q-17 -54 -34 -71q-20 -22 -55 -29v-4q37 -12 59 -39q16 -19 30 -59l34 -100q9 -29 27 -41q8 -6 38 -16l28 -9l-36 -116l-53 4
q-101 7 -137 49q-23 27 -36 88l-18 84q-11 46 -29 62q-21 19 -61 19h-29v-293h-179v697h179zM492 806l-231 -96l-55 88l218 121z" />
    <glyph glyph-name="afii10062" unicode="&#x40e;" horiz-adv-x="572" 
d="M598 697l-194 -503q-3 -8 -11 -28.5t-11 -27.5t-9.5 -23.5t-9.5 -23.5t-9 -19.5t-9.5 -19t-9 -15.5t-10.5 -15t-11 -12q-40 -42 -122 -54l-56 -9l-61 120l40 7q46 7 75 32q24 20 42 70l4 11l-55 -6q-12 50 -44 133l-148 383h197l87 -270q19 -56 24 -106h4q17 100 37 160
l71 216h189zM392 890l88 -35q-13 -60 -60 -93q-48 -34 -125 -34q-75 0 -123 34q-47 33 -60 93l88 35q19 -30 41 -41q23 -11 55 -11t55 11q22 11 41 41z" />
    <glyph glyph-name="afii10145" unicode="&#x40f;" horiz-adv-x="604" 
d="M365 697h179v-697h-160v-168h-164v168h-160v697h179v-559h126v559z" />
    <glyph glyph-name="afii10017" unicode="&#x410;" horiz-adv-x="597" 
d="M609 0h-194l-36 134h-165l-38 -134h-188l224 697h186zM343 272l-30 127q-9 37 -13 98q-5 -51 -19 -111l-28 -114h90z" />
    <glyph glyph-name="afii10018" unicode="&#x411;" horiz-adv-x="598" 
d="M343 0h-283v697h461l-13 -147h-269v-116h64q44 0 70.5 -1.5t63 -12.5t62.5 -31q69 -55 69 -162q0 -112 -61 -171q-57 -56 -164 -56zM239 294v-145h61q31 0 48 17q18 18 18 52q0 37 -15 55q-17 21 -49 21h-63z" />
    <glyph glyph-name="afii10019" unicode="&#x412;" horiz-adv-x="607" 
d="M60 697h309q99 0 145 -52q38 -43 38 -119q0 -55 -25 -95q-27 -44 -78 -59q59 -15 95 -60q33 -42 33 -105q0 -93 -61 -150t-173 -57h-283v697zM239 429h71q28 0 44 18q14 16 14 48q0 24 -10 36q-15 19 -50 19h-69v-121zM239 149h68q32 0 49 20q15 18 15 52q0 29 -11 44
q-16 22 -55 22h-66v-138z" />
    <glyph glyph-name="afii10020" unicode="&#x413;" horiz-adv-x="439" 
d="M444 697l-13 -147h-192v-550h-179v697h384z" />
    <glyph glyph-name="afii10021" unicode="&#x414;" horiz-adv-x="671" 
d="M590 697v-549h72v-316h-164v168h-325v-168h-164v316h54q25 58 41 119q20 75 32 164q12 98 13 157l4 109h437zM411 559h-112l-3 -74q-3 -57 -15 -138q-9 -60 -26 -115q-17 -54 -37 -94h193v421z" />
    <glyph glyph-name="afii10022" unicode="&#x415;" horiz-adv-x="498" 
d="M478 0h-418v697h405l-13 -147h-213v-117h174v-142h-174v-142h239v-149z" />
    <glyph glyph-name="afii10024" unicode="&#x416;" horiz-adv-x="966" 
d="M569 697v-256h29q43 0 62 18q4 3 7 6.5t5.5 8.5l4 8t3 9l2 8t2.5 9t2 9l17 72q13 55 45 80q33 25 102 33l49 5l41 -113l-40 -11q-22 -7 -29 -12q-12 -10 -21 -38l-19 -62q-17 -54 -34 -71q-20 -22 -55 -29v-4q37 -12 59 -39q16 -19 30 -59l34 -100q9 -29 27 -41
q8 -6 38 -16l28 -9l-36 -116l-53 4q-101 7 -137 49q-23 27 -36 88l-18 84q-10 47 -29 64q-20 17 -61 17h-19v-293h-172v293h-19q-41 0 -61 -17q-19 -17 -29 -64l-18 -84q-13 -61 -36 -88q-36 -42 -137 -49l-53 -4l-36 116l28 9q30 10 38 16q18 12 27 41l34 100q14 40 30 59
q22 27 59 39v4q-35 7 -55 29q-17 17 -34 71l-19 62q-9 28 -21 38q-7 5 -29 12l-40 11l41 113l49 -5q69 -8 102 -33q32 -25 45 -80l17 -72q0 -2 2 -9t2.5 -9l2 -8t3 -9l4 -8t5.5 -8.5t7 -6.5q19 -18 62 -18h29v256h172z" />
    <glyph glyph-name="afii10025" unicode="&#x417;" horiz-adv-x="535" 
d="M200 291h-49v134h44q56 0 78 19q21 16 21 52q0 31 -17 48q-21 21 -66 21q-63 0 -120 -36l-76 123q33 22 73 34q73 23 155 23q56 0 98.5 -11.5t68 -29.5t41.5 -43.5t22 -50.5t6 -53q0 -52 -25 -89q-27 -41 -78 -58q58 -14 95 -58q34 -43 34 -108q0 -99 -65 -156
q-72 -64 -215 -64q-83 0 -148 25q-43 16 -84 46l75 119q30 -22 61 -33q33 -13 74 -13q54 0 78 21q24 19 24 59q0 43 -23 62q-20 17 -82 17z" />
    <glyph glyph-name="afii10026" unicode="&#x418;" horiz-adv-x="657" 
d="M597 0h-179v289q0 53 6 131q-19 -55 -47 -119l-128 -301h-189v697h179v-289q0 -53 -6 -131q19 52 47 119l128 301h189v-697z" />
    <glyph glyph-name="afii10027" unicode="&#x419;" horiz-adv-x="657" 
d="M597 0h-179v289q0 53 6 131q-19 -55 -47 -119l-128 -301h-189v697h179v-289q0 -53 -6 -131q19 52 47 119l128 301h189v-697zM424 900l88 -35q-13 -60 -60 -93q-45 -33 -124 -33t-124 33q-47 33 -60 93l88 35q19 -30 41 -41q23 -11 55 -11t55 11q22 11 41 41z" />
    <glyph glyph-name="afii10028" unicode="&#x41a;" horiz-adv-x="647" 
d="M239 697v-256h39q43 0 63 20q16 15 25 56l17 72q13 55 45 80q33 25 102 33l49 5l41 -113l-40 -11q-22 -7 -29 -12q-12 -10 -21 -38l-19 -62q-17 -54 -34 -71q-20 -22 -55 -29v-4q37 -12 59 -39q16 -19 30 -59l34 -100q9 -29 27 -41q8 -6 38 -16l28 -9l-36 -116l-53 4
q-101 7 -137 49q-23 27 -36 88l-18 84q-11 46 -29 62q-21 19 -61 19h-29v-293h-179v697h179z" />
    <glyph glyph-name="afii10029" unicode="&#x41b;" horiz-adv-x="656" 
d="M586 0h-179v557h-109l-3 -84q-8 -183 -21 -277q-13 -99 -54 -141q-42 -43 -140 -58l-53 -8l-37 125l26 7q29 8 49 21q25 17 36 47q14 40 21 108q13 109 17 273l3 127h444v-697z" />
    <glyph glyph-name="afii10030" unicode="&#x41c;" horiz-adv-x="853" 
d="M803 0h-174l-17 301q-4 67 -5 120h-1q-17 -86 -24 -111l-85 -310h-152l-74 302q-14 61 -23 120h-1q1 -35 -3 -124l-14 -298h-180l68 697h219l68 -296q17 -77 23 -112h1q11 56 27 122l71 286h212z" />
    <glyph glyph-name="afii10031" unicode="&#x41d;" horiz-adv-x="621" 
d="M561 0h-179v293h-143v-293h-179v697h179v-256h143v256h179v-697z" />
    <glyph glyph-name="afii10032" unicode="&#x41e;" horiz-adv-x="686" 
d="M656 375q0 -179 -71 -279q-78 -108 -241 -108q-161 0 -243 107q-71 92 -71 236q0 190 102 292q86 86 218 86q165 0 246 -117q60 -86 60 -217zM456 353q0 151 -39 190q-26 26 -67 26q-58 0 -87 -46q-33 -52 -33 -172q0 -153 44 -195q27 -27 73 -27q45 0 71 27
q38 39 38 197z" />
    <glyph glyph-name="afii10033" unicode="&#x41f;" horiz-adv-x="613" 
d="M553 0h-179v556h-135v-556h-179v697h493v-697z" />
    <glyph glyph-name="afii10034" unicode="&#x420;" horiz-adv-x="578" 
d="M60 697h227q142 0 208 -50q73 -55 73 -167q0 -119 -78 -180q-66 -52 -195 -52h-56v-248h-179v697zM239 390h52q41 0 58 13q24 19 24 74q0 39 -13 54q-17 20 -59 20h-62v-161z" />
    <glyph glyph-name="afii10035" unicode="&#x421;" horiz-adv-x="555" 
d="M538 658l-76 -132q-46 37 -104 37q-49 0 -78 -27q-21 -20 -32 -51.5t-12 -50t-1 -51.5q0 -94 6.5 -135.5t27.5 -68.5q34 -45 89 -45q72 0 120 47l77 -122q-82 -71 -217 -71q-142 0 -228 96q-80 90 -80 251q0 130 48 216q87 158 282 158q115 0 178 -51z" />
    <glyph glyph-name="afii10036" unicode="&#x422;" horiz-adv-x="516" 
d="M536 697l-21 -148h-162v-549h-181v549h-162v148h526z" />
    <glyph glyph-name="afii10037" unicode="&#x423;" horiz-adv-x="572" 
d="M598 697l-194 -503q-3 -8 -11 -28.5t-11 -27.5t-9.5 -23.5t-9.5 -23.5t-9 -19.5t-9.5 -19t-9 -15.5t-10.5 -15t-11 -12q-40 -42 -122 -54l-56 -9l-61 120l40 7q46 7 75 32q24 20 42 70l4 11l-55 -6q-12 50 -44 133l-148 383h197l87 -270q19 -56 24 -106h4q17 100 37 160
l71 216h189z" />
    <glyph glyph-name="afii10038" unicode="&#x424;" horiz-adv-x="803" 
d="M491 0h-179v107h-34q-108 0 -167 44q-87 65 -87 222q0 148 67 210q60 55 187 55h34v97h179v-97h34q127 0 187 -55q67 -62 67 -210q0 -157 -87 -222q-59 -44 -167 -44h-34v-107zM479 502v-259h18q50 0 73 21q29 27 29 111q0 82 -29 108q-21 19 -71 19h-20zM324 502h-20
q-50 0 -71 -19q-29 -26 -29 -108q0 -84 29 -111q23 -21 73 -21h18v259z" />
    <glyph glyph-name="afii10039" unicode="&#x425;" horiz-adv-x="584" 
d="M604 0h-217l-89 196l-91 -196h-227l217 362l-195 335h221l74 -169l73 169h215l-188 -324z" />
    <glyph glyph-name="afii10040" unicode="&#x426;" horiz-adv-x="648" 
d="M372 697h179v-549h72v-316h-164v168h-399v697h179v-559h133v559z" />
    <glyph glyph-name="afii10041" unicode="&#x427;" horiz-adv-x="579" 
d="M519 0h-179v264q-52 -20 -115 -20q-93 0 -140 41q-50 45 -50 144v268h179v-227q0 -49 13 -67q14 -21 51 -21q29 0 62 11v304h179v-697z" />
    <glyph glyph-name="afii10042" unicode="&#x428;" horiz-adv-x="847" 
d="M229 697v-557h110v557h169v-557h110v557h169v-697h-727v697h169z" />
    <glyph glyph-name="afii10043" unicode="&#x429;" horiz-adv-x="869" 
d="M229 697v-557h110v557h169v-557h110v557h169v-549h72v-316h-164v168h-635v697h169z" />
    <glyph glyph-name="afii10044" unicode="&#x42a;" horiz-adv-x="682" 
d="M326 441h61q136 0 196 -47q69 -55 69 -164q0 -114 -61 -173q-58 -57 -164 -57h-280v549h-152v148h331v-256zM321 299v-150h61q31 0 48 18q18 20 18 55q0 37 -15 56q-17 21 -49 21h-63z" />
    <glyph glyph-name="afii10045" unicode="&#x42b;" horiz-adv-x="878" 
d="M239 441h61q136 0 196 -47q69 -55 69 -164q0 -114 -61 -173q-58 -57 -164 -57h-280v697h179v-256zM234 299v-150h61q31 0 48 18q18 20 18 55q0 37 -15 56q-17 21 -49 21h-63zM639 697h179v-697h-179v697z" />
    <glyph glyph-name="afii10046" unicode="&#x42c;" horiz-adv-x="595" 
d="M239 441h61q136 0 196 -47q69 -55 69 -164q0 -114 -61 -173q-58 -57 -164 -57h-280v697h179v-256zM234 299v-150h61q31 0 48 18q18 20 18 55q0 37 -15 56q-17 21 -49 21h-63z" />
    <glyph glyph-name="afii10047" unicode="&#x42d;" horiz-adv-x="571" 
d="M164 425h174q0 69 -27 104q-28 38 -90 38q-65 0 -121 -38l-76 125q39 23 86 37q65 18 128 18q143 0 222 -88q81 -91 81 -259q0 -143 -54 -234q-83 -140 -271 -140q-68 0 -129 25q-44 17 -82 46l75 119q23 -19 56 -32q36 -14 76 -14q62 0 91 29q23 22 31 76q4 34 4 54
h-174v134z" />
    <glyph glyph-name="afii10048" unicode="&#x42e;" horiz-adv-x="961" 
d="M239 441h92q7 60 32.5 112.5t62.5 85.5q78 70 204 70q163 0 242 -117q59 -87 59 -217q0 -180 -70 -279q-74 -108 -237 -108q-169 0 -243 108q-57 81 -57 197h-85v-293h-179v697h179v-256zM630 569q-56 0 -83 -46q-29 -48 -29 -172q0 -156 39 -195q27 -27 70 -27
q42 0 68 27q19 20 27.5 62.5t8.5 134.5q0 152 -37 190q-26 26 -64 26z" />
    <glyph glyph-name="afii10049" unicode="&#x42f;" horiz-adv-x="662" 
d="M423 268h-35q-40 0 -61 -19q-20 -18 -29 -62l-12 -59q-12 -60 -36 -88q-16 -19 -42.5 -30t-44.5 -13.5t-50 -5.5l-55 -5l-38 120l30 6q20 4 38 16q20 14 27 41l19 65q12 40 30 62q25 30 68 38v3q-60 10 -97 49q-42 42 -42 113q0 101 69 153q61 45 190 45h250v-697h-179
v268zM428 557h-55q-36 0 -55.5 -12.5t-23.5 -26.5t-4 -34q0 -76 82 -76h56v149z" />
    <glyph glyph-name="afii10065" unicode="&#x430;" horiz-adv-x="516" 
d="M495 76l-100 -97q-46 21 -64 51q-50 -43 -133 -43q-81 0 -127 44t-46 118q0 89 74 136q71 44 184 37v32q0 26 -7 36q-9 12 -35 12q-28 0 -56 -7q-45 -13 -91 -47l-63 108q51 31 104 50q65 23 128 23q74 0 122 -24q50 -25 64 -70q8 -26 8 -80l-2 -178q-1 -74 40 -101z
M283 124v90h-6q-40 0 -59 -12q-24 -15 -24 -44q0 -18 8 -31q12 -20 40 -20q13 0 25 6q10 5 16 11z" />
    <glyph glyph-name="afii10066" unicode="&#x431;" horiz-adv-x="548" 
d="M454 763l60 -139q-36 -23 -115 -49q-19 -6 -79.5 -23.5t-80.5 -25.5q-44 -19 -60 -51q-12 -25 -12 -57h3q16 28 49 49q45 27 97 27q82 0 135 -50q30 -28 46 -65.5t18.5 -62.5t2.5 -64q0 -133 -64 -199q-63 -66 -175 -66q-118 0 -184 79q-62 73 -62 223q0 161 34 240
q48 114 200 165l64 21q86 29 123 48zM330 245q0 90 -18 111q-14 16 -37 16q-16 0 -31 -13q-23 -22 -23 -116q0 -71 8 -97q10 -37 47 -37q30 0 42 33q12 35 12 103z" />
    <glyph glyph-name="afii10067" unicode="&#x432;" horiz-adv-x="553" 
d="M60 516h274q72 0 113 -31q44 -34 44 -99q0 -48 -23 -79q-20 -26 -53 -34q38 -6 65 -33q33 -33 33 -93q0 -75 -50 -113q-45 -34 -124 -34h-279v516zM230 416v-100h43q24 0 36 12q12 13 12 39q0 25 -10 36q-11 13 -41 13h-40zM230 220v-120h53q28 0 42 19q11 14 11 43
q0 26 -12 41q-14 17 -41 17h-53z" />
    <glyph glyph-name="afii10068" unicode="&#x433;" horiz-adv-x="429" 
d="M234 0h-174v516h365l-20 -130h-171v-386z" />
    <glyph glyph-name="afii10069" unicode="&#x434;" horiz-adv-x="590" 
d="M580 110v-254h-164v144h-257v-144h-165v254h43q40 66 54.5 141t18.5 203l2 62h404v-406h64zM342 406h-84l-2 -40q-6 -108 -17 -155q-13 -60 -40 -101h143v296z" />
    <glyph glyph-name="afii10070" unicode="&#x435;" horiz-adv-x="522" 
d="M498 203h-288q0 -34 13 -57q21 -37 70 -37q71 0 136 52l67 -100q-92 -74 -210 -74q-110 0 -175 57q-81 71 -81 211q0 130 64 202q63 72 180 72q105 0 165 -70q59 -70 59 -213v-43zM210 316h116v5q0 35 -7 54q-14 33 -49 33q-25 0 -40 -16q-20 -23 -20 -68v-8z" />
    <glyph glyph-name="afii10072" unicode="&#x436;" horiz-adv-x="783" 
d="M310 502l163 28v-198h18q42 0 54 49l11 49q11 44 34 66q25 24 85 29l58 4l28 -112l-30 -6q-15 -3 -22 -8q-10 -7 -18 -28l-13 -40q-5 -15 -9.5 -23.5t-18.5 -20.5t-35 -15v-3q20 -6 34 -18.5t19 -22t12 -27.5l22 -56q8 -24 21 -33q11 -7 27 -10l31 -4l-28 -115l-55 3
q-75 3 -107 35q-21 21 -33 69l-17 70q-6 26 -18 37t-37 11h-13v-212h-163v212h-13q-44 0 -55 -48l-17 -70q-12 -48 -33 -69q-32 -32 -107 -35l-55 -3l-28 115l31 4q16 3 27 10q13 9 21 33l22 56q7 18 12 27.5t19 22t34 18.5v3q-21 3 -35 15t-18.5 20.5t-9.5 23.5l-13 40
q-8 21 -18 28q-7 5 -22 8l-30 6l28 112l58 -4q60 -5 85 -29q23 -22 34 -66l11 -49q3 -13 5 -18.5t8.5 -14.5t18.5 -12.5t31 -3.5h9v170z" />
    <glyph glyph-name="afii10073" unicode="&#x437;" horiz-adv-x="474" 
d="M146 321h36q37 0 51 11q13 13 13 33q0 21 -13 32q-13 12 -41 12q-30 0 -56 -13q-22 -11 -36 -26l-80 98q27 24 69 40q56 21 126 21q97 0 148 -36q56 -40 56 -113q0 -37 -18 -65q-22 -33 -60 -44q42 -9 67 -38q26 -30 26 -81q0 -72 -54 -116q-59 -49 -168 -49
q-71 0 -122 21q-46 19 -81 52l73 96q17 -21 41 -34q28 -15 64 -15q29 0 45 11q20 14 20 42q0 30 -20 43q-17 12 -46 12h-40v106z" />
    <glyph glyph-name="afii10074" unicode="&#x438;" horiz-adv-x="598" 
d="M234 0h-174v502l174 28v-187q0 -59 -5 -127h3q1 3 50 115l82 182l174 17v-530h-174v160q0 59 5 127h-3q-13 -35 -36 -85z" />
    <glyph glyph-name="afii10075" unicode="&#x439;" horiz-adv-x="598" 
d="M234 0h-174v502l174 28v-187q0 -59 -5 -127h3q1 3 50 115l82 182l174 17v-530h-174v160q0 59 5 127h-3q-13 -35 -36 -85zM386 724l80 -34q-12 -59 -54 -92q-41 -32 -113 -32t-113 32q-42 33 -54 92l80 34q15 -28 37 -40q22 -11 50 -11t50 11q22 12 37 40z" />
    <glyph glyph-name="afii10076" unicode="&#x43a;" horiz-adv-x="560" 
d="M60 502l174 28v-198h19q19 0 31 3.5t18.5 12.5t8.5 14.5t5 18.5l11 49q11 44 34 66q25 24 85 29l58 4l28 -112l-30 -6q-15 -3 -22 -8q-10 -7 -18 -28l-13 -40q-5 -15 -9.5 -23.5t-18.5 -20.5t-35 -15v-3q20 -6 34 -18.5t19 -22t12 -27.5l22 -56q8 -24 21 -33
q11 -7 27 -10l31 -4l-28 -115l-55 3q-75 3 -107 35q-21 21 -33 69l-17 70q-11 48 -55 48h-23v-212h-174v502z" />
    <glyph glyph-name="afii10077" unicode="&#x43b;" 
d="M508 0h-174v396h-81l-1 -26q-1 -45 -6 -111q-8 -92 -16 -136q-12 -64 -48 -92q-36 -29 -105 -36l-63 -6l-32 114l41 12q29 9 43 26q12 16 18 50q9 55 14 127q3 42 7 122l3 76h400v-516z" />
    <glyph glyph-name="afii10078" unicode="&#x43c;" horiz-adv-x="686" 
d="M423 516h176l52 -516h-149l-11 240q-2 22 -3 66q-4 -25 -15 -60l-70 -246h-129l-61 239q-8 29 -13 56q0 -20 -2 -58l-9 -237h-154l56 516h182l58 -235q4 -14 14 -76q7 42 18 84z" />
    <glyph glyph-name="afii10079" unicode="&#x43d;" 
d="M234 0h-174v502l174 28v-198h100v170l174 28v-530h-174v212h-100v-212z" />
    <glyph glyph-name="afii10080" unicode="&#x43e;" horiz-adv-x="535" 
d="M510 271q0 -147 -82 -222q-68 -62 -164 -62q-113 0 -177 74q-62 72 -62 185q0 133 70 209q68 74 179 74q109 0 170 -63q66 -68 66 -195zM322 267q0 101 -18 124q-13 17 -37 17q-18 0 -31 -13q-14 -16 -18.5 -47t-4.5 -105q0 -67 8 -97q10 -37 47 -37q30 0 42 33
q12 34 12 125z" />
    <glyph glyph-name="afii10081" unicode="&#x43f;" horiz-adv-x="558" 
d="M234 0h-174v516h438v-516h-174v392h-90v-392z" />
    <glyph glyph-name="afii10082" unicode="&#x440;" horiz-adv-x="556" 
d="M44 501l160 27q5 -14 11 -46q13 23 47.5 35t68.5 12q102 0 153 -74q42 -61 42 -171q0 -151 -61 -227q-56 -70 -162 -70q-34 0 -77 17q8 -24 8 -79v-106l-174 -47v556q0 97 -16 173zM234 369v-231q9 -14 36 -14q26 0 40 12q30 25 30 135q0 78 -12 100q-13 24 -40 24
q-38 0 -54 -26z" />
    <glyph glyph-name="afii10083" unicode="&#x441;" horiz-adv-x="459" 
d="M376 162l73 -102q-73 -73 -185 -73q-109 0 -169 66q-65 70 -65 200q0 132 66 204q65 72 181 72q91 0 159 -61l-80 -105q-38 38 -73 38q-26 0 -40 -15q-23 -25 -23 -127q0 -93 18 -121q13 -22 43 -22q56 0 95 46z" />
    <glyph glyph-name="afii10084" unicode="&#x442;" horiz-adv-x="436" 
d="M300 0h-174v392h-123v124h440l-20 -124h-123v-392z" />
    <glyph glyph-name="afii10085" unicode="&#x443;" horiz-adv-x="540" 
d="M550 516l-196 -517q-18 -48 -27.5 -70.5t-34.5 -61t-55 -59.5q-57 -41 -147 -45l-61 112q73 13 111 41q40 28 63 84h-48q-9 48 -37 133l-128 378l178 13l77 -270q14 -46 24 -106h1q15 98 35 160l69 208h176z" />
    <glyph glyph-name="afii10086" unicode="&#x444;" horiz-adv-x="756" 
d="M465 735v-231q33 25 85 25q89 0 135 -68q46 -70 46 -204q0 -132 -51 -199q-52 -71 -152 -71q-36 0 -63 15v-205h-174v205q-27 -15 -63 -15q-100 0 -152 71q-51 67 -51 199q0 134 46 204q46 68 135 68q52 0 85 -25v201zM459 380v-242q12 -14 31 -14q37 0 52 36
q13 32 13 107q0 93 -22 115q-13 13 -33 13q-18 0 -41 -15zM297 138v242q-23 15 -41 15q-20 0 -33 -13q-22 -22 -22 -119q0 -101 28 -126q15 -13 37 -13q19 0 31 14z" />
    <glyph glyph-name="afii10087" unicode="&#x445;" horiz-adv-x="522" 
d="M542 0h-221l-37 80q-21 45 -23 58h-2q-11 -43 -35 -84l-31 -54h-213l178 269l-148 229l188 36l39 -68q22 -36 31 -79h1q5 47 26 85l23 44h204l-155 -242z" />
    <glyph glyph-name="afii10088" unicode="&#x446;" horiz-adv-x="577" 
d="M234 530v-416h90v388l174 28v-416h64v-258h-164v144h-338v502z" />
    <glyph glyph-name="afii10089" unicode="&#x447;" horiz-adv-x="501" 
d="M283 0v195q-54 -17 -101 -17q-82 0 -120 38q-38 37 -38 114v172l174 28v-197q0 -26 12 -36q9 -8 30 -8q19 0 43 8v205l174 28v-530h-174z" />
    <glyph glyph-name="afii10090" unicode="&#x448;" horiz-adv-x="730" 
d="M208 530v-416h75v388l164 28v-416h75v388l164 28v-530h-642v502z" />
    <glyph glyph-name="afii10091" unicode="&#x449;" horiz-adv-x="781" 
d="M224 530v-416h75v388l164 28v-416h75v388l164 28v-420h64v-244h-164v134h-542v502z" />
    <glyph glyph-name="afii10092" unicode="&#x44a;" horiz-adv-x="598" 
d="M289 346h69q98 0 145 -39q55 -46 55 -138q0 -86 -50 -131q-43 -38 -121 -38h-272v392h-108l-10 124h292v-170zM284 234v-120h42q28 0 43 15t15 44q0 33 -17 48q-14 13 -44 13h-39z" />
    <glyph glyph-name="afii10093" unicode="&#x44b;" horiz-adv-x="809" 
d="M60 502l174 28v-184h69q98 0 145 -39q55 -46 55 -138q0 -86 -50 -131q-43 -38 -121 -38h-272v502zM229 234v-120h42q28 0 43 15t15 44q0 33 -17 48q-14 13 -44 13h-39zM749 0h-174v502l174 28v-530z" />
    <glyph glyph-name="afii10094" unicode="&#x44c;" horiz-adv-x="543" 
d="M60 502l174 28v-184h69q98 0 145 -39q55 -46 55 -138q0 -86 -50 -131q-43 -38 -121 -38h-272v502zM229 234v-120h42q28 0 43 15t15 44q0 33 -17 48q-14 13 -44 13h-39z" />
    <glyph glyph-name="afii10095" unicode="&#x44d;" horiz-adv-x="451" 
d="M134 323h104v13q0 47 -20 63q-11 10 -35 10q-30 0 -56 -13q-22 -12 -34 -26l-80 98q27 25 64 40q52 21 115 21q111 0 172 -71q62 -73 62 -205q0 -127 -58 -196q-59 -70 -175 -70q-66 0 -115 21q-44 18 -78 52l73 96q18 -24 46 -37q26 -12 56 -12q21 0 38 11q25 16 25 82
v13h-104v110z" />
    <glyph glyph-name="afii10096" unicode="&#x44e;" horiz-adv-x="795" 
d="M234 530v-198h74q16 85 64 134q61 63 166 63q106 0 167 -63q65 -66 65 -195q0 -147 -81 -222q-66 -62 -161 -62q-118 0 -176 74q-46 59 -51 151h-67v-212h-174v502zM531 408q-17 0 -29 -13q-14 -15 -17.5 -45t-3.5 -107q0 -86 13 -112q12 -22 38 -22q29 0 39 33
q11 36 11 125q0 103 -17 125q-12 16 -34 16z" />
    <glyph glyph-name="afii10097" unicode="&#x44f;" horiz-adv-x="544" 
d="M484 516v-516h-174v188h-29q-23 0 -32.5 -12.5t-15.5 -35.5l-13 -46q-14 -50 -33 -69q-32 -32 -107 -35l-55 -3l-30 115l31 4q16 3 27 10q13 10 21 33l11 34q15 45 61 60v4q-36 8 -61 31q-34 32 -34 92q0 80 60 119q41 27 104 27h269zM315 412h-24q-26 0 -42 -10
q-21 -14 -21 -49t18 -50q14 -11 46 -11h23v120z" />
    <glyph glyph-name="afii10071" unicode="&#x451;" horiz-adv-x="522" 
d="M458 640q0 -31 -23 -52.5t-54 -21.5q-32 0 -55.5 21.5t-23.5 52.5q0 29 20 52.5t55 23.5q33 0 57 -22t24 -54zM237 640q0 -31 -22 -52.5t-54 -21.5q-33 0 -56.5 21.5t-23.5 52.5q0 33 22.5 54.5t53.5 21.5q34 0 57 -22t23 -54zM498 203h-288q0 -34 13 -57q21 -37 70 -37
q71 0 136 52l67 -100q-92 -74 -210 -74q-110 0 -175 57q-81 71 -81 211q0 130 64 202q63 72 180 72q105 0 165 -70q59 -70 59 -213v-43zM210 316h116v5q0 35 -7 54q-14 33 -49 33q-25 0 -40 -16q-20 -23 -20 -68v-8z" />
    <glyph glyph-name="afii10099" unicode="&#x452;" horiz-adv-x="599" 
d="M429 651l-24 -75h-141v-86q45 39 120 39q80 0 118 -38q37 -37 37 -113v-364q0 -66 -11 -112.5t-48 -80.5q-41 -38 -103 -61l-69 90q21 17 33.5 36.5t17 44t5.5 37.5t1 39v332q0 36 -7 45q-9 9 -29 9q-37 0 -64 -32v-361h-174v576h-44v75h40q-1 25 -9 54l176 30
q7 -34 10 -84h165z" />
    <glyph glyph-name="afii10100" unicode="&#x453;" horiz-adv-x="429" 
d="M234 0h-174v516h365l-20 -130h-171v-386zM359 638l-231 -96l-55 88l218 121z" />
    <glyph glyph-name="afii10101" unicode="&#x454;" horiz-adv-x="445" 
d="M320 323v-110h-104v-13q0 -66 25 -82q17 -11 38 -11q30 0 56 12q28 13 46 37l73 -96q-34 -34 -78 -52q-49 -21 -115 -21q-116 0 -175 70q-58 69 -58 196q0 132 62 205q61 71 172 71q63 0 115 -21q37 -15 64 -40l-80 -98q-12 14 -34 26q-26 13 -56 13q-24 0 -35 -10
q-20 -16 -20 -63v-13h104z" />
    <glyph glyph-name="afii10102" unicode="&#x455;" horiz-adv-x="509" 
d="M464 476l-54 -108q-66 38 -126 38q-23 0 -34 -8q-12 -9 -12 -21q0 -14 11 -24q15 -11 43 -17l64 -14q59 -13 91 -45q37 -37 37 -99q0 -89 -68 -142q-64 -49 -160 -49q-70 0 -132 20q-42 14 -74 30l-30 15l61 126q36 -23 86.5 -44.5t82.5 -21.5q24 0 39 12t15 29
q0 14 -9 23q-13 12 -59 22l-67 14q-121 27 -121 141q0 80 58 128t154 48q93 0 185 -44z" />
    <glyph glyph-name="afii10103" unicode="&#x456;" horiz-adv-x="294" 
d="M247 652q0 -40 -29.5 -69t-71.5 -29q-41 0 -70 28.5t-29 69.5t29.5 69.5t72.5 28.5q41 0 69.5 -29t28.5 -69zM234 0h-174v508l174 16v-524z" />
    <glyph glyph-name="afii10104" unicode="&#x457;" horiz-adv-x="322" 
d="M248 0h-174v508l174 16v-524zM342 651q0 -31 -23 -52.5t-54 -21.5q-32 0 -55.5 21.5t-23.5 52.5q0 29 20 52.5t55 23.5q33 0 57 -22t24 -54zM136 651q0 -31 -22 -52.5t-54 -21.5q-33 0 -56.5 21.5t-23.5 52.5q0 33 22.5 54.5t53.5 21.5q34 0 57 -22t23 -54z" />
    <glyph glyph-name="afii10105" unicode="&#x458;" horiz-adv-x="294" 
d="M242 652q0 -40 -29.5 -69t-71.5 -29q-41 0 -70 28.5t-29 69.5t29.5 69.5t72.5 28.5q40 0 69 -29t29 -69zM234 524v-507q0 -69 -12.5 -114t-46.5 -77q-41 -38 -103 -61l-69 90q26 21 39.5 50.5t15.5 49t2 50.5v503z" />
    <glyph glyph-name="afii10106" unicode="&#x459;" horiz-adv-x="817" 
d="M508 346h69q98 0 145 -39q55 -46 55 -138q0 -86 -50 -131q-43 -38 -121 -38h-272v396h-81l-1 -26q-1 -45 -6 -111q-8 -92 -16 -136q-12 -64 -48 -92q-36 -29 -105 -36l-63 -6l-32 114l41 12q29 9 43 26q12 16 18 50q9 55 14 127q3 42 7 122l3 76h400v-170zM503 234v-120
h42q28 0 43 15t15 44q0 33 -17 48q-14 13 -44 13h-39z" />
    <glyph glyph-name="afii10107" unicode="&#x45a;" horiz-adv-x="817" 
d="M508 530v-184h69q98 0 145 -39q55 -46 55 -138q0 -86 -50 -131q-43 -38 -121 -38h-272v212h-100v-212h-174v502l174 28v-198h100v170zM503 234v-120h42q28 0 43 15t15 44q0 33 -17 48q-14 13 -44 13h-39z" />
    <glyph glyph-name="afii10108" unicode="&#x45b;" 
d="M508 0h-174v339q0 31 -7 42q-9 12 -27 12q-37 0 -66 -32v-361h-174v576h-44v75h40q-2 25 -9 54l176 30q7 -34 10 -84h165l-24 -75h-141v-86q45 39 120 39q80 0 118 -38q37 -37 37 -113v-378z" />
    <glyph glyph-name="afii10109" unicode="&#x45c;" horiz-adv-x="560" 
d="M60 502l174 28v-198h19q19 0 31 3.5t18.5 12.5t8.5 14.5t5 18.5l11 49q11 44 34 66q25 24 85 29l58 4l28 -112l-30 -6q-15 -3 -22 -8q-10 -7 -18 -28l-13 -40q-5 -15 -9.5 -23.5t-18.5 -20.5t-35 -15v-3q20 -6 34 -18.5t19 -22t12 -27.5l22 -56q8 -24 21 -33
q11 -7 27 -10l31 -4l-28 -115l-55 3q-75 3 -107 35q-21 21 -33 69l-17 70q-11 48 -55 48h-23v-212h-174v502zM421 638l-231 -96l-55 88l218 121z" />
    <glyph glyph-name="afii10110" unicode="&#x45e;" horiz-adv-x="540" 
d="M550 516l-196 -517q-18 -48 -27.5 -70.5t-34.5 -61t-55 -59.5q-57 -41 -147 -45l-61 112q73 13 111 41q40 28 63 84h-48q-9 48 -37 133l-128 378l178 13l77 -270q14 -46 24 -106h1q15 98 35 160l69 208h176zM357 746l80 -34q-12 -59 -54 -92q-41 -32 -113 -32t-113 32
q-42 33 -54 92l80 34q15 -28 37 -40q22 -11 50 -11t50 11q22 12 37 40z" />
    <glyph glyph-name="afii10193" unicode="&#x45f;" horiz-adv-x="554" 
d="M234 530v-416h86v388l174 28v-530h-135v-144h-164v144h-135v502z" />
    <glyph glyph-name="afii10050" unicode="&#x490;" horiz-adv-x="464" 
d="M464 792v-242h-225v-550h-179v697h243v110z" />
    <glyph glyph-name="afii10098" unicode="&#x491;" horiz-adv-x="432" 
d="M234 0h-174v516h220v87l144 -21v-196h-190v-386z" />
    <glyph glyph-name="endash" unicode="&#x2013;" 
d="M528 205h-488v133h488v-133z" />
    <glyph glyph-name="emdash" unicode="&#x2014;" horiz-adv-x="794" 
d="M754 205h-714v133h714v-133z" />
    <glyph glyph-name="quoteleft" unicode="&#x2018;" horiz-adv-x="267" 
d="M182 727l70 -64q-33 -7 -52 -21.5t-19 -30.5q0 -11 3.5 -16.5t14 -13t16.5 -13.5q28 -29 28 -75q0 -40 -28.5 -67.5t-69.5 -27.5q-54 0 -84.5 36t-30.5 100q0 70 42 125q42 52 110 68z" />
    <glyph glyph-name="quoteright" unicode="&#x2019;" horiz-adv-x="267" 
d="M68 542l-16 14q-28 28 -28 70q0 47 28 73q27 27 70 27q52 0 84 -35q31 -31 31 -101q0 -74 -42 -125q-42 -52 -110 -68l-70 64q25 4 48 18.5t23 33.5q0 5 -1 8.5t-3 7t-3.5 5t-5.5 4.5t-5 4z" />
    <glyph glyph-name="quotedblleft" unicode="&#x201c;" horiz-adv-x="513" 
d="M428 727l70 -64q-33 -7 -52 -21.5t-19 -30.5q0 -11 3.5 -16.5t14 -13t16.5 -13.5q28 -29 28 -75q0 -40 -28.5 -67.5t-69.5 -27.5q-54 0 -84.5 36t-30.5 100q0 70 42 125q42 52 110 68zM182 727l70 -64q-33 -7 -52 -21.5t-19 -30.5q0 -11 3.5 -16.5t14 -13t16.5 -13.5
q28 -29 28 -75q0 -40 -28.5 -67.5t-69.5 -27.5q-54 0 -84.5 36t-30.5 100q0 70 42 125q42 52 110 68z" />
    <glyph glyph-name="quotedblright" unicode="&#x201d;" horiz-adv-x="513" 
d="M331 397l-70 64q33 7 52 21.5t19 30.5q0 11 -3.5 16.5t-14 13t-16.5 13.5q-28 29 -28 75q0 40 28.5 67.5t69.5 27.5q54 0 84.5 -36t30.5 -100q0 -70 -42 -125q-42 -52 -110 -68zM85 397l-70 64q33 7 52 21.5t19 30.5q0 11 -3.5 16.5t-14 13t-16.5 13.5q-28 29 -28 75
q0 40 28.5 67.5t69.5 27.5q54 0 84.5 -36t30.5 -100q0 -70 -42 -125q-42 -52 -110 -68z" />
    <glyph glyph-name="quotedblbase" unicode="&#x201e;" horiz-adv-x="513" 
d="M331 -152l-70 64q33 7 52 21.5t19 30.5q0 11 -3.5 16.5t-14 13t-16.5 13.5q-28 29 -28 75q0 40 28.5 67.5t69.5 27.5q54 0 84.5 -36t30.5 -100q0 -70 -42 -125q-42 -52 -110 -68zM85 -152l-70 64q33 7 52 21.5t19 30.5q0 11 -3.5 16.5t-14 13t-16.5 13.5q-28 29 -28 75
q0 40 28.5 67.5t69.5 27.5q54 0 84.5 -36t30.5 -100q0 -70 -42 -125q-42 -52 -110 -68z" />
    <glyph glyph-name="dagger" unicode="&#x2020;" horiz-adv-x="517" 
d="M497 555l-32 -152h-131v-403h-168v403h-146v152h146v142h168v-142h163z" />
    <glyph glyph-name="bullet" unicode="&#x2022;" horiz-adv-x="474" 
d="M414 354q0 -74 -52 -125.5t-125 -51.5t-125 51.5t-52 125.5t52 125.5t125 51.5t125 -51.5t52 -125.5z" />
    <glyph glyph-name="ellipsis" unicode="&#x2026;" horiz-adv-x="812" 
d="M772 85q0 -43 -30.5 -73t-72.5 -30q-43 0 -72.5 30t-29.5 73q0 41 30 71t72 30t72.5 -30t30.5 -71zM508 85q0 -43 -30.5 -73t-72.5 -30t-71.5 30t-29.5 73q0 41 30 71t71 30q42 0 72.5 -30t30.5 -71zM245 85q0 -43 -30.5 -73t-72.5 -30q-43 0 -72.5 30t-29.5 73
q0 41 30 71t71 30q43 0 73.5 -30t30.5 -71z" />
    <glyph glyph-name="Euro" unicode="&#x20ac;" horiz-adv-x="554" 
d="M507 504v-107q-37 33 -121 33q-109 0 -129 -86h218l-31 -68h-196q0 -2 -0.5 -8.5t-0.5 -9.5q0 -11 2 -23h176l-31 -67h-134q18 -79 127 -79q77 0 120 29v-105q-45 -25 -149 -25q-228 0 -265 180h-78l31 67h39q-2 12 -2 22q0 7 2 19h-70l31 68h45q43 187 267 187
q104 0 149 -27z" />
    <glyph glyph-name="afii61352" unicode="&#x2116;" horiz-adv-x="978" 
d="M576 0h-181l-118 257q-33 72 -66 165q15 -106 15 -227v-195h-166v697h170l122 -254q38 -79 67 -159q-9 95 -9 198v215h166v-697zM938 203h-286v88h286v-88zM948 531q0 -35 -10 -72.5t-26 -58.5q-40 -52 -119 -52q-83 0 -123 54q-28 38 -28 118q0 91 48 137q42 40 107 40
q68 0 109 -41q42 -42 42 -125zM836 526q0 57 -13 75q-11 13 -28 13q-19 0 -29 -13q-12 -15 -12 -81q0 -58 14 -75q11 -12 27 -12q19 0 28 13q13 18 13 80z" />
    <glyph glyph-name="trademark" unicode="&#x2122;" horiz-adv-x="993" 
d="M953 285h-148v215h-2l-72 -215h-118l-72 215h-2v-215h-142l17 412h189l78 -235l74 235h175zM380 580h-110v-295h-140v295h-110v117h360v-117z" />
    <glyph glyph-name="radical" unicode="&#x221a;" horiz-adv-x="633" 
d="M633 745l-277 -745h-141l-145 399h-70v117h202l57 -152q25 -66 30 -111h2q6 52 26 107l142 385h174z" />
    <glyph glyph-name="infinity" unicode="&#x221e;" horiz-adv-x="963" 
d="M943 262q0 -95 -68 -148t-152 -53q-100 0 -183 58l-63 44l-54 -40q-85 -63 -187 -63q-36 0 -71 9t-69 29.5t-55 60.5t-21 95q0 100 66.5 151t156.5 51q101 0 190 -63l56 -39l55 43q78 60 186 60q36 0 70.5 -9.5t68 -30t54 -60.5t20.5 -95zM777 261q0 21 -15 33.5
t-40 12.5q-46 0 -91 -35l-14 -11l29 -18q48 -29 76 -29q29 0 42 13.5t13 33.5zM345 255l-28 21q-34 26 -74 26q-55 0 -55 -47q0 -21 15 -33.5t40 -12.5q37 0 91 38z" />
    <glyph glyph-name="approxequal" unicode="&#x2248;" horiz-adv-x="548" 
d="M508 328q-42 -56 -128 -56q-56 0 -117 29t-93 29q-49 0 -92 -37l-38 154q50 48 126 48q46 0 109 -28.5t102 -28.5q59 0 97 46zM508 68q-42 -56 -128 -56q-56 0 -117 29t-93 29q-49 0 -92 -37l-38 154q50 48 126 48q46 0 109 -28.5t102 -28.5q59 0 97 46z" />
    <glyph glyph-name="notequal" unicode="&#x2260;" horiz-adv-x="646" 
d="M606 111h-326l-90 -153l-104 62l54 91h-100v162h195l35 60h-230v162h326l85 145l103 -62l-49 -83h101v-162h-196l-35 -60h231v-162z" />
    <glyph glyph-name="lessequal" unicode="&#x2264;" horiz-adv-x="444" 
d="M414 113l-394 150v118l394 172v-167l-177 -58l177 -53v-162zM414 -24h-394v131h394v-131z" />
    <glyph glyph-name="greaterequal" unicode="&#x2265;" horiz-adv-x="445" 
d="M425 255l-394 -142l-1 162l177 50l-176 63v165l394 -180v-118zM425 -24h-394v131h394v-131z" />
    <glyph glyph-name="Acute" unicode="&#xf6c9;" horiz-adv-x="326" 
d="M306 806l-231 -96l-55 88l218 121z" />
    <glyph glyph-name="Dieresis" unicode="&#xf6cb;" horiz-adv-x="437" 
d="M417 810q0 -35 -25.5 -58.5t-60.5 -23.5q-37 0 -62.5 24t-25.5 58q0 36 24.5 60t59.5 24q37 0 63.5 -24.5t26.5 -59.5zM194 810q0 -35 -24.5 -58.5t-60.5 -23.5t-62.5 24t-26.5 58q0 31 23 57.5t62 26.5q38 0 63.5 -24t25.5 -60z" />
    <glyph glyph-name="cyrBreve" unicode="&#xf6d1;" horiz-adv-x="488" 
d="M340 890l88 -35q-13 -60 -60 -93q-48 -34 -125 -34q-75 0 -123 34q-47 33 -60 93l88 35q19 -30 41 -41q23 -11 55 -11t55 11q22 11 41 41z" />
    <glyph glyph-name="cyrbreve" unicode="&#xf6d4;" horiz-adv-x="374" 
d="M274 746l80 -34q-12 -59 -54 -92q-41 -32 -113 -32t-113 32q-42 33 -54 92l80 34q15 -28 37 -40q22 -11 50 -11t50 11q22 12 37 40z" />
    <glyph glyph-name="nbspace" horiz-adv-x="225" 
 />
    </font>
</defs>
</svg>
